<svg width="429" height="286" viewBox="0 0 429 286" fill="none" xmlns="http://www.w3.org/2000/svg">
<rect width="429" height="286" fill="#FFDDFC"/>
<path d="M185.938 119.656L186.906 134.062H185.938C184.646 129.75 182.802 126.646 180.406 124.75C178.01 122.854 175.135 121.906 171.781 121.906C168.969 121.906 166.427 122.625 164.156 124.062C161.885 125.479 160.094 127.75 158.781 130.875C157.49 134 156.844 137.885 156.844 142.531C156.844 146.365 157.458 149.688 158.688 152.5C159.917 155.312 161.76 157.469 164.219 158.969C166.698 160.469 169.521 161.219 172.688 161.219C175.438 161.219 177.865 160.635 179.969 159.469C182.073 158.281 184.385 155.938 186.906 152.438L187.875 153.062C185.75 156.833 183.271 159.594 180.438 161.344C177.604 163.094 174.24 163.969 170.344 163.969C163.323 163.969 157.885 161.365 154.031 156.156C151.156 152.281 149.719 147.719 149.719 142.469C149.719 138.24 150.667 134.354 152.562 130.812C154.458 127.271 157.062 124.531 160.375 122.594C163.708 120.635 167.344 119.656 171.281 119.656C174.344 119.656 177.365 120.406 180.344 121.906C181.219 122.365 181.844 122.594 182.219 122.594C182.781 122.594 183.271 122.396 183.688 122C184.229 121.438 184.615 120.656 184.844 119.656H185.938ZM222.75 135.719H235.875V136.875C234.062 137.021 232.719 137.427 231.844 138.094C230.99 138.74 229.646 140.719 227.812 144.031C225.979 147.344 223.917 150.438 221.625 153.312C223.479 155.479 225.135 157 226.594 157.875C228.052 158.729 229.521 159.156 231 159.156C232.438 159.156 233.656 158.771 234.656 158C235.656 157.208 236.365 156.052 236.781 154.531L237.938 155.375C237.167 158.312 235.927 160.479 234.219 161.875C232.51 163.271 230.521 163.969 228.25 163.969C226.542 163.969 224.802 163.51 223.031 162.594C221.281 161.656 219.365 160.083 217.281 157.875C214.698 160.167 212.365 161.76 210.281 162.656C208.219 163.531 206.01 163.969 203.656 163.969C200.219 163.969 197.49 163.052 195.469 161.219C193.448 159.385 192.438 157.198 192.438 154.656C192.438 152.135 193.344 149.625 195.156 147.125C196.969 144.604 200.375 142 205.375 139.312C204.396 137.146 203.729 135.375 203.375 134C203.021 132.604 202.844 131.271 202.844 130C202.844 126.438 204.156 123.719 206.781 121.844C208.823 120.385 211.146 119.656 213.75 119.656C216.229 119.656 218.25 120.396 219.812 121.875C221.375 123.333 222.156 125.135 222.156 127.281C222.156 129.49 221.396 131.427 219.875 133.094C218.375 134.76 215.708 136.583 211.875 138.562C214.521 143.271 217.281 147.583 220.156 151.5C223.823 147.125 225.656 143.438 225.656 140.438C225.656 139.479 225.344 138.625 224.719 137.875C224.26 137.312 223.604 136.979 222.75 136.875V135.719ZM210.812 136.531C213.396 135.302 215.323 133.906 216.594 132.344C217.885 130.781 218.531 129.042 218.531 127.125C218.531 125.625 218.062 124.385 217.125 123.406C216.208 122.427 215.062 121.938 213.688 121.938C211.875 121.938 210.5 122.573 209.562 123.844C208.646 125.094 208.188 126.323 208.188 127.531C208.188 128.552 208.365 129.698 208.719 130.969C209.073 132.219 209.771 134.073 210.812 136.531ZM215.656 156.062C212.906 152.312 211 149.573 209.938 147.844C208.875 146.115 207.708 143.969 206.438 141.406C203.938 142.844 202.052 144.427 200.781 146.156C199.531 147.885 198.906 149.76 198.906 151.781C198.906 154.01 199.625 155.969 201.062 157.656C202.5 159.344 204.438 160.188 206.875 160.188C208.188 160.188 209.448 159.927 210.656 159.406C211.885 158.885 213.552 157.771 215.656 156.062ZM278.438 119.656L279.406 134.062H278.438C277.146 129.75 275.302 126.646 272.906 124.75C270.51 122.854 267.635 121.906 264.281 121.906C261.469 121.906 258.927 122.625 256.656 124.062C254.385 125.479 252.594 127.75 251.281 130.875C249.99 134 249.344 137.885 249.344 142.531C249.344 146.365 249.958 149.688 251.188 152.5C252.417 155.312 254.26 157.469 256.719 158.969C259.198 160.469 262.021 161.219 265.188 161.219C267.938 161.219 270.365 160.635 272.469 159.469C274.573 158.281 276.885 155.938 279.406 152.438L280.375 153.062C278.25 156.833 275.771 159.594 272.938 161.344C270.104 163.094 266.74 163.969 262.844 163.969C255.823 163.969 250.385 161.365 246.531 156.156C243.656 152.281 242.219 147.719 242.219 142.469C242.219 138.24 243.167 134.354 245.062 130.812C246.958 127.271 249.562 124.531 252.875 122.594C256.208 120.635 259.844 119.656 263.781 119.656C266.844 119.656 269.865 120.406 272.844 121.906C273.719 122.365 274.344 122.594 274.719 122.594C275.281 122.594 275.771 122.396 276.188 122C276.729 121.438 277.115 120.656 277.344 119.656H278.438ZM210.693 198.793C211.753 198.793 213.127 199.887 213.127 201.657C213.127 203.284 211.958 205 209.688 205H205.525V193.98H208.533C210.488 193.98 211.732 195.416 211.732 196.899C211.732 198.068 210.96 198.793 210.693 198.793ZM208.67 196.134H207.733V198.287H208.629C209.155 198.287 209.668 197.836 209.668 197.193C209.668 196.571 209.183 196.134 208.67 196.134ZM209.483 202.84C210.201 202.84 210.967 202.348 210.967 201.5C210.967 200.864 210.529 200.229 209.477 200.229H207.733V202.84H209.483ZM224.898 198.813C224.933 199.135 224.953 199.442 224.953 199.743C224.953 203.202 222.567 205.219 219.696 205.219C216.449 205.219 213.893 202.648 213.893 199.504C213.893 196.353 216.463 193.755 219.614 193.755C221.043 193.769 222.567 194.425 223.647 195.478L222.417 197.316C221.556 196.476 220.571 195.997 219.587 195.997C217.878 195.997 216.148 197.446 216.148 199.504C216.148 201.418 217.639 202.99 219.792 202.99C221.364 202.99 222.492 202.184 222.567 200.857H219.717V198.813H224.898Z" fill="#533050"/>
</svg>
