<svg width="429" height="286" viewBox="0 0 429 286" fill="none" xmlns="http://www.w3.org/2000/svg">
<rect width="429" height="286" fill="#FFDDFC"/>
<path d="M111.785 69.901V72.93H115.087V73.905H111.785V77.025H115.477V78H110.602V68.926H115.477V69.901H111.785ZM120.335 78L118.645 75.348L117.02 78H115.785L118.086 74.464L115.785 70.876H117.124L118.814 73.515L120.426 70.876H121.661L119.373 74.399L121.674 78H120.335ZM123.371 72.189C123.605 71.7817 123.951 71.4437 124.411 71.175C124.879 70.8977 125.42 70.759 126.036 70.759C126.668 70.759 127.24 70.9107 127.752 71.214C128.272 71.5173 128.679 71.9463 128.974 72.501C129.268 73.047 129.416 73.684 129.416 74.412C129.416 75.1313 129.268 75.7727 128.974 76.336C128.679 76.8993 128.272 77.337 127.752 77.649C127.24 77.961 126.668 78.117 126.036 78.117C125.429 78.117 124.892 77.9827 124.424 77.714C123.964 77.4367 123.613 77.0943 123.371 76.687V81.38H122.188V70.876H123.371V72.189ZM128.207 74.412C128.207 73.8747 128.098 73.4067 127.882 73.008C127.665 72.6093 127.37 72.306 126.998 72.098C126.634 71.89 126.231 71.786 125.789 71.786C125.355 71.786 124.952 71.8943 124.58 72.111C124.216 72.319 123.921 72.6267 123.696 73.034C123.479 73.4327 123.371 73.8963 123.371 74.425C123.371 74.9623 123.479 75.4347 123.696 75.842C123.921 76.2407 124.216 76.5483 124.58 76.765C124.952 76.973 125.355 77.077 125.789 77.077C126.231 77.077 126.634 76.973 126.998 76.765C127.37 76.5483 127.665 76.2407 127.882 75.842C128.098 75.4347 128.207 74.958 128.207 74.412ZM129.881 74.412C129.881 73.684 130.028 73.047 130.323 72.501C130.618 71.9463 131.021 71.5173 131.532 71.214C132.052 70.9107 132.628 70.759 133.261 70.759C133.885 70.759 134.427 70.8933 134.886 71.162C135.345 71.4307 135.688 71.7687 135.913 72.176V70.876H137.109V78H135.913V76.674C135.679 77.09 135.328 77.4367 134.86 77.714C134.401 77.9827 133.863 78.117 133.248 78.117C132.615 78.117 132.043 77.961 131.532 77.649C131.021 77.337 130.618 76.8993 130.323 76.336C130.028 75.7727 129.881 75.1313 129.881 74.412ZM135.913 74.425C135.913 73.8877 135.805 73.4197 135.588 73.021C135.371 72.6223 135.077 72.319 134.704 72.111C134.34 71.8943 133.937 71.786 133.495 71.786C133.053 71.786 132.65 71.89 132.286 72.098C131.922 72.306 131.632 72.6093 131.415 73.008C131.198 73.4067 131.09 73.8747 131.09 74.412C131.09 74.958 131.198 75.4347 131.415 75.842C131.632 76.2407 131.922 76.5483 132.286 76.765C132.65 76.973 133.053 77.077 133.495 77.077C133.937 77.077 134.34 76.973 134.704 76.765C135.077 76.5483 135.371 76.2407 135.588 75.842C135.805 75.4347 135.913 74.9623 135.913 74.425ZM141.929 70.746C142.796 70.746 143.498 71.0103 144.035 71.539C144.572 72.059 144.841 72.813 144.841 73.801V78H143.671V73.97C143.671 73.2593 143.493 72.7177 143.138 72.345C142.783 71.9637 142.297 71.773 141.682 71.773C141.058 71.773 140.56 71.968 140.187 72.358C139.823 72.748 139.641 73.3157 139.641 74.061V78H138.458V70.876H139.641V71.89C139.875 71.526 140.191 71.2443 140.59 71.045C140.997 70.8457 141.444 70.746 141.929 70.746ZM145.681 74.412C145.681 73.684 145.829 73.047 146.123 72.501C146.418 71.9463 146.821 71.5173 147.332 71.214C147.852 70.9107 148.433 70.759 149.074 70.759C149.629 70.759 150.145 70.889 150.621 71.149C151.098 71.4003 151.462 71.734 151.713 72.15V68.38H152.909V78H151.713V76.661C151.479 77.0857 151.133 77.4367 150.673 77.714C150.214 77.9827 149.677 78.117 149.061 78.117C148.429 78.117 147.852 77.961 147.332 77.649C146.821 77.337 146.418 76.8993 146.123 76.336C145.829 75.7727 145.681 75.1313 145.681 74.412ZM151.713 74.425C151.713 73.8877 151.605 73.4197 151.388 73.021C151.172 72.6223 150.877 72.319 150.504 72.111C150.14 71.8943 149.737 71.786 149.295 71.786C148.853 71.786 148.45 71.89 148.086 72.098C147.722 72.306 147.432 72.6093 147.215 73.008C146.999 73.4067 146.89 73.8747 146.89 74.412C146.89 74.958 146.999 75.4347 147.215 75.842C147.432 76.2407 147.722 76.5483 148.086 76.765C148.45 76.973 148.853 77.077 149.295 77.077C149.737 77.077 150.14 76.973 150.504 76.765C150.877 76.5483 151.172 76.2407 151.388 75.842C151.605 75.4347 151.713 74.9623 151.713 74.425ZM154.87 69.719C154.644 69.719 154.454 69.641 154.298 69.485C154.142 69.329 154.064 69.1383 154.064 68.913C154.064 68.6877 154.142 68.497 154.298 68.341C154.454 68.185 154.644 68.107 154.87 68.107C155.086 68.107 155.268 68.185 155.416 68.341C155.572 68.497 155.65 68.6877 155.65 68.913C155.65 69.1383 155.572 69.329 155.416 69.485C155.268 69.641 155.086 69.719 154.87 69.719ZM155.442 70.876V78H154.259V70.876H155.442ZM160.279 70.746C161.146 70.746 161.848 71.0103 162.385 71.539C162.922 72.059 163.191 72.813 163.191 73.801V78H162.021V73.97C162.021 73.2593 161.843 72.7177 161.488 72.345C161.133 71.9637 160.647 71.773 160.032 71.773C159.408 71.773 158.91 71.968 158.537 72.358C158.173 72.748 157.991 73.3157 157.991 74.061V78H156.808V70.876H157.991V71.89C158.225 71.526 158.541 71.2443 158.94 71.045C159.347 70.8457 159.794 70.746 160.279 70.746ZM164.031 74.412C164.031 73.684 164.179 73.047 164.473 72.501C164.768 71.9463 165.171 71.5173 165.682 71.214C166.202 70.9107 166.783 70.759 167.424 70.759C167.979 70.759 168.495 70.889 168.971 71.149C169.448 71.4003 169.812 71.734 170.063 72.15V68.38H171.259V78H170.063V76.661C169.829 77.0857 169.483 77.4367 169.023 77.714C168.564 77.9827 168.027 78.117 167.411 78.117C166.779 78.117 166.202 77.961 165.682 77.649C165.171 77.337 164.768 76.8993 164.473 76.336C164.179 75.7727 164.031 75.1313 164.031 74.412ZM170.063 74.425C170.063 73.8877 169.955 73.4197 169.738 73.021C169.522 72.6223 169.227 72.319 168.854 72.111C168.49 71.8943 168.087 71.786 167.645 71.786C167.203 71.786 166.8 71.89 166.436 72.098C166.072 72.306 165.782 72.6093 165.565 73.008C165.349 73.4067 165.24 73.8747 165.24 74.412C165.24 74.958 165.349 75.4347 165.565 75.842C165.782 76.2407 166.072 76.5483 166.436 76.765C166.8 76.973 167.203 77.077 167.645 77.077C168.087 77.077 168.49 76.973 168.854 76.765C169.227 76.5483 169.522 76.2407 169.738 75.842C169.955 75.4347 170.063 74.9623 170.063 74.425ZM175.715 78.117C175.048 78.117 174.441 77.9653 173.895 77.662C173.358 77.3587 172.933 76.9297 172.621 76.375C172.318 75.8117 172.166 75.1617 172.166 74.425C172.166 73.697 172.322 73.0557 172.634 72.501C172.955 71.9377 173.388 71.5087 173.934 71.214C174.48 70.9107 175.091 70.759 175.767 70.759C176.443 70.759 177.054 70.9107 177.6 71.214C178.146 71.5087 178.575 71.9333 178.887 72.488C179.208 73.0427 179.368 73.6883 179.368 74.425C179.368 75.1617 179.204 75.8117 178.874 76.375C178.554 76.9297 178.116 77.3587 177.561 77.662C177.007 77.9653 176.391 78.117 175.715 78.117ZM175.715 77.077C176.14 77.077 176.539 76.9773 176.911 76.778C177.284 76.5787 177.583 76.2797 177.808 75.881C178.042 75.4823 178.159 74.997 178.159 74.425C178.159 73.853 178.047 73.3677 177.821 72.969C177.596 72.5703 177.301 72.2757 176.937 72.085C176.573 71.8857 176.179 71.786 175.754 71.786C175.321 71.786 174.922 71.8857 174.558 72.085C174.203 72.2757 173.917 72.5703 173.7 72.969C173.484 73.3677 173.375 73.853 173.375 74.425C173.375 75.0057 173.479 75.4953 173.687 75.894C173.904 76.2927 174.19 76.5917 174.545 76.791C174.901 76.9817 175.291 77.077 175.715 77.077ZM186.197 78.117C185.529 78.117 184.923 77.9653 184.377 77.662C183.839 77.3587 183.415 76.9297 183.103 76.375C182.799 75.8117 182.648 75.1617 182.648 74.425C182.648 73.697 182.804 73.0557 183.116 72.501C183.436 71.9377 183.87 71.5087 184.416 71.214C184.962 70.9107 185.573 70.759 186.249 70.759C186.925 70.759 187.536 70.9107 188.082 71.214C188.628 71.5087 189.057 71.9333 189.369 72.488C189.689 73.0427 189.85 73.6883 189.85 74.425C189.85 75.1617 189.685 75.8117 189.356 76.375C189.035 76.9297 188.597 77.3587 188.043 77.662C187.488 77.9653 186.873 78.117 186.197 78.117ZM186.197 77.077C186.621 77.077 187.02 76.9773 187.393 76.778C187.765 76.5787 188.064 76.2797 188.29 75.881C188.524 75.4823 188.641 74.997 188.641 74.425C188.641 73.853 188.528 73.3677 188.303 72.969C188.077 72.5703 187.783 72.2757 187.419 72.085C187.055 71.8857 186.66 71.786 186.236 71.786C185.802 71.786 185.404 71.8857 185.04 72.085C184.684 72.2757 184.398 72.5703 184.182 72.969C183.965 73.3677 183.857 73.853 183.857 74.425C183.857 75.0057 183.961 75.4953 184.169 75.894C184.385 76.2927 184.671 76.5917 185.027 76.791C185.382 76.9817 185.772 77.077 186.197 77.077ZM193.129 74.425C193.129 73.6883 193.276 73.047 193.571 72.501C193.866 71.9463 194.273 71.5173 194.793 71.214C195.322 70.9107 195.924 70.759 196.6 70.759C197.475 70.759 198.195 70.9713 198.758 71.396C199.33 71.8207 199.707 72.41 199.889 73.164H198.615C198.494 72.7307 198.255 72.3883 197.9 72.137C197.553 71.8857 197.12 71.76 196.6 71.76C195.924 71.76 195.378 71.994 194.962 72.462C194.546 72.9213 194.338 73.5757 194.338 74.425C194.338 75.283 194.546 75.946 194.962 76.414C195.378 76.882 195.924 77.116 196.6 77.116C197.12 77.116 197.553 76.9947 197.9 76.752C198.247 76.5093 198.485 76.1627 198.615 75.712H199.889C199.698 76.44 199.317 77.025 198.745 77.467C198.173 77.9003 197.458 78.117 196.6 78.117C195.924 78.117 195.322 77.9653 194.793 77.662C194.273 77.3587 193.866 76.9297 193.571 76.375C193.276 75.8203 193.129 75.1703 193.129 74.425ZM203.924 78.117C203.257 78.117 202.65 77.9653 202.104 77.662C201.567 77.3587 201.142 76.9297 200.83 76.375C200.527 75.8117 200.375 75.1617 200.375 74.425C200.375 73.697 200.531 73.0557 200.843 72.501C201.164 71.9377 201.597 71.5087 202.143 71.214C202.689 70.9107 203.3 70.759 203.976 70.759C204.652 70.759 205.263 70.9107 205.809 71.214C206.355 71.5087 206.784 71.9333 207.096 72.488C207.417 73.0427 207.577 73.6883 207.577 74.425C207.577 75.1617 207.413 75.8117 207.083 76.375C206.763 76.9297 206.325 77.3587 205.77 77.662C205.216 77.9653 204.6 78.117 203.924 78.117ZM203.924 77.077C204.349 77.077 204.748 76.9773 205.12 76.778C205.493 76.5787 205.792 76.2797 206.017 75.881C206.251 75.4823 206.368 74.997 206.368 74.425C206.368 73.853 206.256 73.3677 206.03 72.969C205.805 72.5703 205.51 72.2757 205.146 72.085C204.782 71.8857 204.388 71.786 203.963 71.786C203.53 71.786 203.131 71.8857 202.767 72.085C202.412 72.2757 202.126 72.5703 201.909 72.969C201.693 73.3677 201.584 73.853 201.584 74.425C201.584 75.0057 201.688 75.4953 201.896 75.894C202.113 76.2927 202.399 76.5917 202.754 76.791C203.11 76.9817 203.5 77.077 203.924 77.077ZM211.954 70.746C212.821 70.746 213.523 71.0103 214.06 71.539C214.597 72.059 214.866 72.813 214.866 73.801V78H213.696V73.97C213.696 73.2593 213.518 72.7177 213.163 72.345C212.808 71.9637 212.322 71.773 211.707 71.773C211.083 71.773 210.585 71.968 210.212 72.358C209.848 72.748 209.666 73.3157 209.666 74.061V78H208.483V70.876H209.666V71.89C209.9 71.526 210.216 71.2443 210.615 71.045C211.022 70.8457 211.469 70.746 211.954 70.746ZM215.706 74.425C215.706 73.6883 215.854 73.047 216.148 72.501C216.443 71.9463 216.85 71.5173 217.37 71.214C217.899 70.9107 218.501 70.759 219.177 70.759C220.053 70.759 220.772 70.9713 221.335 71.396C221.907 71.8207 222.284 72.41 222.466 73.164H221.192C221.071 72.7307 220.833 72.3883 220.477 72.137C220.131 71.8857 219.697 71.76 219.177 71.76C218.501 71.76 217.955 71.994 217.539 72.462C217.123 72.9213 216.915 73.5757 216.915 74.425C216.915 75.283 217.123 75.946 217.539 76.414C217.955 76.882 218.501 77.116 219.177 77.116C219.697 77.116 220.131 76.9947 220.477 76.752C220.824 76.5093 221.062 76.1627 221.192 75.712H222.466C222.276 76.44 221.894 77.025 221.322 77.467C220.75 77.9003 220.035 78.117 219.177 78.117C218.501 78.117 217.899 77.9653 217.37 77.662C216.85 77.3587 216.443 76.9297 216.148 76.375C215.854 75.8203 215.706 75.1703 215.706 74.425ZM229.895 74.165C229.895 74.3903 229.882 74.6287 229.856 74.88H224.162C224.205 75.582 224.443 76.1323 224.877 76.531C225.319 76.921 225.852 77.116 226.476 77.116C226.987 77.116 227.412 76.999 227.75 76.765C228.096 76.5223 228.339 76.2017 228.478 75.803H229.752C229.561 76.4877 229.18 77.0467 228.608 77.48C228.036 77.9047 227.325 78.117 226.476 78.117C225.8 78.117 225.193 77.9653 224.656 77.662C224.127 77.3587 223.711 76.9297 223.408 76.375C223.104 75.8117 222.953 75.1617 222.953 74.425C222.953 73.6883 223.1 73.0427 223.395 72.488C223.689 71.9333 224.101 71.5087 224.63 71.214C225.167 70.9107 225.782 70.759 226.476 70.759C227.152 70.759 227.75 70.9063 228.27 71.201C228.79 71.4957 229.188 71.903 229.466 72.423C229.752 72.9343 229.895 73.515 229.895 74.165ZM228.673 73.918C228.673 73.4673 228.573 73.0817 228.374 72.761C228.174 72.4317 227.901 72.1847 227.555 72.02C227.217 71.8467 226.84 71.76 226.424 71.76C225.826 71.76 225.314 71.9507 224.89 72.332C224.474 72.7133 224.235 73.242 224.175 73.918H228.673ZM231.417 69.719C231.192 69.719 231.001 69.641 230.845 69.485C230.689 69.329 230.611 69.1383 230.611 68.913C230.611 68.6877 230.689 68.497 230.845 68.341C231.001 68.185 231.192 68.107 231.417 68.107C231.634 68.107 231.816 68.185 231.963 68.341C232.119 68.497 232.197 68.6877 232.197 68.913C232.197 69.1383 232.119 69.329 231.963 69.485C231.816 69.641 231.634 69.719 231.417 69.719ZM231.989 70.876V78H230.806V70.876H231.989ZM234.798 71.851V76.05C234.798 76.3967 234.872 76.6437 235.019 76.791C235.167 76.9297 235.422 76.999 235.786 76.999H236.657V78H235.591C234.933 78 234.439 77.8483 234.109 77.545C233.78 77.2417 233.615 76.7433 233.615 76.05V71.851H232.692V70.876H233.615V69.082H234.798V70.876H236.657V71.851H234.798ZM240.548 78.117C239.881 78.117 239.274 77.9653 238.728 77.662C238.191 77.3587 237.766 76.9297 237.454 76.375C237.151 75.8117 236.999 75.1617 236.999 74.425C236.999 73.697 237.155 73.0557 237.467 72.501C237.788 71.9377 238.221 71.5087 238.767 71.214C239.313 70.9107 239.924 70.759 240.6 70.759C241.276 70.759 241.887 70.9107 242.433 71.214C242.979 71.5087 243.408 71.9333 243.72 72.488C244.041 73.0427 244.201 73.6883 244.201 74.425C244.201 75.1617 244.036 75.8117 243.707 76.375C243.386 76.9297 242.949 77.3587 242.394 77.662C241.839 77.9653 241.224 78.117 240.548 78.117ZM240.548 77.077C240.973 77.077 241.371 76.9773 241.744 76.778C242.117 76.5787 242.416 76.2797 242.641 75.881C242.875 75.4823 242.992 74.997 242.992 74.425C242.992 73.853 242.879 73.3677 242.654 72.969C242.429 72.5703 242.134 72.2757 241.77 72.085C241.406 71.8857 241.012 71.786 240.587 71.786C240.154 71.786 239.755 71.8857 239.391 72.085C239.036 72.2757 238.75 72.5703 238.533 72.969C238.316 73.3677 238.208 73.853 238.208 74.425C238.208 75.0057 238.312 75.4953 238.52 75.894C238.737 76.2927 239.023 76.5917 239.378 76.791C239.733 76.9817 240.123 77.077 240.548 77.077ZM247.48 74.412C247.48 73.684 247.627 73.047 247.922 72.501C248.217 71.9463 248.62 71.5173 249.131 71.214C249.651 70.9107 250.232 70.759 250.873 70.759C251.428 70.759 251.943 70.889 252.42 71.149C252.897 71.4003 253.261 71.734 253.512 72.15V68.38H254.708V78H253.512V76.661C253.278 77.0857 252.931 77.4367 252.472 77.714C252.013 77.9827 251.475 78.117 250.86 78.117C250.227 78.117 249.651 77.961 249.131 77.649C248.62 77.337 248.217 76.8993 247.922 76.336C247.627 75.7727 247.48 75.1313 247.48 74.412ZM253.512 74.425C253.512 73.8877 253.404 73.4197 253.187 73.021C252.97 72.6223 252.676 72.319 252.303 72.111C251.939 71.8943 251.536 71.786 251.094 71.786C250.652 71.786 250.249 71.89 249.885 72.098C249.521 72.306 249.231 72.6093 249.014 73.008C248.797 73.4067 248.689 73.8747 248.689 74.412C248.689 74.958 248.797 75.4347 249.014 75.842C249.231 76.2407 249.521 76.5483 249.885 76.765C250.249 76.973 250.652 77.077 251.094 77.077C251.536 77.077 251.939 76.973 252.303 76.765C252.676 76.5483 252.97 76.2407 253.187 75.842C253.404 75.4347 253.512 74.9623 253.512 74.425ZM262.557 74.165C262.557 74.3903 262.544 74.6287 262.518 74.88H256.824C256.868 75.582 257.106 76.1323 257.539 76.531C257.981 76.921 258.514 77.116 259.138 77.116C259.65 77.116 260.074 76.999 260.412 76.765C260.759 76.5223 261.002 76.2017 261.14 75.803H262.414C262.224 76.4877 261.842 77.0467 261.27 77.48C260.698 77.9047 259.988 78.117 259.138 78.117C258.462 78.117 257.856 77.9653 257.318 77.662C256.79 77.3587 256.374 76.9297 256.07 76.375C255.767 75.8117 255.615 75.1617 255.615 74.425C255.615 73.6883 255.763 73.0427 256.057 72.488C256.352 71.9333 256.764 71.5087 257.292 71.214C257.83 70.9107 258.445 70.759 259.138 70.759C259.814 70.759 260.412 70.9063 260.932 71.201C261.452 71.4957 261.851 71.903 262.128 72.423C262.414 72.9343 262.557 73.515 262.557 74.165ZM261.335 73.918C261.335 73.4673 261.236 73.0817 261.036 72.761C260.837 72.4317 260.564 72.1847 260.217 72.02C259.879 71.8467 259.502 71.76 259.086 71.76C258.488 71.76 257.977 71.9507 257.552 72.332C257.136 72.7133 256.898 73.242 256.837 73.918H261.335ZM265.843 74.425C265.843 73.6883 265.99 73.047 266.285 72.501C266.579 71.9463 266.987 71.5173 267.507 71.214C268.035 70.9107 268.638 70.759 269.314 70.759C270.189 70.759 270.908 70.9713 271.472 71.396C272.044 71.8207 272.421 72.41 272.603 73.164H271.329C271.207 72.7307 270.969 72.3883 270.614 72.137C270.267 71.8857 269.834 71.76 269.314 71.76C268.638 71.76 268.092 71.994 267.676 72.462C267.26 72.9213 267.052 73.5757 267.052 74.425C267.052 75.283 267.26 75.946 267.676 76.414C268.092 76.882 268.638 77.116 269.314 77.116C269.834 77.116 270.267 76.9947 270.614 76.752C270.96 76.5093 271.199 76.1627 271.329 75.712H272.603C272.412 76.44 272.031 77.025 271.459 77.467C270.887 77.9003 270.172 78.117 269.314 78.117C268.638 78.117 268.035 77.9653 267.507 77.662C266.987 77.3587 266.579 76.9297 266.285 76.375C265.99 75.8203 265.843 75.1703 265.843 74.425ZM279.849 70.876V78H278.666V76.947C278.441 77.311 278.124 77.597 277.717 77.805C277.318 78.0043 276.876 78.104 276.391 78.104C275.836 78.104 275.338 77.9913 274.896 77.766C274.454 77.532 274.103 77.1853 273.843 76.726C273.592 76.2667 273.466 75.7077 273.466 75.049V70.876H274.636V74.893C274.636 75.595 274.814 76.1367 275.169 76.518C275.524 76.8907 276.01 77.077 276.625 77.077C277.258 77.077 277.756 76.882 278.12 76.492C278.484 76.102 278.666 75.5343 278.666 74.789V70.876H279.849ZM281.807 69.719C281.582 69.719 281.391 69.641 281.235 69.485C281.079 69.329 281.001 69.1383 281.001 68.913C281.001 68.6877 281.079 68.497 281.235 68.341C281.391 68.185 281.582 68.107 281.807 68.107C282.024 68.107 282.206 68.185 282.353 68.341C282.509 68.497 282.587 68.6877 282.587 68.913C282.587 69.1383 282.509 69.329 282.353 69.485C282.206 69.641 282.024 69.719 281.807 69.719ZM282.379 70.876V78H281.196V70.876H282.379ZM283.304 74.412C283.304 73.684 283.451 73.047 283.746 72.501C284.04 71.9463 284.443 71.5173 284.955 71.214C285.475 70.9107 286.055 70.759 286.697 70.759C287.251 70.759 287.767 70.889 288.244 71.149C288.72 71.4003 289.084 71.734 289.336 72.15V68.38H290.532V78H289.336V76.661C289.102 77.0857 288.755 77.4367 288.296 77.714C287.836 77.9827 287.299 78.117 286.684 78.117C286.051 78.117 285.475 77.961 284.955 77.649C284.443 77.337 284.04 76.8993 283.746 76.336C283.451 75.7727 283.304 75.1313 283.304 74.412ZM289.336 74.425C289.336 73.8877 289.227 73.4197 289.011 73.021C288.794 72.6223 288.499 72.319 288.127 72.111C287.763 71.8943 287.36 71.786 286.918 71.786C286.476 71.786 286.073 71.89 285.709 72.098C285.345 72.306 285.054 72.6093 284.838 73.008C284.621 73.4067 284.513 73.8747 284.513 74.412C284.513 74.958 284.621 75.4347 284.838 75.842C285.054 76.2407 285.345 76.5483 285.709 76.765C286.073 76.973 286.476 77.077 286.918 77.077C287.36 77.077 287.763 76.973 288.127 76.765C288.499 76.5483 288.794 76.2407 289.011 75.842C289.227 75.4347 289.336 74.9623 289.336 74.425ZM291.439 74.412C291.439 73.684 291.586 73.047 291.881 72.501C292.176 71.9463 292.579 71.5173 293.09 71.214C293.61 70.9107 294.186 70.759 294.819 70.759C295.443 70.759 295.985 70.8933 296.444 71.162C296.903 71.4307 297.246 71.7687 297.471 72.176V70.876H298.667V78H297.471V76.674C297.237 77.09 296.886 77.4367 296.418 77.714C295.959 77.9827 295.421 78.117 294.806 78.117C294.173 78.117 293.601 77.961 293.09 77.649C292.579 77.337 292.176 76.8993 291.881 76.336C291.586 75.7727 291.439 75.1313 291.439 74.412ZM297.471 74.425C297.471 73.8877 297.363 73.4197 297.146 73.021C296.929 72.6223 296.635 72.319 296.262 72.111C295.898 71.8943 295.495 71.786 295.053 71.786C294.611 71.786 294.208 71.89 293.844 72.098C293.48 72.306 293.19 72.6093 292.973 73.008C292.756 73.4067 292.648 73.8747 292.648 74.412C292.648 74.958 292.756 75.4347 292.973 75.842C293.19 76.2407 293.48 76.5483 293.844 76.765C294.208 76.973 294.611 77.077 295.053 77.077C295.495 77.077 295.898 76.973 296.262 76.765C296.635 76.5483 296.929 76.2407 297.146 75.842C297.363 75.4347 297.471 74.9623 297.471 74.425ZM299.574 74.412C299.574 73.684 299.721 73.047 300.016 72.501C300.311 71.9463 300.714 71.5173 301.225 71.214C301.745 70.9107 302.326 70.759 302.967 70.759C303.522 70.759 304.037 70.889 304.514 71.149C304.991 71.4003 305.355 71.734 305.606 72.15V68.38H306.802V78H305.606V76.661C305.372 77.0857 305.025 77.4367 304.566 77.714C304.107 77.9827 303.569 78.117 302.954 78.117C302.321 78.117 301.745 77.961 301.225 77.649C300.714 77.337 300.311 76.8993 300.016 76.336C299.721 75.7727 299.574 75.1313 299.574 74.412ZM305.606 74.425C305.606 73.8877 305.498 73.4197 305.281 73.021C305.064 72.6223 304.77 72.319 304.397 72.111C304.033 71.8943 303.63 71.786 303.188 71.786C302.746 71.786 302.343 71.89 301.979 72.098C301.615 72.306 301.325 72.6093 301.108 73.008C300.891 73.4067 300.783 73.8747 300.783 74.412C300.783 74.958 300.891 75.4347 301.108 75.842C301.325 76.2407 301.615 76.5483 301.979 76.765C302.343 76.973 302.746 77.077 303.188 77.077C303.63 77.077 304.033 76.973 304.397 76.765C304.77 76.5483 305.064 76.2407 305.281 75.842C305.498 75.4347 305.606 74.9623 305.606 74.425ZM311.258 78.117C310.591 78.117 309.984 77.9653 309.438 77.662C308.901 77.3587 308.476 76.9297 308.164 76.375C307.861 75.8117 307.709 75.1617 307.709 74.425C307.709 73.697 307.865 73.0557 308.177 72.501C308.498 71.9377 308.931 71.5087 309.477 71.214C310.023 70.9107 310.634 70.759 311.31 70.759C311.986 70.759 312.597 70.9107 313.143 71.214C313.689 71.5087 314.118 71.9333 314.43 72.488C314.751 73.0427 314.911 73.6883 314.911 74.425C314.911 75.1617 314.747 75.8117 314.417 76.375C314.097 76.9297 313.659 77.3587 313.104 77.662C312.55 77.9653 311.934 78.117 311.258 78.117ZM311.258 77.077C311.683 77.077 312.082 76.9773 312.454 76.778C312.827 76.5787 313.126 76.2797 313.351 75.881C313.585 75.4823 313.702 74.997 313.702 74.425C313.702 73.853 313.59 73.3677 313.364 72.969C313.139 72.5703 312.844 72.2757 312.48 72.085C312.116 71.8857 311.722 71.786 311.297 71.786C310.864 71.786 310.465 71.8857 310.101 72.085C309.746 72.2757 309.46 72.5703 309.243 72.969C309.027 73.3677 308.918 73.853 308.918 74.425C308.918 75.0057 309.022 75.4953 309.23 75.894C309.447 76.2927 309.733 76.5917 310.088 76.791C310.444 76.9817 310.834 77.077 311.258 77.077ZM316.194 78.078C315.968 78.078 315.778 78 315.622 77.844C315.466 77.688 315.388 77.4973 315.388 77.272C315.388 77.0467 315.466 76.856 315.622 76.7C315.778 76.544 315.968 76.466 316.194 76.466C316.41 76.466 316.592 76.544 316.74 76.7C316.896 76.856 316.974 77.0467 316.974 77.272C316.974 77.4973 316.896 77.688 316.74 77.844C316.592 78 316.41 78.078 316.194 78.078ZM316.194 72.514C315.968 72.514 315.778 72.436 315.622 72.28C315.466 72.124 315.388 71.9333 315.388 71.708C315.388 71.4827 315.466 71.292 315.622 71.136C315.778 70.98 315.968 70.902 316.194 70.902C316.41 70.902 316.592 70.98 316.74 71.136C316.896 71.292 316.974 71.4827 316.974 71.708C316.974 71.9333 316.896 72.124 316.74 72.28C316.592 72.436 316.41 72.514 316.194 72.514ZM33.1071 110.28H25.8111L24.4671 114H22.1631L28.2111 97.368H30.7311L36.7551 114H34.4511L33.1071 110.28ZM32.4831 108.504L29.4591 100.056L26.4351 108.504H32.4831ZM44.035 104.82C44.355 104.193 44.8083 103.707 45.395 103.36C45.995 103.013 46.7217 102.84 47.575 102.84V104.72H47.095C45.055 104.72 44.035 105.827 44.035 108.04V114H42.215V103.04H44.035V104.82ZM53.4559 114.18C52.4293 114.18 51.4959 113.947 50.6559 113.48C49.8293 113.013 49.1759 112.353 48.6959 111.5C48.2293 110.633 47.9959 109.633 47.9959 108.5C47.9959 107.38 48.2359 106.393 48.7159 105.54C49.2093 104.673 49.8759 104.013 50.7159 103.56C51.5559 103.093 52.4959 102.86 53.5359 102.86C54.5759 102.86 55.5159 103.093 56.3559 103.56C57.1959 104.013 57.8559 104.667 58.3359 105.52C58.8293 106.373 59.0759 107.367 59.0759 108.5C59.0759 109.633 58.8226 110.633 58.3159 111.5C57.8226 112.353 57.1493 113.013 56.2959 113.48C55.4426 113.947 54.4959 114.18 53.4559 114.18ZM53.4559 112.58C54.1093 112.58 54.7226 112.427 55.2959 112.12C55.8693 111.813 56.3293 111.353 56.6759 110.74C57.0359 110.127 57.2159 109.38 57.2159 108.5C57.2159 107.62 57.0426 106.873 56.6959 106.26C56.3493 105.647 55.8959 105.193 55.3359 104.9C54.7759 104.593 54.1693 104.44 53.5159 104.44C52.8493 104.44 52.2359 104.593 51.6759 104.9C51.1293 105.193 50.6893 105.647 50.3559 106.26C50.0226 106.873 49.8559 107.62 49.8559 108.5C49.8559 109.393 50.0159 110.147 50.3359 110.76C50.6693 111.373 51.1093 111.833 51.6559 112.14C52.2026 112.433 52.8026 112.58 53.4559 112.58ZM62.2889 105.08C62.6622 104.427 63.2089 103.893 63.9289 103.48C64.6489 103.067 65.4689 102.86 66.3889 102.86C67.3756 102.86 68.2622 103.093 69.0489 103.56C69.8356 104.027 70.4556 104.687 70.9089 105.54C71.3622 106.38 71.5889 107.36 71.5889 108.48C71.5889 109.587 71.3622 110.573 70.9089 111.44C70.4556 112.307 69.8289 112.98 69.0289 113.46C68.2422 113.94 67.3622 114.18 66.3889 114.18C65.4422 114.18 64.6089 113.973 63.8889 113.56C63.1822 113.147 62.6489 112.62 62.2889 111.98V114H60.4689V99.2H62.2889V105.08ZM69.7289 108.48C69.7289 107.653 69.5622 106.933 69.2289 106.32C68.8956 105.707 68.4422 105.24 67.8689 104.92C67.3089 104.6 66.6889 104.44 66.0089 104.44C65.3422 104.44 64.7222 104.607 64.1489 104.94C63.5889 105.26 63.1356 105.733 62.7889 106.36C62.4556 106.973 62.2889 107.687 62.2889 108.5C62.2889 109.327 62.4556 110.053 62.7889 110.68C63.1356 111.293 63.5889 111.767 64.1489 112.1C64.7222 112.42 65.3422 112.58 66.0089 112.58C66.6889 112.58 67.3089 112.42 67.8689 112.1C68.4422 111.767 68.8956 111.293 69.2289 110.68C69.5622 110.053 69.7289 109.32 69.7289 108.48ZM82.7045 103.04V114H80.8845V112.38C80.5379 112.94 80.0512 113.38 79.4245 113.7C78.8112 114.007 78.1312 114.16 77.3845 114.16C76.5312 114.16 75.7645 113.987 75.0845 113.64C74.4045 113.28 73.8645 112.747 73.4645 112.04C73.0779 111.333 72.8845 110.473 72.8845 109.46V103.04H74.6845V109.22C74.6845 110.3 74.9579 111.133 75.5045 111.72C76.0512 112.293 76.7979 112.58 77.7445 112.58C78.7179 112.58 79.4845 112.28 80.0445 111.68C80.6045 111.08 80.8845 110.207 80.8845 109.06V103.04H82.7045ZM88.6575 114.18C87.8175 114.18 87.0642 114.04 86.3975 113.76C85.7308 113.467 85.2042 113.067 84.8175 112.56C84.4308 112.04 84.2175 111.447 84.1775 110.78H86.0575C86.1108 111.327 86.3642 111.773 86.8175 112.12C87.2842 112.467 87.8908 112.64 88.6375 112.64C89.3308 112.64 89.8775 112.487 90.2775 112.18C90.6775 111.873 90.8775 111.487 90.8775 111.02C90.8775 110.54 90.6642 110.187 90.2375 109.96C89.8108 109.72 89.1508 109.487 88.2575 109.26C87.4442 109.047 86.7775 108.833 86.2575 108.62C85.7508 108.393 85.3108 108.067 84.9375 107.64C84.5775 107.2 84.3975 106.627 84.3975 105.92C84.3975 105.36 84.5642 104.847 84.8975 104.38C85.2308 103.913 85.7042 103.547 86.3175 103.28C86.9308 103 87.6308 102.86 88.4175 102.86C89.6308 102.86 90.6108 103.167 91.3575 103.78C92.1042 104.393 92.5042 105.233 92.5575 106.3H90.7375C90.6975 105.727 90.4642 105.267 90.0375 104.92C89.6242 104.573 89.0642 104.4 88.3575 104.4C87.7042 104.4 87.1842 104.54 86.7975 104.82C86.4108 105.1 86.2175 105.467 86.2175 105.92C86.2175 106.28 86.3308 106.58 86.5575 106.82C86.7975 107.047 87.0908 107.233 87.4375 107.38C87.7975 107.513 88.2908 107.667 88.9175 107.84C89.7042 108.053 90.3442 108.267 90.8375 108.48C91.3308 108.68 91.7508 108.987 92.0975 109.4C92.4575 109.813 92.6442 110.353 92.6575 111.02C92.6575 111.62 92.4908 112.16 92.1575 112.64C91.8242 113.12 91.3508 113.5 90.7375 113.78C90.1375 114.047 89.4442 114.18 88.6575 114.18ZM96.4467 104.54V111C96.4467 111.533 96.5601 111.913 96.7867 112.14C97.0134 112.353 97.4067 112.46 97.9667 112.46H99.3067V114H97.6667C96.6534 114 95.8934 113.767 95.3867 113.3C94.8801 112.833 94.6267 112.067 94.6267 111V104.54H93.2067V103.04H94.6267V100.28H96.4467V103.04H99.3067V104.54H96.4467ZM110.512 108.1C110.512 108.447 110.492 108.813 110.452 109.2H101.692C101.759 110.28 102.125 111.127 102.792 111.74C103.472 112.34 104.292 112.64 105.252 112.64C106.039 112.64 106.692 112.46 107.212 112.1C107.745 111.727 108.119 111.233 108.332 110.62H110.292C109.999 111.673 109.412 112.533 108.532 113.2C107.652 113.853 106.559 114.18 105.252 114.18C104.212 114.18 103.279 113.947 102.452 113.48C101.639 113.013 100.999 112.353 100.532 111.5C100.065 110.633 99.8319 109.633 99.8319 108.5C99.8319 107.367 100.059 106.373 100.512 105.52C100.965 104.667 101.599 104.013 102.412 103.56C103.239 103.093 104.185 102.86 105.252 102.86C106.292 102.86 107.212 103.087 108.012 103.54C108.812 103.993 109.425 104.62 109.852 105.42C110.292 106.207 110.512 107.1 110.512 108.1ZM108.632 107.72C108.632 107.027 108.479 106.433 108.172 105.94C107.865 105.433 107.445 105.053 106.912 104.8C106.392 104.533 105.812 104.4 105.172 104.4C104.252 104.4 103.465 104.693 102.812 105.28C102.172 105.867 101.805 106.68 101.712 107.72H108.632ZM113.274 112.5H118.654V114H111.194V112.5L116.514 104.52H111.234V103.04H118.614V104.52L113.274 112.5ZM123.668 108.48C123.668 107.36 123.894 106.38 124.348 105.54C124.801 104.687 125.421 104.027 126.208 103.56C127.008 103.093 127.901 102.86 128.888 102.86C129.741 102.86 130.534 103.06 131.268 103.46C132.001 103.847 132.561 104.36 132.948 105V99.2H134.788V114H132.948V111.94C132.588 112.593 132.054 113.133 131.348 113.56C130.641 113.973 129.814 114.18 128.868 114.18C127.894 114.18 127.008 113.94 126.208 113.46C125.421 112.98 124.801 112.307 124.348 111.44C123.894 110.573 123.668 109.587 123.668 108.48ZM132.948 108.5C132.948 107.673 132.781 106.953 132.448 106.34C132.114 105.727 131.661 105.26 131.088 104.94C130.528 104.607 129.908 104.44 129.228 104.44C128.548 104.44 127.928 104.6 127.368 104.92C126.808 105.24 126.361 105.707 126.028 106.32C125.694 106.933 125.528 107.653 125.528 108.48C125.528 109.32 125.694 110.053 126.028 110.68C126.361 111.293 126.808 111.767 127.368 112.1C127.928 112.42 128.548 112.58 129.228 112.58C129.908 112.58 130.528 112.42 131.088 112.1C131.661 111.767 132.114 111.293 132.448 110.68C132.781 110.053 132.948 109.327 132.948 108.5ZM136.183 108.48C136.183 107.36 136.41 106.38 136.863 105.54C137.317 104.687 137.937 104.027 138.723 103.56C139.523 103.093 140.41 102.86 141.383 102.86C142.343 102.86 143.177 103.067 143.883 103.48C144.59 103.893 145.117 104.413 145.463 105.04V103.04H147.303V114H145.463V111.96C145.103 112.6 144.563 113.133 143.843 113.56C143.137 113.973 142.31 114.18 141.363 114.18C140.39 114.18 139.51 113.94 138.723 113.46C137.937 112.98 137.317 112.307 136.863 111.44C136.41 110.573 136.183 109.587 136.183 108.48ZM145.463 108.5C145.463 107.673 145.297 106.953 144.963 106.34C144.63 105.727 144.177 105.26 143.603 104.94C143.043 104.607 142.423 104.44 141.743 104.44C141.063 104.44 140.443 104.6 139.883 104.92C139.323 105.24 138.877 105.707 138.543 106.32C138.21 106.933 138.043 107.653 138.043 108.48C138.043 109.32 138.21 110.053 138.543 110.68C138.877 111.293 139.323 111.767 139.883 112.1C140.443 112.42 141.063 112.58 141.743 112.58C142.423 112.58 143.043 112.42 143.603 112.1C144.177 111.767 144.63 111.293 144.963 110.68C145.297 110.053 145.463 109.327 145.463 108.5ZM173.198 92.3281V99.6719H172.589C172.131 97.7552 171.277 96.2865 170.027 95.2656C168.777 94.2448 167.36 93.7344 165.777 93.7344C164.454 93.7344 163.24 94.1146 162.136 94.875C161.032 95.6354 160.224 96.6302 159.714 97.8594C159.058 99.4323 158.73 101.182 158.73 103.109C158.73 105.005 158.969 106.734 159.448 108.297C159.928 109.849 160.678 111.026 161.698 111.828C162.719 112.62 164.042 113.016 165.667 113.016C167.001 113.016 168.219 112.724 169.323 112.141C170.438 111.557 171.61 110.552 172.839 109.125V110.953C171.652 112.193 170.412 113.094 169.12 113.656C167.839 114.208 166.339 114.484 164.62 114.484C162.36 114.484 160.349 114.031 158.589 113.125C156.839 112.219 155.485 110.917 154.527 109.219C153.579 107.521 153.105 105.714 153.105 103.797C153.105 101.776 153.631 99.8594 154.683 98.0469C155.745 96.2344 157.172 94.8281 158.964 93.8281C160.766 92.8281 162.678 92.3281 164.698 92.3281C166.188 92.3281 167.761 92.651 169.417 93.2969C170.376 93.6719 170.985 93.8594 171.245 93.8594C171.579 93.8594 171.865 93.7396 172.105 93.5C172.355 93.25 172.516 92.8594 172.589 92.3281H173.198ZM191.583 101.328H198.083V101.938C197.354 102.042 196.781 102.26 196.364 102.594C195.947 102.917 195.406 103.677 194.739 104.875C194.072 106.073 193.135 107.411 191.927 108.891C192.989 109.849 193.854 110.516 194.52 110.891C194.989 111.151 195.447 111.281 195.895 111.281C196.666 111.281 197.364 110.776 197.989 109.766L198.63 110.109C197.776 111.786 196.864 112.979 195.895 113.688C195.156 114.219 194.312 114.484 193.364 114.484C192.552 114.484 191.776 114.312 191.036 113.969C190.307 113.615 189.416 112.958 188.364 112C187.062 112.875 185.838 113.51 184.692 113.906C183.546 114.292 182.354 114.484 181.114 114.484C179.135 114.484 177.562 113.948 176.395 112.875C175.229 111.802 174.645 110.542 174.645 109.094C174.645 107.531 175.203 106.172 176.317 105.016C177.432 103.859 179.052 102.859 181.177 102.016C180.906 101.339 180.703 100.677 180.567 100.031C180.432 99.3854 180.364 98.7604 180.364 98.1562C180.364 96.4896 180.947 95.1042 182.114 94C183.291 92.8854 184.791 92.3281 186.614 92.3281C188.083 92.3281 189.244 92.6979 190.098 93.4375C190.963 94.1667 191.395 95.0208 191.395 96C191.395 97.1771 190.953 98.1875 190.067 99.0312C189.192 99.8646 187.802 100.63 185.895 101.328C187.072 103.401 188.796 105.635 191.067 108.031C192.598 106.312 193.364 104.839 193.364 103.609C193.364 103.172 193.213 102.802 192.911 102.5C192.609 102.188 192.166 102 191.583 101.938V101.328ZM185.364 100.391C186.458 99.9844 187.192 99.5521 187.567 99.0938C187.942 98.625 188.13 98.0625 188.13 97.4062C188.13 96.2396 187.822 95.2552 187.208 94.4531C186.802 93.9219 186.302 93.6562 185.708 93.6562C185.218 93.6562 184.796 93.849 184.442 94.2344C184.098 94.6198 183.927 95.1406 183.927 95.7969C183.927 96.3073 184.01 96.8542 184.177 97.4375C184.343 98.0208 184.739 99.0052 185.364 100.391ZM181.614 103.016C180.781 103.37 180.192 103.745 179.848 104.141C179.359 104.724 179.114 105.375 179.114 106.094C179.114 107.073 179.395 108.047 179.958 109.016C180.531 109.984 181.218 110.734 182.02 111.266C182.822 111.797 183.624 112.062 184.427 112.062C184.822 112.062 185.265 111.979 185.755 111.812C186.255 111.635 186.796 111.375 187.38 111.031C184.869 108.458 182.947 105.786 181.614 103.016ZM219.78 92.3281V99.6719H219.17C218.712 97.7552 217.858 96.2865 216.608 95.2656C215.358 94.2448 213.941 93.7344 212.358 93.7344C211.035 93.7344 209.821 94.1146 208.717 94.875C207.613 95.6354 206.806 96.6302 206.295 97.8594C205.639 99.4323 205.311 101.182 205.311 103.109C205.311 105.005 205.551 106.734 206.03 108.297C206.509 109.849 207.259 111.026 208.28 111.828C209.301 112.62 210.623 113.016 212.248 113.016C213.582 113.016 214.801 112.724 215.905 112.141C217.019 111.557 218.191 110.552 219.42 109.125V110.953C218.233 112.193 216.993 113.094 215.702 113.656C214.42 114.208 212.92 114.484 211.202 114.484C208.941 114.484 206.931 114.031 205.17 113.125C203.42 112.219 202.066 110.917 201.108 109.219C200.16 107.521 199.686 105.714 199.686 103.797C199.686 101.776 200.212 99.8594 201.264 98.0469C202.327 96.2344 203.754 94.8281 205.545 93.8281C207.347 92.8281 209.259 92.3281 211.28 92.3281C212.769 92.3281 214.342 92.651 215.998 93.2969C216.957 93.6719 217.566 93.8594 217.827 93.8594C218.16 93.8594 218.446 93.7396 218.686 93.5C218.936 93.25 219.097 92.8594 219.17 92.3281H219.78ZM225.137 108.48C225.137 107.36 225.364 106.38 225.817 105.54C226.271 104.687 226.891 104.027 227.677 103.56C228.477 103.093 229.371 102.86 230.357 102.86C231.211 102.86 232.004 103.06 232.737 103.46C233.471 103.847 234.031 104.36 234.417 105V99.2H236.257V114H234.417V111.94C234.057 112.593 233.524 113.133 232.817 113.56C232.111 113.973 231.284 114.18 230.337 114.18C229.364 114.18 228.477 113.94 227.677 113.46C226.891 112.98 226.271 112.307 225.817 111.44C225.364 110.573 225.137 109.587 225.137 108.48ZM234.417 108.5C234.417 107.673 234.251 106.953 233.917 106.34C233.584 105.727 233.131 105.26 232.557 104.94C231.997 104.607 231.377 104.44 230.697 104.44C230.017 104.44 229.397 104.6 228.837 104.92C228.277 105.24 227.831 105.707 227.497 106.32C227.164 106.933 226.997 107.653 226.997 108.48C226.997 109.32 227.164 110.053 227.497 110.68C227.831 111.293 228.277 111.767 228.837 112.1C229.397 112.42 230.017 112.58 230.697 112.58C231.377 112.58 231.997 112.42 232.557 112.1C233.131 111.767 233.584 111.293 233.917 110.68C234.251 110.053 234.417 109.327 234.417 108.5ZM237.653 108.48C237.653 107.36 237.88 106.38 238.333 105.54C238.786 104.687 239.406 104.027 240.193 103.56C240.993 103.093 241.88 102.86 242.853 102.86C243.813 102.86 244.646 103.067 245.353 103.48C246.06 103.893 246.586 104.413 246.933 105.04V103.04H248.773V114H246.933V111.96C246.573 112.6 246.033 113.133 245.313 113.56C244.606 113.973 243.78 114.18 242.833 114.18C241.86 114.18 240.98 113.94 240.193 113.46C239.406 112.98 238.786 112.307 238.333 111.44C237.88 110.573 237.653 109.587 237.653 108.48ZM246.933 108.5C246.933 107.673 246.766 106.953 246.433 106.34C246.1 105.727 245.646 105.26 245.073 104.94C244.513 104.607 243.893 104.44 243.213 104.44C242.533 104.44 241.913 104.6 241.353 104.92C240.793 105.24 240.346 105.707 240.013 106.32C239.68 106.933 239.513 107.653 239.513 108.48C239.513 109.32 239.68 110.053 240.013 110.68C240.346 111.293 240.793 111.767 241.353 112.1C241.913 112.42 242.533 112.58 243.213 112.58C243.893 112.58 244.513 112.42 245.073 112.1C245.646 111.767 246.1 111.293 246.433 110.68C246.766 110.053 246.933 109.327 246.933 108.5ZM245.513 99.94L241.253 102.22V100.86L245.513 98.36V99.94ZM257.001 99.2V114H255.181V99.2H257.001ZM268.823 103.04V114H267.003V112.38C266.656 112.94 266.169 113.38 265.543 113.7C264.929 114.007 264.249 114.16 263.503 114.16C262.649 114.16 261.883 113.987 261.203 113.64C260.523 113.28 259.983 112.747 259.583 112.04C259.196 111.333 259.003 110.473 259.003 109.46V103.04H260.803V109.22C260.803 110.3 261.076 111.133 261.623 111.72C262.169 112.293 262.916 112.58 263.863 112.58C264.836 112.58 265.603 112.28 266.163 111.68C266.723 111.08 267.003 110.207 267.003 109.06V103.04H268.823ZM275.415 102.86C276.362 102.86 277.189 103.067 277.895 103.48C278.615 103.893 279.149 104.413 279.495 105.04V103.04H281.335V114.24C281.335 115.24 281.122 116.127 280.695 116.9C280.269 117.687 279.655 118.3 278.855 118.74C278.069 119.18 277.149 119.4 276.095 119.4C274.655 119.4 273.455 119.06 272.495 118.38C271.535 117.7 270.969 116.773 270.795 115.6H272.595C272.795 116.267 273.209 116.8 273.835 117.2C274.462 117.613 275.215 117.82 276.095 117.82C277.095 117.82 277.909 117.507 278.535 116.88C279.175 116.253 279.495 115.373 279.495 114.24V111.94C279.135 112.58 278.602 113.113 277.895 113.54C277.189 113.967 276.362 114.18 275.415 114.18C274.442 114.18 273.555 113.94 272.755 113.46C271.969 112.98 271.349 112.307 270.895 111.44C270.442 110.573 270.215 109.587 270.215 108.48C270.215 107.36 270.442 106.38 270.895 105.54C271.349 104.687 271.969 104.027 272.755 103.56C273.555 103.093 274.442 102.86 275.415 102.86ZM279.495 108.5C279.495 107.673 279.329 106.953 278.995 106.34C278.662 105.727 278.209 105.26 277.635 104.94C277.075 104.607 276.455 104.44 275.775 104.44C275.095 104.44 274.475 104.6 273.915 104.92C273.355 105.24 272.909 105.707 272.575 106.32C272.242 106.933 272.075 107.653 272.075 108.48C272.075 109.32 272.242 110.053 272.575 110.68C272.909 111.293 273.355 111.767 273.915 112.1C274.475 112.42 275.095 112.58 275.775 112.58C276.455 112.58 277.075 112.42 277.635 112.1C278.209 111.767 278.662 111.293 278.995 110.68C279.329 110.053 279.495 109.327 279.495 108.5ZM282.731 108.48C282.731 107.36 282.958 106.38 283.411 105.54C283.864 104.687 284.484 104.027 285.271 103.56C286.071 103.093 286.958 102.86 287.931 102.86C288.891 102.86 289.724 103.067 290.431 103.48C291.138 103.893 291.664 104.413 292.011 105.04V103.04H293.851V114H292.011V111.96C291.651 112.6 291.111 113.133 290.391 113.56C289.684 113.973 288.858 114.18 287.911 114.18C286.938 114.18 286.058 113.94 285.271 113.46C284.484 112.98 283.864 112.307 283.411 111.44C282.958 110.573 282.731 109.587 282.731 108.48ZM292.011 108.5C292.011 107.673 291.844 106.953 291.511 106.34C291.178 105.727 290.724 105.26 290.151 104.94C289.591 104.607 288.971 104.44 288.291 104.44C287.611 104.44 286.991 104.6 286.431 104.92C285.871 105.24 285.424 105.707 285.091 106.32C284.758 106.933 284.591 107.653 284.591 108.48C284.591 109.32 284.758 110.053 285.091 110.68C285.424 111.293 285.871 111.767 286.431 112.1C286.991 112.42 287.611 112.58 288.291 112.58C288.971 112.58 289.591 112.42 290.151 112.1C290.724 111.767 291.178 111.293 291.511 110.68C291.844 110.053 292.011 109.327 292.011 108.5ZM297.747 104.82C298.067 104.193 298.52 103.707 299.107 103.36C299.707 103.013 300.433 102.84 301.287 102.84V104.72H300.807C298.767 104.72 297.747 105.827 297.747 108.04V114H295.927V103.04H297.747V104.82ZM306.04 108.48C306.04 107.36 306.266 106.38 306.72 105.54C307.173 104.687 307.793 104.027 308.58 103.56C309.38 103.093 310.266 102.86 311.24 102.86C312.2 102.86 313.033 103.067 313.74 103.48C314.446 103.893 314.973 104.413 315.32 105.04V103.04H317.16V114H315.32V111.96C314.96 112.6 314.42 113.133 313.7 113.56C312.993 113.973 312.166 114.18 311.22 114.18C310.246 114.18 309.366 113.94 308.58 113.46C307.793 112.98 307.173 112.307 306.72 111.44C306.266 110.573 306.04 109.587 306.04 108.48ZM315.32 108.5C315.32 107.673 315.153 106.953 314.82 106.34C314.486 105.727 314.033 105.26 313.46 104.94C312.9 104.607 312.28 104.44 311.6 104.44C310.92 104.44 310.3 104.6 309.74 104.92C309.18 105.24 308.733 105.707 308.4 106.32C308.066 106.933 307.9 107.653 307.9 108.48C307.9 109.32 308.066 110.053 308.4 110.68C308.733 111.293 309.18 111.767 309.74 112.1C310.3 112.42 310.92 112.58 311.6 112.58C312.28 112.58 312.9 112.42 313.46 112.1C314.033 111.767 314.486 111.293 314.82 110.68C315.153 110.053 315.32 109.327 315.32 108.5ZM313.9 100.86V102.22L309.64 99.94V98.36L313.9 100.86ZM328.027 104.54H325.727V114H323.907V104.54H322.487V103.04H323.907V102.26C323.907 101.033 324.221 100.14 324.847 99.58C325.487 99.0067 326.507 98.72 327.907 98.72V100.24C327.107 100.24 326.541 100.4 326.207 100.72C325.887 101.027 325.727 101.54 325.727 102.26V103.04H328.027V104.54ZM330.969 99.2V114H329.149V99.2H330.969ZM342.791 103.04V114H340.971V112.38C340.625 112.94 340.138 113.38 339.511 113.7C338.898 114.007 338.218 114.16 337.471 114.16C336.618 114.16 335.851 113.987 335.171 113.64C334.491 113.28 333.951 112.747 333.551 112.04C333.165 111.333 332.971 110.473 332.971 109.46V103.04H334.771V109.22C334.771 110.3 335.045 111.133 335.591 111.72C336.138 112.293 336.885 112.58 337.831 112.58C338.805 112.58 339.571 112.28 340.131 111.68C340.691 111.08 340.971 110.207 340.971 109.06V103.04H342.791ZM345.804 101.26C345.458 101.26 345.164 101.14 344.924 100.9C344.684 100.66 344.564 100.367 344.564 100.02C344.564 99.6733 344.684 99.38 344.924 99.14C345.164 98.9 345.458 98.78 345.804 98.78C346.138 98.78 346.418 98.9 346.644 99.14C346.884 99.38 347.004 99.6733 347.004 100.02C347.004 100.367 346.884 100.66 346.644 100.9C346.418 101.14 346.138 101.26 345.804 101.26ZM346.684 103.04V114H344.864V103.04H346.684ZM348.106 108.48C348.106 107.36 348.333 106.38 348.786 105.54C349.239 104.687 349.859 104.027 350.646 103.56C351.446 103.093 352.339 102.86 353.326 102.86C354.179 102.86 354.973 103.06 355.706 103.46C356.439 103.847 356.999 104.36 357.386 105V99.2H359.226V114H357.386V111.94C357.026 112.593 356.493 113.133 355.786 113.56C355.079 113.973 354.253 114.18 353.306 114.18C352.333 114.18 351.446 113.94 350.646 113.46C349.859 112.98 349.239 112.307 348.786 111.44C348.333 110.573 348.106 109.587 348.106 108.48ZM357.386 108.5C357.386 107.673 357.219 106.953 356.886 106.34C356.553 105.727 356.099 105.26 355.526 104.94C354.966 104.607 354.346 104.44 353.666 104.44C352.986 104.44 352.366 104.6 351.806 104.92C351.246 105.24 350.799 105.707 350.466 106.32C350.133 106.933 349.966 107.653 349.966 108.48C349.966 109.32 350.133 110.053 350.466 110.68C350.799 111.293 351.246 111.767 351.806 112.1C352.366 112.42 352.986 112.58 353.666 112.58C354.346 112.58 354.966 112.42 355.526 112.1C356.099 111.767 356.553 111.293 356.886 110.68C357.219 110.053 357.386 109.327 357.386 108.5ZM371.302 108.1C371.302 108.447 371.282 108.813 371.242 109.2H362.482C362.548 110.28 362.915 111.127 363.582 111.74C364.262 112.34 365.082 112.64 366.042 112.64C366.828 112.64 367.482 112.46 368.002 112.1C368.535 111.727 368.908 111.233 369.122 110.62H371.082C370.788 111.673 370.202 112.533 369.322 113.2C368.442 113.853 367.348 114.18 366.042 114.18C365.002 114.18 364.068 113.947 363.242 113.48C362.428 113.013 361.788 112.353 361.322 111.5C360.855 110.633 360.622 109.633 360.622 108.5C360.622 107.367 360.848 106.373 361.302 105.52C361.755 104.667 362.388 104.013 363.202 103.56C364.028 103.093 364.975 102.86 366.042 102.86C367.082 102.86 368.002 103.087 368.802 103.54C369.602 103.993 370.215 104.62 370.642 105.42C371.082 106.207 371.302 107.1 371.302 108.1ZM369.422 107.72C369.422 107.027 369.268 106.433 368.962 105.94C368.655 105.433 368.235 105.053 367.702 104.8C367.182 104.533 366.602 104.4 365.962 104.4C365.042 104.4 364.255 104.693 363.602 105.28C362.962 105.867 362.595 106.68 362.502 107.72H369.422ZM374.064 112.5H379.444V114H371.984V112.5L377.304 104.52H372.024V103.04H379.404V104.52L374.064 112.5ZM384.458 108.48C384.458 107.36 384.684 106.38 385.138 105.54C385.591 104.687 386.211 104.027 386.998 103.56C387.798 103.093 388.691 102.86 389.678 102.86C390.531 102.86 391.324 103.06 392.058 103.46C392.791 103.847 393.351 104.36 393.738 105V99.2H395.578V114H393.738V111.94C393.378 112.593 392.844 113.133 392.138 113.56C391.431 113.973 390.604 114.18 389.658 114.18C388.684 114.18 387.798 113.94 386.998 113.46C386.211 112.98 385.591 112.307 385.138 111.44C384.684 110.573 384.458 109.587 384.458 108.48ZM393.738 108.5C393.738 107.673 393.571 106.953 393.238 106.34C392.904 105.727 392.451 105.26 391.878 104.94C391.318 104.607 390.698 104.44 390.018 104.44C389.338 104.44 388.718 104.6 388.158 104.92C387.598 105.24 387.151 105.707 386.818 106.32C386.484 106.933 386.318 107.653 386.318 108.48C386.318 109.32 386.484 110.053 386.818 110.68C387.151 111.293 387.598 111.767 388.158 112.1C388.718 112.42 389.338 112.58 390.018 112.58C390.698 112.58 391.318 112.42 391.878 112.1C392.451 111.767 392.904 111.293 393.238 110.68C393.571 110.053 393.738 109.327 393.738 108.5ZM396.973 108.48C396.973 107.36 397.2 106.38 397.653 105.54C398.107 104.687 398.727 104.027 399.513 103.56C400.313 103.093 401.2 102.86 402.173 102.86C403.133 102.86 403.967 103.067 404.673 103.48C405.38 103.893 405.907 104.413 406.253 105.04V103.04H408.093V114H406.253V111.96C405.893 112.6 405.353 113.133 404.633 113.56C403.927 113.973 403.1 114.18 402.153 114.18C401.18 114.18 400.3 113.94 399.513 113.46C398.727 112.98 398.107 112.307 397.653 111.44C397.2 110.573 396.973 109.587 396.973 108.48ZM406.253 108.5C406.253 107.673 406.087 106.953 405.753 106.34C405.42 105.727 404.967 105.26 404.393 104.94C403.833 104.607 403.213 104.44 402.533 104.44C401.853 104.44 401.233 104.6 400.673 104.92C400.113 105.24 399.667 105.707 399.333 106.32C399 106.933 398.833 107.653 398.833 108.48C398.833 109.32 399 110.053 399.333 110.68C399.667 111.293 400.113 111.767 400.673 112.1C401.233 112.42 401.853 112.58 402.533 112.58C403.213 112.58 403.833 112.42 404.393 112.1C404.967 111.767 405.42 111.293 405.753 110.68C406.087 110.053 406.253 109.327 406.253 108.5ZM182.746 141H178.042L171.778 131.544V141H167.074V124.08H171.778L178.042 133.656V124.08H182.746V141ZM198.001 127.536V141H193.273V139.08C192.873 139.688 192.321 140.184 191.617 140.568C190.913 140.936 190.105 141.12 189.193 141.12C187.625 141.12 186.385 140.608 185.473 139.584C184.577 138.544 184.129 137.136 184.129 135.36V127.536H188.809V134.76C188.809 135.528 189.009 136.136 189.409 136.584C189.825 137.016 190.369 137.232 191.041 137.232C191.729 137.232 192.273 137.016 192.673 136.584C193.073 136.136 193.273 135.528 193.273 134.76V127.536H198.001ZM207.422 136.992V141H205.382C201.942 141 200.222 139.296 200.222 135.888V131.448H198.566V127.536H200.222V124.272H204.95V127.536H207.398V131.448H204.95V135.96C204.95 136.328 205.03 136.592 205.19 136.752C205.366 136.912 205.654 136.992 206.054 136.992H207.422ZM213.084 129.912C213.612 129.144 214.252 128.536 215.004 128.088C215.756 127.64 216.564 127.416 217.428 127.416V132.432H216.108C215.084 132.432 214.324 132.632 213.828 133.032C213.332 133.432 213.084 134.128 213.084 135.12V141H208.38V127.536H213.084V129.912ZM220.29 126.288C219.458 126.288 218.786 126.064 218.274 125.616C217.778 125.152 217.53 124.576 217.53 123.888C217.53 123.184 217.778 122.6 218.274 122.136C218.786 121.672 219.458 121.44 220.29 121.44C221.106 121.44 221.762 121.672 222.258 122.136C222.77 122.6 223.026 123.184 223.026 123.888C223.026 124.576 222.77 125.152 222.258 125.616C221.762 126.064 221.106 126.288 220.29 126.288ZM222.618 127.536V141H217.914V127.536H222.618ZM236.961 134.112C236.961 134.48 236.937 134.848 236.889 135.216H227.985C228.033 135.952 228.233 136.504 228.585 136.872C228.953 137.224 229.417 137.4 229.977 137.4C230.761 137.4 231.321 137.048 231.657 136.344H236.673C236.465 137.272 236.057 138.104 235.449 138.84C234.857 139.56 234.105 140.128 233.193 140.544C232.281 140.96 231.273 141.168 230.169 141.168C228.841 141.168 227.657 140.888 226.617 140.328C225.593 139.768 224.785 138.968 224.193 137.928C223.617 136.888 223.329 135.664 223.329 134.256C223.329 132.848 223.617 131.632 224.193 130.608C224.769 129.568 225.569 128.768 226.593 128.208C227.633 127.648 228.825 127.368 230.169 127.368C231.497 127.368 232.673 127.64 233.697 128.184C234.721 128.728 235.521 129.512 236.097 130.536C236.673 131.544 236.961 132.736 236.961 134.112ZM232.161 132.936C232.161 132.36 231.969 131.912 231.585 131.592C231.201 131.256 230.721 131.088 230.145 131.088C229.569 131.088 229.097 131.248 228.729 131.568C228.361 131.872 228.121 132.328 228.009 132.936H232.161ZM242.39 123.24V141H237.686V123.24H242.39ZM258.365 127.536L249.821 147.408H244.709L247.925 140.424L242.405 127.536H247.637L250.469 135.168L253.205 127.536H258.365ZM260.676 141.192C259.844 141.192 259.172 140.968 258.66 140.52C258.164 140.056 257.916 139.472 257.916 138.768C257.916 138.064 258.164 137.48 258.66 137.016C259.172 136.552 259.844 136.32 260.676 136.32C261.492 136.32 262.148 136.552 262.644 137.016C263.156 137.48 263.412 138.064 263.412 138.768C263.412 139.456 263.156 140.032 262.644 140.496C262.148 140.96 261.492 141.192 260.676 141.192ZM48.8014 184.02C48.8014 182.66 49.1081 181.44 49.7214 180.36C50.3347 179.267 51.1681 178.413 52.2214 177.8C53.2881 177.187 54.4681 176.88 55.7614 176.88C57.2814 176.88 58.6081 177.247 59.7414 177.98C60.8747 178.713 61.7014 179.753 62.2214 181.1H60.0414C59.6547 180.26 59.0947 179.613 58.3614 179.16C57.6414 178.707 56.7747 178.48 55.7614 178.48C54.7881 178.48 53.9147 178.707 53.1414 179.16C52.3681 179.613 51.7614 180.26 51.3214 181.1C50.8814 181.927 50.6614 182.9 50.6614 184.02C50.6614 185.127 50.8814 186.1 51.3214 186.94C51.7614 187.767 52.3681 188.407 53.1414 188.86C53.9147 189.313 54.7881 189.54 55.7614 189.54C56.7747 189.54 57.6414 189.32 58.3614 188.88C59.0947 188.427 59.6547 187.78 60.0414 186.94H62.2214C61.7014 188.273 60.8747 189.307 59.7414 190.04C58.6081 190.76 57.2814 191.12 55.7614 191.12C54.4681 191.12 53.2881 190.82 52.2214 190.22C51.1681 189.607 50.3347 188.76 49.7214 187.68C49.1081 186.6 48.8014 185.38 48.8014 184.02ZM73.9306 185.1C73.9306 185.447 73.9106 185.813 73.8706 186.2H65.1106C65.1773 187.28 65.544 188.127 66.2106 188.74C66.8906 189.34 67.7106 189.64 68.6706 189.64C69.4573 189.64 70.1106 189.46 70.6306 189.1C71.164 188.727 71.5373 188.233 71.7506 187.62H73.7106C73.4173 188.673 72.8306 189.533 71.9506 190.2C71.0706 190.853 69.9773 191.18 68.6706 191.18C67.6306 191.18 66.6973 190.947 65.8706 190.48C65.0573 190.013 64.4173 189.353 63.9506 188.5C63.484 187.633 63.2506 186.633 63.2506 185.5C63.2506 184.367 63.4773 183.373 63.9306 182.52C64.384 181.667 65.0173 181.013 65.8306 180.56C66.6573 180.093 67.604 179.86 68.6706 179.86C69.7106 179.86 70.6306 180.087 71.4306 180.54C72.2306 180.993 72.844 181.62 73.2706 182.42C73.7106 183.207 73.9306 184.1 73.9306 185.1ZM72.0506 184.72C72.0506 184.027 71.8973 183.433 71.5906 182.94C71.284 182.433 70.864 182.053 70.3306 181.8C69.8106 181.533 69.2306 181.4 68.5906 181.4C67.6706 181.4 66.884 181.693 66.2306 182.28C65.5906 182.867 65.224 183.68 65.1306 184.72H72.0506ZM77.153 176.2V191H75.333V176.2H77.153ZM89.2548 185.1C89.2548 185.447 89.2348 185.813 89.1948 186.2H80.4348C80.5015 187.28 80.8682 188.127 81.5348 188.74C82.2148 189.34 83.0348 189.64 83.9948 189.64C84.7815 189.64 85.4348 189.46 85.9548 189.1C86.4882 188.727 86.8615 188.233 87.0748 187.62H89.0348C88.7415 188.673 88.1548 189.533 87.2748 190.2C86.3948 190.853 85.3015 191.18 83.9948 191.18C82.9548 191.18 82.0215 190.947 81.1948 190.48C80.3815 190.013 79.7415 189.353 79.2748 188.5C78.8082 187.633 78.5748 186.633 78.5748 185.5C78.5748 184.367 78.8015 183.373 79.2548 182.52C79.7082 181.667 80.3415 181.013 81.1548 180.56C81.9815 180.093 82.9282 179.86 83.9948 179.86C85.0348 179.86 85.9548 180.087 86.7548 180.54C87.5548 180.993 88.1682 181.62 88.5948 182.42C89.0348 183.207 89.2548 184.1 89.2548 185.1ZM87.3748 184.72C87.3748 184.027 87.2215 183.433 86.9148 182.94C86.6082 182.433 86.1882 182.053 85.6548 181.8C85.1348 181.533 84.5548 181.4 83.9148 181.4C82.9948 181.4 82.2082 181.693 81.5548 182.28C80.9148 182.867 80.5482 183.68 80.4548 184.72H87.3748ZM92.4772 182.08C92.8505 181.427 93.3972 180.893 94.1172 180.48C94.8372 180.067 95.6572 179.86 96.5772 179.86C97.5639 179.86 98.4505 180.093 99.2372 180.56C100.024 181.027 100.644 181.687 101.097 182.54C101.551 183.38 101.777 184.36 101.777 185.48C101.777 186.587 101.551 187.573 101.097 188.44C100.644 189.307 100.017 189.98 99.2172 190.46C98.4305 190.94 97.5505 191.18 96.5772 191.18C95.6305 191.18 94.7972 190.973 94.0772 190.56C93.3705 190.147 92.8372 189.62 92.4772 188.98V191H90.6572V176.2H92.4772V182.08ZM99.9172 185.48C99.9172 184.653 99.7505 183.933 99.4172 183.32C99.0839 182.707 98.6305 182.24 98.0572 181.92C97.4972 181.6 96.8772 181.44 96.1972 181.44C95.5305 181.44 94.9105 181.607 94.3372 181.94C93.7772 182.26 93.3239 182.733 92.9772 183.36C92.6439 183.973 92.4772 184.687 92.4772 185.5C92.4772 186.327 92.6439 187.053 92.9772 187.68C93.3239 188.293 93.7772 188.767 94.3372 189.1C94.9105 189.42 95.5305 189.58 96.1972 189.58C96.8772 189.58 97.4972 189.42 98.0572 189.1C98.6305 188.767 99.0839 188.293 99.4172 187.68C99.7505 187.053 99.9172 186.32 99.9172 185.48ZM104.993 181.82C105.313 181.193 105.766 180.707 106.353 180.36C106.953 180.013 107.679 179.84 108.533 179.84V181.72H108.053C106.013 181.72 104.993 182.827 104.993 185.04V191H103.173V180.04H104.993V181.82ZM108.954 185.48C108.954 184.36 109.18 183.38 109.634 182.54C110.087 181.687 110.707 181.027 111.494 180.56C112.294 180.093 113.18 179.86 114.154 179.86C115.114 179.86 115.947 180.067 116.654 180.48C117.36 180.893 117.887 181.413 118.234 182.04V180.04H120.074V191H118.234V188.96C117.874 189.6 117.334 190.133 116.614 190.56C115.907 190.973 115.08 191.18 114.134 191.18C113.16 191.18 112.28 190.94 111.494 190.46C110.707 189.98 110.087 189.307 109.634 188.44C109.18 187.573 108.954 186.587 108.954 185.48ZM118.234 185.5C118.234 184.673 118.067 183.953 117.734 183.34C117.4 182.727 116.947 182.26 116.374 181.94C115.814 181.607 115.194 181.44 114.514 181.44C113.834 181.44 113.214 181.6 112.654 181.92C112.094 182.24 111.647 182.707 111.314 183.32C110.98 183.933 110.814 184.653 110.814 185.48C110.814 186.32 110.98 187.053 111.314 187.68C111.647 188.293 112.094 188.767 112.654 189.1C113.214 189.42 113.834 189.58 114.514 189.58C115.194 189.58 115.814 189.42 116.374 189.1C116.947 188.767 117.4 188.293 117.734 187.68C118.067 187.053 118.234 186.327 118.234 185.5ZM127.489 179.84C128.823 179.84 129.903 180.247 130.729 181.06C131.556 181.86 131.969 183.02 131.969 184.54V191H130.169V184.8C130.169 183.707 129.896 182.873 129.349 182.3C128.803 181.713 128.056 181.42 127.109 181.42C126.149 181.42 125.383 181.72 124.809 182.32C124.249 182.92 123.969 183.793 123.969 184.94V191H122.149V180.04H123.969V181.6C124.329 181.04 124.816 180.607 125.429 180.3C126.056 179.993 126.743 179.84 127.489 179.84ZM133.262 185.48C133.262 184.36 133.489 183.38 133.942 182.54C134.396 181.687 135.016 181.027 135.802 180.56C136.602 180.093 137.496 179.86 138.482 179.86C139.336 179.86 140.129 180.06 140.862 180.46C141.596 180.847 142.156 181.36 142.542 182V176.2H144.382V191H142.542V188.94C142.182 189.593 141.649 190.133 140.942 190.56C140.236 190.973 139.409 191.18 138.462 191.18C137.489 191.18 136.602 190.94 135.802 190.46C135.016 189.98 134.396 189.307 133.942 188.44C133.489 187.573 133.262 186.587 133.262 185.48ZM142.542 185.5C142.542 184.673 142.376 183.953 142.042 183.34C141.709 182.727 141.256 182.26 140.682 181.94C140.122 181.607 139.502 181.44 138.822 181.44C138.142 181.44 137.522 181.6 136.962 181.92C136.402 182.24 135.956 182.707 135.622 183.32C135.289 183.933 135.122 184.653 135.122 185.48C135.122 186.32 135.289 187.053 135.622 187.68C135.956 188.293 136.402 188.767 136.962 189.1C137.522 189.42 138.142 189.58 138.822 189.58C139.502 189.58 140.122 189.42 140.682 189.1C141.256 188.767 141.709 188.293 142.042 187.68C142.376 187.053 142.542 186.327 142.542 185.5ZM151.238 191.18C150.211 191.18 149.278 190.947 148.438 190.48C147.611 190.013 146.958 189.353 146.478 188.5C146.011 187.633 145.778 186.633 145.778 185.5C145.778 184.38 146.018 183.393 146.498 182.54C146.991 181.673 147.658 181.013 148.498 180.56C149.338 180.093 150.278 179.86 151.318 179.86C152.358 179.86 153.298 180.093 154.138 180.56C154.978 181.013 155.638 181.667 156.118 182.52C156.611 183.373 156.858 184.367 156.858 185.5C156.858 186.633 156.605 187.633 156.098 188.5C155.605 189.353 154.931 190.013 154.078 190.48C153.225 190.947 152.278 191.18 151.238 191.18ZM151.238 189.58C151.891 189.58 152.505 189.427 153.078 189.12C153.651 188.813 154.111 188.353 154.458 187.74C154.818 187.127 154.998 186.38 154.998 185.5C154.998 184.62 154.825 183.873 154.478 183.26C154.131 182.647 153.678 182.193 153.118 181.9C152.558 181.593 151.951 181.44 151.298 181.44C150.631 181.44 150.018 181.593 149.458 181.9C148.911 182.193 148.471 182.647 148.138 183.26C147.805 183.873 147.638 184.62 147.638 185.5C147.638 186.393 147.798 187.147 148.118 187.76C148.451 188.373 148.891 188.833 149.438 189.14C149.985 189.433 150.585 189.58 151.238 189.58ZM161.903 185.48C161.903 184.36 162.13 183.38 162.583 182.54C163.036 181.687 163.656 181.027 164.443 180.56C165.243 180.093 166.13 179.86 167.103 179.86C168.063 179.86 168.896 180.067 169.603 180.48C170.31 180.893 170.836 181.413 171.183 182.04V180.04H173.023V191H171.183V188.96C170.823 189.6 170.283 190.133 169.563 190.56C168.856 190.973 168.03 191.18 167.083 191.18C166.11 191.18 165.23 190.94 164.443 190.46C163.656 189.98 163.036 189.307 162.583 188.44C162.13 187.573 161.903 186.587 161.903 185.48ZM171.183 185.5C171.183 184.673 171.016 183.953 170.683 183.34C170.35 182.727 169.896 182.26 169.323 181.94C168.763 181.607 168.143 181.44 167.463 181.44C166.783 181.44 166.163 181.6 165.603 181.92C165.043 182.24 164.596 182.707 164.263 183.32C163.93 183.933 163.763 184.653 163.763 185.48C163.763 186.32 163.93 187.053 164.263 187.68C164.596 188.293 165.043 188.767 165.603 189.1C166.163 189.42 166.783 189.58 167.463 189.58C168.143 189.58 168.763 189.42 169.323 189.1C169.896 188.767 170.35 188.293 170.683 187.68C171.016 187.053 171.183 186.327 171.183 185.5ZM183.891 181.54H181.591V191H179.771V181.54H178.351V180.04H179.771V179.26C179.771 178.033 180.084 177.14 180.711 176.58C181.351 176.007 182.371 175.72 183.771 175.72V177.24C182.971 177.24 182.404 177.4 182.071 177.72C181.751 178.027 181.591 178.54 181.591 179.26V180.04H183.891V181.54ZM189.793 191.18C188.766 191.18 187.833 190.947 186.993 190.48C186.166 190.013 185.513 189.353 185.033 188.5C184.566 187.633 184.333 186.633 184.333 185.5C184.333 184.38 184.573 183.393 185.053 182.54C185.546 181.673 186.213 181.013 187.053 180.56C187.893 180.093 188.833 179.86 189.873 179.86C190.913 179.86 191.853 180.093 192.693 180.56C193.533 181.013 194.193 181.667 194.673 182.52C195.166 183.373 195.413 184.367 195.413 185.5C195.413 186.633 195.159 187.633 194.653 188.5C194.159 189.353 193.486 190.013 192.633 190.48C191.779 190.947 190.833 191.18 189.793 191.18ZM189.793 189.58C190.446 189.58 191.059 189.427 191.633 189.12C192.206 188.813 192.666 188.353 193.013 187.74C193.373 187.127 193.553 186.38 193.553 185.5C193.553 184.62 193.379 183.873 193.033 183.26C192.686 182.647 192.233 182.193 191.673 181.9C191.113 181.593 190.506 181.44 189.853 181.44C189.186 181.44 188.573 181.593 188.013 181.9C187.466 182.193 187.026 182.647 186.693 183.26C186.359 183.873 186.193 184.62 186.193 185.5C186.193 186.393 186.353 187.147 186.673 187.76C187.006 188.373 187.446 188.833 187.993 189.14C188.539 189.433 189.139 189.58 189.793 189.58ZM198.626 181.82C198.946 181.193 199.399 180.707 199.986 180.36C200.586 180.013 201.312 179.84 202.166 179.84V181.72H201.686C199.646 181.72 198.626 182.827 198.626 185.04V191H196.806V180.04H198.626V181.82ZM207.927 189.64C208.727 189.64 209.393 189.453 209.927 189.08C210.46 188.707 210.827 188.173 211.027 187.48H212.987C212.72 188.52 212.193 189.373 211.407 190.04C210.633 190.693 209.66 191.067 208.487 191.16V192.16C209.273 192.147 209.9 192.313 210.367 192.66C210.833 193.007 211.067 193.5 211.067 194.14C211.067 194.767 210.84 195.267 210.387 195.64C209.933 196.013 209.347 196.2 208.627 196.2H206.327V195.02H208.267C208.707 195.02 209.027 194.953 209.227 194.82C209.44 194.687 209.547 194.46 209.547 194.14C209.547 193.833 209.44 193.613 209.227 193.48C209.027 193.347 208.707 193.28 208.267 193.28H207.267V191.14C206.347 191.047 205.533 190.76 204.827 190.28C204.12 189.787 203.567 189.133 203.167 188.32C202.78 187.493 202.587 186.553 202.587 185.5C202.587 184.367 202.813 183.38 203.267 182.54C203.72 181.687 204.347 181.027 205.147 180.56C205.96 180.093 206.887 179.86 207.927 179.86C209.273 179.86 210.38 180.187 211.247 180.84C212.127 181.493 212.707 182.4 212.987 183.56H211.027C210.84 182.893 210.473 182.367 209.927 181.98C209.393 181.593 208.727 181.4 207.927 181.4C206.887 181.4 206.047 181.76 205.407 182.48C204.767 183.187 204.447 184.193 204.447 185.5C204.447 186.82 204.767 187.84 205.407 188.56C206.047 189.28 206.887 189.64 207.927 189.64ZM213.735 185.48C213.735 184.36 213.962 183.38 214.415 182.54C214.868 181.687 215.488 181.027 216.275 180.56C217.075 180.093 217.962 179.86 218.935 179.86C219.895 179.86 220.728 180.067 221.435 180.48C222.142 180.893 222.668 181.413 223.015 182.04V180.04H224.855V191H223.015V188.96C222.655 189.6 222.115 190.133 221.395 190.56C220.688 190.973 219.862 191.18 218.915 191.18C217.942 191.18 217.062 190.94 216.275 190.46C215.488 189.98 214.868 189.307 214.415 188.44C213.962 187.573 213.735 186.587 213.735 185.48ZM223.015 185.5C223.015 184.673 222.848 183.953 222.515 183.34C222.182 182.727 221.728 182.26 221.155 181.94C220.595 181.607 219.975 181.44 219.295 181.44C218.615 181.44 217.995 181.6 217.435 181.92C216.875 182.24 216.428 182.707 216.095 183.32C215.762 183.933 215.595 184.653 215.595 185.48C215.595 186.32 215.762 187.053 216.095 187.68C216.428 188.293 216.875 188.767 217.435 189.1C217.995 189.42 218.615 189.58 219.295 189.58C219.975 189.58 220.595 189.42 221.155 189.1C221.728 188.767 222.182 188.293 222.515 187.68C222.848 187.053 223.015 186.327 223.015 185.5ZM241.263 185.1C241.263 185.447 241.243 185.813 241.203 186.2H232.443C232.509 187.28 232.876 188.127 233.543 188.74C234.223 189.34 235.043 189.64 236.003 189.64C236.789 189.64 237.443 189.46 237.963 189.1C238.496 188.727 238.869 188.233 239.083 187.62H241.043C240.749 188.673 240.163 189.533 239.283 190.2C238.403 190.853 237.309 191.18 236.003 191.18C234.963 191.18 234.029 190.947 233.203 190.48C232.389 190.013 231.749 189.353 231.283 188.5C230.816 187.633 230.583 186.633 230.583 185.5C230.583 184.367 230.809 183.373 231.263 182.52C231.716 181.667 232.349 181.013 233.163 180.56C233.989 180.093 234.936 179.86 236.003 179.86C237.043 179.86 237.963 180.087 238.763 180.54C239.563 180.993 240.176 181.62 240.603 182.42C241.043 183.207 241.263 184.1 241.263 185.1ZM239.383 184.72C239.383 184.027 239.229 183.433 238.923 182.94C238.616 182.433 238.196 182.053 237.663 181.8C237.143 181.533 236.563 181.4 235.923 181.4C235.003 181.4 234.216 181.693 233.563 182.28C232.923 182.867 232.556 183.68 232.463 184.72H239.383ZM246.317 185.48C246.317 184.36 246.544 183.38 246.997 182.54C247.45 181.687 248.07 181.027 248.857 180.56C249.657 180.093 250.544 179.86 251.517 179.86C252.477 179.86 253.31 180.067 254.017 180.48C254.724 180.893 255.25 181.413 255.597 182.04V180.04H257.437V191H255.597V188.96C255.237 189.6 254.697 190.133 253.977 190.56C253.27 190.973 252.444 191.18 251.497 191.18C250.524 191.18 249.644 190.94 248.857 190.46C248.07 189.98 247.45 189.307 246.997 188.44C246.544 187.573 246.317 186.587 246.317 185.48ZM255.597 185.5C255.597 184.673 255.43 183.953 255.097 183.34C254.764 182.727 254.31 182.26 253.737 181.94C253.177 181.607 252.557 181.44 251.877 181.44C251.197 181.44 250.577 181.6 250.017 181.92C249.457 182.24 249.01 182.707 248.677 183.32C248.344 183.933 248.177 184.653 248.177 185.48C248.177 186.32 248.344 187.053 248.677 187.68C249.01 188.293 249.457 188.767 250.017 189.1C250.577 189.42 251.197 189.58 251.877 189.58C252.557 189.58 253.177 189.42 253.737 189.1C254.31 188.767 254.764 188.293 255.097 187.68C255.43 187.053 255.597 186.327 255.597 185.5ZM265.665 182.08C266.038 181.427 266.585 180.893 267.305 180.48C268.025 180.067 268.845 179.86 269.765 179.86C270.751 179.86 271.638 180.093 272.425 180.56C273.211 181.027 273.831 181.687 274.285 182.54C274.738 183.38 274.965 184.36 274.965 185.48C274.965 186.587 274.738 187.573 274.285 188.44C273.831 189.307 273.205 189.98 272.405 190.46C271.618 190.94 270.738 191.18 269.765 191.18C268.818 191.18 267.985 190.973 267.265 190.56C266.558 190.147 266.025 189.62 265.665 188.98V191H263.845V176.2H265.665V182.08ZM273.105 185.48C273.105 184.653 272.938 183.933 272.605 183.32C272.271 182.707 271.818 182.24 271.245 181.92C270.685 181.6 270.065 181.44 269.385 181.44C268.718 181.44 268.098 181.607 267.525 181.94C266.965 182.26 266.511 182.733 266.165 183.36C265.831 183.973 265.665 184.687 265.665 185.5C265.665 186.327 265.831 187.053 266.165 187.68C266.511 188.293 266.965 188.767 267.525 189.1C268.098 189.42 268.718 189.58 269.385 189.58C270.065 189.58 270.685 189.42 271.245 189.1C271.818 188.767 272.271 188.293 272.605 187.68C272.938 187.053 273.105 186.32 273.105 185.48ZM286.36 185.1C286.36 185.447 286.34 185.813 286.3 186.2H277.54C277.607 187.28 277.974 188.127 278.64 188.74C279.32 189.34 280.14 189.64 281.1 189.64C281.887 189.64 282.54 189.46 283.06 189.1C283.594 188.727 283.967 188.233 284.18 187.62H286.14C285.847 188.673 285.26 189.533 284.38 190.2C283.5 190.853 282.407 191.18 281.1 191.18C280.06 191.18 279.127 190.947 278.3 190.48C277.487 190.013 276.847 189.353 276.38 188.5C275.914 187.633 275.68 186.633 275.68 185.5C275.68 184.367 275.907 183.373 276.36 182.52C276.814 181.667 277.447 181.013 278.26 180.56C279.087 180.093 280.034 179.86 281.1 179.86C282.14 179.86 283.06 180.087 283.86 180.54C284.66 180.993 285.274 181.62 285.7 182.42C286.14 183.207 286.36 184.1 286.36 185.1ZM284.48 184.72C284.48 184.027 284.327 183.433 284.02 182.94C283.714 182.433 283.294 182.053 282.76 181.8C282.24 181.533 281.66 181.4 281.02 181.4C280.1 181.4 279.314 181.693 278.66 182.28C278.02 182.867 277.654 183.68 277.56 184.72H284.48ZM289.583 176.2V191H287.763V176.2H289.583ZM301.685 185.1C301.685 185.447 301.665 185.813 301.625 186.2H292.865C292.931 187.28 293.298 188.127 293.965 188.74C294.645 189.34 295.465 189.64 296.425 189.64C297.211 189.64 297.865 189.46 298.385 189.1C298.918 188.727 299.291 188.233 299.505 187.62H301.465C301.171 188.673 300.585 189.533 299.705 190.2C298.825 190.853 297.731 191.18 296.425 191.18C295.385 191.18 294.451 190.947 293.625 190.48C292.811 190.013 292.171 189.353 291.705 188.5C291.238 187.633 291.005 186.633 291.005 185.5C291.005 184.367 291.231 183.373 291.685 182.52C292.138 181.667 292.771 181.013 293.585 180.56C294.411 180.093 295.358 179.86 296.425 179.86C297.465 179.86 298.385 180.087 299.185 180.54C299.985 180.993 300.598 181.62 301.025 182.42C301.465 183.207 301.685 184.1 301.685 185.1ZM299.805 184.72C299.805 184.027 299.651 183.433 299.345 182.94C299.038 182.433 298.618 182.053 298.085 181.8C297.565 181.533 296.985 181.4 296.345 181.4C295.425 181.4 294.638 181.693 293.985 182.28C293.345 182.867 292.978 183.68 292.885 184.72H299.805ZM304.447 189.5H309.827V191H302.367V189.5L307.687 181.52H302.407V180.04H309.787V181.52L304.447 189.5ZM310.508 185.48C310.508 184.36 310.735 183.38 311.188 182.54C311.642 181.687 312.262 181.027 313.048 180.56C313.848 180.093 314.735 179.86 315.708 179.86C316.668 179.86 317.502 180.067 318.208 180.48C318.915 180.893 319.442 181.413 319.788 182.04V180.04H321.628V191H319.788V188.96C319.428 189.6 318.888 190.133 318.168 190.56C317.462 190.973 316.635 191.18 315.688 191.18C314.715 191.18 313.835 190.94 313.048 190.46C312.262 189.98 311.642 189.307 311.188 188.44C310.735 187.573 310.508 186.587 310.508 185.48ZM319.788 185.5C319.788 184.673 319.622 183.953 319.288 183.34C318.955 182.727 318.502 182.26 317.928 181.94C317.368 181.607 316.748 181.44 316.068 181.44C315.388 181.44 314.768 181.6 314.208 181.92C313.648 182.24 313.202 182.707 312.868 183.32C312.535 183.933 312.368 184.653 312.368 185.48C312.368 186.32 312.535 187.053 312.868 187.68C313.202 188.293 313.648 188.767 314.208 189.1C314.768 189.42 315.388 189.58 316.068 189.58C316.748 189.58 317.368 189.42 317.928 189.1C318.502 188.767 318.955 188.293 319.288 187.68C319.622 187.053 319.788 186.327 319.788 185.5ZM327.356 185.48C327.356 184.36 327.583 183.38 328.036 182.54C328.489 181.687 329.109 181.027 329.896 180.56C330.696 180.093 331.589 179.86 332.576 179.86C333.429 179.86 334.223 180.06 334.956 180.46C335.689 180.847 336.249 181.36 336.636 182V176.2H338.476V191H336.636V188.94C336.276 189.593 335.743 190.133 335.036 190.56C334.329 190.973 333.503 191.18 332.556 191.18C331.583 191.18 330.696 190.94 329.896 190.46C329.109 189.98 328.489 189.307 328.036 188.44C327.583 187.573 327.356 186.587 327.356 185.48ZM336.636 185.5C336.636 184.673 336.469 183.953 336.136 183.34C335.803 182.727 335.349 182.26 334.776 181.94C334.216 181.607 333.596 181.44 332.916 181.44C332.236 181.44 331.616 181.6 331.056 181.92C330.496 182.24 330.049 182.707 329.716 183.32C329.383 183.933 329.216 184.653 329.216 185.48C329.216 186.32 329.383 187.053 329.716 187.68C330.049 188.293 330.496 188.767 331.056 189.1C331.616 189.42 332.236 189.58 332.916 189.58C333.596 189.58 334.216 189.42 334.776 189.1C335.349 188.767 335.803 188.293 336.136 187.68C336.469 187.053 336.636 186.327 336.636 185.5ZM350.552 185.1C350.552 185.447 350.532 185.813 350.492 186.2H341.732C341.798 187.28 342.165 188.127 342.832 188.74C343.512 189.34 344.332 189.64 345.292 189.64C346.078 189.64 346.732 189.46 347.252 189.1C347.785 188.727 348.158 188.233 348.372 187.62H350.332C350.038 188.673 349.452 189.533 348.572 190.2C347.692 190.853 346.598 191.18 345.292 191.18C344.252 191.18 343.318 190.947 342.492 190.48C341.678 190.013 341.038 189.353 340.572 188.5C340.105 187.633 339.872 186.633 339.872 185.5C339.872 184.367 340.098 183.373 340.552 182.52C341.005 181.667 341.638 181.013 342.452 180.56C343.278 180.093 344.225 179.86 345.292 179.86C346.332 179.86 347.252 180.087 348.052 180.54C348.852 180.993 349.465 181.62 349.892 182.42C350.332 183.207 350.552 184.1 350.552 185.1ZM348.672 184.72C348.672 184.027 348.518 183.433 348.212 182.94C347.905 182.433 347.485 182.053 346.952 181.8C346.432 181.533 345.852 181.4 345.212 181.4C344.292 181.4 343.505 181.693 342.852 182.28C342.212 182.867 341.845 183.68 341.752 184.72H348.672ZM360.166 191.18C359.326 191.18 358.573 191.04 357.906 190.76C357.239 190.467 356.713 190.067 356.326 189.56C355.939 189.04 355.726 188.447 355.686 187.78H357.566C357.619 188.327 357.873 188.773 358.326 189.12C358.793 189.467 359.399 189.64 360.146 189.64C360.839 189.64 361.386 189.487 361.786 189.18C362.186 188.873 362.386 188.487 362.386 188.02C362.386 187.54 362.173 187.187 361.746 186.96C361.319 186.72 360.659 186.487 359.766 186.26C358.953 186.047 358.286 185.833 357.766 185.62C357.259 185.393 356.819 185.067 356.446 184.64C356.086 184.2 355.906 183.627 355.906 182.92C355.906 182.36 356.073 181.847 356.406 181.38C356.739 180.913 357.213 180.547 357.826 180.28C358.439 180 359.139 179.86 359.926 179.86C361.139 179.86 362.119 180.167 362.866 180.78C363.613 181.393 364.013 182.233 364.066 183.3H362.246C362.206 182.727 361.973 182.267 361.546 181.92C361.133 181.573 360.573 181.4 359.866 181.4C359.213 181.4 358.693 181.54 358.306 181.82C357.919 182.1 357.726 182.467 357.726 182.92C357.726 183.28 357.839 183.58 358.066 183.82C358.306 184.047 358.599 184.233 358.946 184.38C359.306 184.513 359.799 184.667 360.426 184.84C361.213 185.053 361.853 185.267 362.346 185.48C362.839 185.68 363.259 185.987 363.606 186.4C363.966 186.813 364.153 187.353 364.166 188.02C364.166 188.62 363.999 189.16 363.666 189.64C363.333 190.12 362.859 190.5 362.246 190.78C361.646 191.047 360.953 191.18 360.166 191.18ZM375.735 185.1C375.735 185.447 375.715 185.813 375.675 186.2H366.915C366.982 187.28 367.349 188.127 368.015 188.74C368.695 189.34 369.515 189.64 370.475 189.64C371.262 189.64 371.915 189.46 372.435 189.1C372.969 188.727 373.342 188.233 373.555 187.62H375.515C375.222 188.673 374.635 189.533 373.755 190.2C372.875 190.853 371.782 191.18 370.475 191.18C369.435 191.18 368.502 190.947 367.675 190.48C366.862 190.013 366.222 189.353 365.755 188.5C365.289 187.633 365.055 186.633 365.055 185.5C365.055 184.367 365.282 183.373 365.735 182.52C366.189 181.667 366.822 181.013 367.635 180.56C368.462 180.093 369.409 179.86 370.475 179.86C371.515 179.86 372.435 180.087 373.235 180.54C374.035 180.993 374.649 181.62 375.075 182.42C375.515 183.207 375.735 184.1 375.735 185.1ZM373.855 184.72C373.855 184.027 373.702 183.433 373.395 182.94C373.089 182.433 372.669 182.053 372.135 181.8C371.615 181.533 371.035 181.4 370.395 181.4C369.475 181.4 368.689 181.693 368.035 182.28C367.395 182.867 367.029 183.68 366.935 184.72H373.855ZM378.958 181.82C379.278 181.193 379.731 180.707 380.318 180.36C380.918 180.013 381.644 179.84 382.498 179.84V181.72H382.018C379.978 181.72 378.958 182.827 378.958 185.04V191H377.138V180.04H378.958V181.82ZM194.341 202.76C195.701 202.76 196.795 203.18 197.621 204.02C198.461 204.847 198.881 206.007 198.881 207.5V214H196.081V207.88C196.081 207.013 195.861 206.353 195.421 205.9C194.981 205.433 194.381 205.2 193.621 205.2C192.861 205.2 192.255 205.433 191.801 205.9C191.361 206.353 191.141 207.013 191.141 207.88V214H188.341V207.88C188.341 207.013 188.121 206.353 187.681 205.9C187.241 205.433 186.641 205.2 185.881 205.2C185.108 205.2 184.495 205.433 184.041 205.9C183.601 206.353 183.381 207.013 183.381 207.88V214H180.581V202.92H183.381V204.26C183.741 203.793 184.201 203.427 184.761 203.16C185.335 202.893 185.961 202.76 186.641 202.76C187.508 202.76 188.281 202.947 188.961 203.32C189.641 203.68 190.168 204.2 190.541 204.88C190.901 204.24 191.421 203.727 192.101 203.34C192.795 202.953 193.541 202.76 194.341 202.76ZM210.998 202.92V214H208.178V212.6C207.818 213.08 207.345 213.46 206.758 213.74C206.185 214.007 205.558 214.14 204.878 214.14C204.012 214.14 203.245 213.96 202.578 213.6C201.912 213.227 201.385 212.687 200.998 211.98C200.625 211.26 200.438 210.407 200.438 209.42V202.92H203.238V209.02C203.238 209.9 203.458 210.58 203.898 211.06C204.338 211.527 204.938 211.76 205.698 211.76C206.472 211.76 207.078 211.527 207.518 211.06C207.958 210.58 208.178 209.9 208.178 209.02V202.92H210.998ZM215.561 199.2V214H212.761V199.2H215.561ZM223.567 202.76C224.407 202.76 225.154 202.947 225.807 203.32C226.461 203.68 226.967 204.22 227.327 204.94C227.701 205.647 227.887 206.5 227.887 207.5V214H225.087V207.88C225.087 207 224.867 206.327 224.427 205.86C223.987 205.38 223.387 205.14 222.627 205.14C221.854 205.14 221.241 205.38 220.787 205.86C220.347 206.327 220.127 207 220.127 207.88V214H217.327V199.2H220.127V204.3C220.487 203.82 220.967 203.447 221.567 203.18C222.167 202.9 222.834 202.76 223.567 202.76ZM239.85 208.22C239.85 208.62 239.823 208.98 239.77 209.3H231.67C231.737 210.1 232.017 210.727 232.51 211.18C233.003 211.633 233.61 211.86 234.33 211.86C235.37 211.86 236.11 211.413 236.55 210.52H239.57C239.25 211.587 238.637 212.467 237.73 213.16C236.823 213.84 235.71 214.18 234.39 214.18C233.323 214.18 232.363 213.947 231.51 213.48C230.67 213 230.01 212.327 229.53 211.46C229.063 210.593 228.83 209.593 228.83 208.46C228.83 207.313 229.063 206.307 229.53 205.44C229.997 204.573 230.65 203.907 231.49 203.44C232.33 202.973 233.297 202.74 234.39 202.74C235.443 202.74 236.383 202.967 237.21 203.42C238.05 203.873 238.697 204.52 239.15 205.36C239.617 206.187 239.85 207.14 239.85 208.22ZM236.95 207.42C236.937 206.7 236.677 206.127 236.17 205.7C235.663 205.26 235.043 205.04 234.31 205.04C233.617 205.04 233.03 205.253 232.55 205.68C232.083 206.093 231.797 206.673 231.69 207.42H236.95ZM243.694 204.64C244.054 204.053 244.52 203.593 245.094 203.26C245.68 202.927 246.347 202.76 247.094 202.76V205.7H246.354C245.474 205.7 244.807 205.907 244.354 206.32C243.914 206.733 243.694 207.453 243.694 208.48V214H240.894V202.92H243.694V204.64ZM248.72 214.12C248.373 214.12 248.08 214 247.84 213.76C247.6 213.52 247.48 213.227 247.48 212.88C247.48 212.533 247.6 212.24 247.84 212C248.08 211.76 248.373 211.64 248.72 211.64C249.053 211.64 249.333 211.76 249.56 212C249.8 212.24 249.92 212.533 249.92 212.88C249.92 213.227 249.8 213.52 249.56 213.76C249.333 214 249.053 214.12 248.72 214.12Z" fill="#533050"/>
<path d="M389.548 264.133C391.061 264.133 393.024 265.695 393.024 268.225C393.024 270.549 391.354 273 388.112 273H382.165V257.258H386.462C389.255 257.258 391.032 259.309 391.032 261.428C391.032 263.098 389.929 264.133 389.548 264.133ZM386.657 260.334H385.319V263.41H386.598C387.35 263.41 388.083 262.766 388.083 261.848C388.083 260.959 387.389 260.334 386.657 260.334ZM387.819 269.914C388.845 269.914 389.938 269.211 389.938 268C389.938 267.092 389.313 266.184 387.809 266.184H385.319V269.914H387.819ZM410.441 264.162C410.489 264.621 410.519 265.061 410.519 265.49C410.519 270.432 407.111 273.312 403.009 273.312C398.37 273.312 394.718 269.641 394.718 265.148C394.718 260.646 398.39 256.936 402.892 256.936C404.933 256.955 407.111 257.893 408.654 259.396L406.896 262.023C405.665 260.822 404.259 260.139 402.853 260.139C400.411 260.139 397.941 262.209 397.941 265.148C397.941 267.883 400.07 270.129 403.146 270.129C405.392 270.129 407.003 268.977 407.111 267.082H403.038V264.162H410.441Z" fill="#533050"/>
</svg>
