<svg width="429" height="286" viewBox="0 0 429 286" fill="none" xmlns="http://www.w3.org/2000/svg">
<rect width="429" height="286" fill="#533050"/>
<path d="M200.75 142.039C203.475 142.039 207.008 144.852 207.008 149.404C207.008 153.588 204.002 158 198.166 158H187.461V129.664H195.195C200.223 129.664 203.422 133.355 203.422 137.17C203.422 140.176 201.436 142.039 200.75 142.039ZM195.547 135.201H193.139V140.738H195.441C196.795 140.738 198.113 139.578 198.113 137.926C198.113 136.326 196.865 135.201 195.547 135.201ZM197.639 152.445C199.484 152.445 201.453 151.18 201.453 149C201.453 147.365 200.328 145.73 197.621 145.73H193.139V152.445H197.639ZM238.717 142.092C238.805 142.918 238.858 143.709 238.858 144.482C238.858 153.377 232.723 158.562 225.34 158.562C216.991 158.562 210.417 151.953 210.417 143.867C210.417 135.764 217.026 129.084 225.129 129.084C228.803 129.119 232.723 130.807 235.501 133.514L232.336 138.242C230.122 136.08 227.59 134.85 225.059 134.85C220.665 134.85 216.217 138.576 216.217 143.867C216.217 148.789 220.049 152.832 225.586 152.832C229.629 152.832 232.53 150.758 232.723 147.348H225.393V142.092H238.717Z" fill="#FFDDFC"/>
</svg>
