<svg width="429" height="286" viewBox="0 0 429 286" fill="none" xmlns="http://www.w3.org/2000/svg">
<g clip-path="url(#clip0_1037_108)">
<rect width="429" height="286" fill="#0E1019"/>
<path d="M32.32 41.4V47.08H41.48V52.36H32.32V58.52H42.68V64H25.48V35.92H42.68V41.4H32.32ZM57.6406 35.92C60.6006 35.92 63.1873 36.5067 65.4006 37.68C67.614 38.8533 69.3206 40.5067 70.5206 42.64C71.7473 44.7467 72.3606 47.1867 72.3606 49.96C72.3606 52.7067 71.7473 55.1467 70.5206 57.28C69.3206 59.4133 67.6006 61.0667 65.3606 62.24C63.1473 63.4133 60.574 64 57.6406 64H47.1206V35.92H57.6406ZM57.2006 58.08C59.7873 58.08 61.8006 57.3733 63.2406 55.96C64.6806 54.5467 65.4006 52.5467 65.4006 49.96C65.4006 47.3733 64.6806 45.36 63.2406 43.92C61.8006 42.48 59.7873 41.76 57.2006 41.76H53.9606V58.08H57.2006ZM83.0231 35.92V64H76.1831V35.92H83.0231ZM108.18 35.92V41.4H100.74V64H93.9V41.4H86.46V35.92H108.18ZM51.84 72.92L41.88 101H33.32L23.36 72.92H30.64L37.6 94.12L44.6 72.92H51.84ZM72.1788 96.04H61.6988L60.0188 101H52.8588L63.0188 72.92H70.9388L81.0988 101H73.8588L72.1788 96.04ZM70.4188 90.76L66.9388 80.48L63.4988 90.76H70.4188ZM91.0309 95.72H99.9909V101H84.1909V72.92H91.0309V95.72ZM116.533 101.28C113.893 101.28 111.467 100.667 109.253 99.44C107.067 98.2133 105.32 96.5067 104.013 94.32C102.733 92.1067 102.093 89.6267 102.093 86.88C102.093 84.1333 102.733 81.6667 104.013 79.48C105.32 77.2933 107.067 75.5867 109.253 74.36C111.467 73.1333 113.893 72.52 116.533 72.52C119.173 72.52 121.587 73.1333 123.773 74.36C125.987 75.5867 127.72 77.2933 128.973 79.48C130.253 81.6667 130.893 84.1333 130.893 86.88C130.893 89.6267 130.253 92.1067 128.973 94.32C127.693 96.5067 125.96 98.2133 123.773 99.44C121.587 100.667 119.173 101.28 116.533 101.28ZM116.533 95.04C118.773 95.04 120.56 94.2933 121.893 92.8C123.253 91.3067 123.933 89.3333 123.933 86.88C123.933 84.4 123.253 82.4267 121.893 80.96C120.56 79.4667 118.773 78.72 116.533 78.72C114.267 78.72 112.453 79.4533 111.093 80.92C109.76 82.3867 109.093 84.3733 109.093 86.88C109.093 89.36 109.76 91.3467 111.093 92.84C112.453 94.3067 114.267 95.04 116.533 95.04ZM149.019 101L143.179 90.4H141.539V101H134.699V72.92H146.179C148.392 72.92 150.272 73.3067 151.819 74.08C153.392 74.8533 154.565 75.92 155.339 77.28C156.112 78.6133 156.499 80.1067 156.499 81.76C156.499 83.6267 155.965 85.2933 154.899 86.76C153.859 88.2267 152.312 89.2667 150.259 89.88L156.739 101H149.019ZM141.539 85.56H145.779C147.032 85.56 147.965 85.2533 148.579 84.64C149.219 84.0267 149.539 83.16 149.539 82.04C149.539 80.9733 149.219 80.1333 148.579 79.52C147.965 78.9067 147.032 78.6 145.779 78.6H141.539V85.56ZM178.273 96.04H167.793L166.113 101H158.953L169.113 72.92H177.033L187.193 101H179.953L178.273 96.04ZM176.513 90.76L173.033 80.48L169.593 90.76H176.513ZM215.405 101H208.565L197.125 83.68V101H190.285V72.92H197.125L208.565 90.32V72.92H215.405V101ZM240.563 72.92V78.4H233.123V101H226.283V78.4H218.843V72.92H240.563Z" fill="url(#paint0_radial_1037_108)"/>
<path d="M26.78 148.94V153.02H31.58V154.88H26.78V159.14H32.18V161H24.5V147.08H32.18V148.94H26.78ZM39.7083 155.42L43.2683 161H40.6883L38.3083 157.26L36.0683 161H33.6883L37.2483 155.58L33.6883 149.98H36.2683L38.6483 153.72L40.8883 149.98H43.2683L39.7083 155.42ZM47.2488 151.6C47.6354 151.093 48.1621 150.667 48.8288 150.32C49.4954 149.973 50.2488 149.8 51.0888 149.8C52.0488 149.8 52.9221 150.04 53.7088 150.52C54.5088 150.987 55.1354 151.647 55.5888 152.5C56.0421 153.353 56.2688 154.333 56.2688 155.44C56.2688 156.547 56.0421 157.54 55.5888 158.42C55.1354 159.287 54.5088 159.967 53.7088 160.46C52.9221 160.94 52.0488 161.18 51.0888 161.18C50.2488 161.18 49.5021 161.013 48.8488 160.68C48.1954 160.333 47.6621 159.907 47.2488 159.4V166.24H44.9688V149.98H47.2488V151.6ZM53.9488 155.44C53.9488 154.68 53.7888 154.027 53.4688 153.48C53.1621 152.92 52.7488 152.5 52.2288 152.22C51.7221 151.927 51.1754 151.78 50.5888 151.78C50.0154 151.78 49.4688 151.927 48.9488 152.22C48.4421 152.513 48.0288 152.94 47.7088 153.5C47.4021 154.06 47.2488 154.72 47.2488 155.48C47.2488 156.24 47.4021 156.907 47.7088 157.48C48.0288 158.04 48.4421 158.467 48.9488 158.76C49.4688 159.053 50.0154 159.2 50.5888 159.2C51.1754 159.2 51.7221 159.053 52.2288 158.76C52.7488 158.453 53.1621 158.013 53.4688 157.44C53.7888 156.867 53.9488 156.2 53.9488 155.44ZM60.8034 146.2V161H58.5234V146.2H60.8034ZM68.5769 161.18C67.5369 161.18 66.5969 160.947 65.7569 160.48C64.9169 160 64.2569 159.333 63.7769 158.48C63.2969 157.613 63.0569 156.613 63.0569 155.48C63.0569 154.36 63.3035 153.367 63.7969 152.5C64.2902 151.633 64.9635 150.967 65.8169 150.5C66.6702 150.033 67.6235 149.8 68.6769 149.8C69.7302 149.8 70.6835 150.033 71.5369 150.5C72.3902 150.967 73.0635 151.633 73.5569 152.5C74.0502 153.367 74.2969 154.36 74.2969 155.48C74.2969 156.6 74.0435 157.593 73.5369 158.46C73.0302 159.327 72.3369 160 71.4569 160.48C70.5902 160.947 69.6302 161.18 68.5769 161.18ZM68.5769 159.2C69.1635 159.2 69.7102 159.06 70.2169 158.78C70.7369 158.5 71.1569 158.08 71.4769 157.52C71.7969 156.96 71.9569 156.28 71.9569 155.48C71.9569 154.68 71.8035 154.007 71.4969 153.46C71.1902 152.9 70.7835 152.48 70.2769 152.2C69.7702 151.92 69.2235 151.78 68.6369 151.78C68.0502 151.78 67.5035 151.92 66.9969 152.2C66.5035 152.48 66.1102 152.9 65.8169 153.46C65.5235 154.007 65.3769 154.68 65.3769 155.48C65.3769 156.667 65.6769 157.587 66.2769 158.24C66.8902 158.88 67.6569 159.2 68.5769 159.2ZM78.8308 151.58C79.1641 151.02 79.6041 150.587 80.1508 150.28C80.7108 149.96 81.3708 149.8 82.1308 149.8V152.16H81.5508C80.6574 152.16 79.9774 152.387 79.5108 152.84C79.0574 153.293 78.8308 154.08 78.8308 155.2V161H76.5508V149.98H78.8308V151.58ZM83.4666 155.44C83.4666 154.333 83.6932 153.353 84.1466 152.5C84.6132 151.647 85.2399 150.987 86.0266 150.52C86.8266 150.04 87.7066 149.8 88.6666 149.8C89.5332 149.8 90.2866 149.973 90.9266 150.32C91.5799 150.653 92.0999 151.073 92.4866 151.58V149.98H94.7866V161H92.4866V159.36C92.0999 159.88 91.5732 160.313 90.9066 160.66C90.2399 161.007 89.4799 161.18 88.6266 161.18C87.6799 161.18 86.8132 160.94 86.0266 160.46C85.2399 159.967 84.6132 159.287 84.1466 158.42C83.6932 157.54 83.4666 156.547 83.4666 155.44ZM92.4866 155.48C92.4866 154.72 92.3266 154.06 92.0066 153.5C91.6999 152.94 91.2932 152.513 90.7866 152.22C90.2799 151.927 89.7332 151.78 89.1466 151.78C88.5599 151.78 88.0132 151.927 87.5066 152.22C86.9999 152.5 86.5866 152.92 86.2666 153.48C85.9599 154.027 85.8066 154.68 85.8066 155.44C85.8066 156.2 85.9599 156.867 86.2666 157.44C86.5866 158.013 86.9999 158.453 87.5066 158.76C88.0266 159.053 88.5732 159.2 89.1466 159.2C89.7332 159.2 90.2799 159.053 90.7866 158.76C91.2932 158.467 91.6999 158.04 92.0066 157.48C92.3266 156.907 92.4866 156.24 92.4866 155.48ZM102.421 159.26C103.741 159.26 104.615 158.68 105.041 157.52H107.501C107.208 158.533 106.681 159.367 105.921 160.02C105.175 160.66 104.235 161.033 103.101 161.14V161.96C103.875 161.96 104.501 162.14 104.981 162.5C105.461 162.873 105.701 163.393 105.701 164.06C105.701 164.727 105.461 165.253 104.981 165.64C104.501 166.04 103.895 166.24 103.161 166.24H100.521V164.8H102.701C103.075 164.8 103.355 164.747 103.541 164.64C103.728 164.533 103.821 164.34 103.821 164.06C103.821 163.78 103.728 163.587 103.541 163.48C103.355 163.373 103.075 163.32 102.701 163.32H101.601V161.12C100.695 161.013 99.8946 160.713 99.2013 160.22C98.5079 159.713 97.9679 159.06 97.5813 158.26C97.2079 157.447 97.0213 156.52 97.0213 155.48C97.0213 154.347 97.2479 153.353 97.7013 152.5C98.1679 151.633 98.8079 150.967 99.6213 150.5C100.435 150.033 101.368 149.8 102.421 149.8C103.755 149.8 104.855 150.12 105.721 150.76C106.601 151.387 107.195 152.287 107.501 153.46H105.041C104.841 152.913 104.521 152.487 104.081 152.18C103.641 151.873 103.088 151.72 102.421 151.72C101.488 151.72 100.741 152.053 100.181 152.72C99.6346 153.373 99.3613 154.293 99.3613 155.48C99.3613 156.667 99.6346 157.593 100.181 158.26C100.741 158.927 101.488 159.26 102.421 159.26ZM109.013 155.44C109.013 154.333 109.24 153.353 109.693 152.5C110.16 151.647 110.787 150.987 111.573 150.52C112.373 150.04 113.253 149.8 114.213 149.8C115.08 149.8 115.833 149.973 116.473 150.32C117.127 150.653 117.647 151.073 118.033 151.58V149.98H120.333V161H118.033V159.36C117.647 159.88 117.12 160.313 116.453 160.66C115.787 161.007 115.027 161.18 114.173 161.18C113.227 161.18 112.36 160.94 111.573 160.46C110.787 159.967 110.16 159.287 109.693 158.42C109.24 157.54 109.013 156.547 109.013 155.44ZM118.033 155.48C118.033 154.72 117.873 154.06 117.553 153.5C117.247 152.94 116.84 152.513 116.333 152.22C115.827 151.927 115.28 151.78 114.693 151.78C114.107 151.78 113.56 151.927 113.053 152.22C112.547 152.5 112.133 152.92 111.813 153.48C111.507 154.027 111.353 154.68 111.353 155.44C111.353 156.2 111.507 156.867 111.813 157.44C112.133 158.013 112.547 158.453 113.053 158.76C113.573 159.053 114.12 159.2 114.693 159.2C115.28 159.2 115.827 159.053 116.333 158.76C116.84 158.467 117.247 158.04 117.553 157.48C117.873 156.907 118.033 156.24 118.033 155.48ZM111.793 148.84C111.9 148.067 112.153 147.487 112.553 147.1C112.953 146.7 113.453 146.5 114.053 146.5C114.307 146.5 114.527 146.54 114.713 146.62C114.9 146.7 115.127 146.82 115.393 146.98C115.593 147.113 115.76 147.213 115.893 147.28C116.04 147.347 116.2 147.38 116.373 147.38C116.6 147.38 116.787 147.313 116.933 147.18C117.093 147.033 117.193 146.82 117.233 146.54H118.513C118.407 147.313 118.153 147.9 117.753 148.3C117.353 148.687 116.853 148.88 116.253 148.88C116 148.88 115.773 148.84 115.573 148.76C115.373 148.667 115.153 148.54 114.913 148.38C114.673 148.233 114.487 148.133 114.353 148.08C114.233 148.013 114.093 147.98 113.933 147.98C113.707 147.98 113.513 148.053 113.353 148.2C113.207 148.347 113.113 148.56 113.073 148.84H111.793ZM128.108 161.18C127.068 161.18 126.128 160.947 125.288 160.48C124.448 160 123.788 159.333 123.308 158.48C122.828 157.613 122.588 156.613 122.588 155.48C122.588 154.36 122.835 153.367 123.328 152.5C123.821 151.633 124.495 150.967 125.348 150.5C126.201 150.033 127.155 149.8 128.208 149.8C129.261 149.8 130.215 150.033 131.068 150.5C131.921 150.967 132.595 151.633 133.088 152.5C133.581 153.367 133.828 154.36 133.828 155.48C133.828 156.6 133.575 157.593 133.068 158.46C132.561 159.327 131.868 160 130.988 160.48C130.121 160.947 129.161 161.18 128.108 161.18ZM128.108 159.2C128.695 159.2 129.241 159.06 129.748 158.78C130.268 158.5 130.688 158.08 131.008 157.52C131.328 156.96 131.488 156.28 131.488 155.48C131.488 154.68 131.335 154.007 131.028 153.46C130.721 152.9 130.315 152.48 129.808 152.2C129.301 151.92 128.755 151.78 128.168 151.78C127.581 151.78 127.035 151.92 126.528 152.2C126.035 152.48 125.641 152.9 125.348 153.46C125.055 154.007 124.908 154.68 124.908 155.48C124.908 156.667 125.208 157.587 125.808 158.24C126.421 158.88 127.188 159.2 128.108 159.2ZM140.517 155.44C140.517 154.333 140.744 153.353 141.197 152.5C141.664 151.647 142.291 150.987 143.077 150.52C143.877 150.04 144.764 149.8 145.737 149.8C146.457 149.8 147.164 149.96 147.857 150.28C148.564 150.587 149.124 151 149.537 151.52V146.2H151.837V161H149.537V159.34C149.164 159.873 148.644 160.313 147.977 160.66C147.324 161.007 146.571 161.18 145.717 161.18C144.757 161.18 143.877 160.94 143.077 160.46C142.291 159.967 141.664 159.287 141.197 158.42C140.744 157.54 140.517 156.547 140.517 155.44ZM149.537 155.48C149.537 154.72 149.377 154.06 149.057 153.5C148.751 152.94 148.344 152.513 147.837 152.22C147.331 151.927 146.784 151.78 146.197 151.78C145.611 151.78 145.064 151.927 144.557 152.22C144.051 152.5 143.637 152.92 143.317 153.48C143.011 154.027 142.857 154.68 142.857 155.44C142.857 156.2 143.011 156.867 143.317 157.44C143.637 158.013 144.051 158.453 144.557 158.76C145.077 159.053 145.624 159.2 146.197 159.2C146.784 159.2 147.331 159.053 147.837 158.76C148.344 158.467 148.751 158.04 149.057 157.48C149.377 156.907 149.537 156.24 149.537 155.48ZM164.932 155.22C164.932 155.633 164.905 156.007 164.852 156.34H156.432C156.499 157.22 156.825 157.927 157.412 158.46C157.999 158.993 158.719 159.26 159.572 159.26C160.799 159.26 161.665 158.747 162.172 157.72H164.632C164.299 158.733 163.692 159.567 162.812 160.22C161.945 160.86 160.865 161.18 159.572 161.18C158.519 161.18 157.572 160.947 156.732 160.48C155.905 160 155.252 159.333 154.772 158.48C154.305 157.613 154.072 156.613 154.072 155.48C154.072 154.347 154.299 153.353 154.752 152.5C155.219 151.633 155.865 150.967 156.692 150.5C157.532 150.033 158.492 149.8 159.572 149.8C160.612 149.8 161.539 150.027 162.352 150.48C163.165 150.933 163.799 151.573 164.252 152.4C164.705 153.213 164.932 154.153 164.932 155.22ZM162.552 154.5C162.539 153.66 162.239 152.987 161.652 152.48C161.065 151.973 160.339 151.72 159.472 151.72C158.685 151.72 158.012 151.973 157.452 152.48C156.892 152.973 156.559 153.647 156.452 154.5H162.552ZM175.031 151.84V157.94C175.031 158.353 175.124 158.653 175.311 158.84C175.511 159.013 175.844 159.1 176.311 159.1H177.711V161H175.911C174.884 161 174.098 160.76 173.551 160.28C173.004 159.8 172.731 159.02 172.731 157.94V151.84H171.431V149.98H172.731V147.24H175.031V149.98H177.711V151.84H175.031ZM180.973 148.52C180.559 148.52 180.213 148.38 179.933 148.1C179.653 147.82 179.513 147.473 179.513 147.06C179.513 146.647 179.653 146.3 179.933 146.02C180.213 145.74 180.559 145.6 180.973 145.6C181.373 145.6 181.713 145.74 181.993 146.02C182.273 146.3 182.413 146.647 182.413 147.06C182.413 147.473 182.273 147.82 181.993 148.1C181.713 148.38 181.373 148.52 180.973 148.52ZM182.093 149.98V161H179.813V149.98H182.093ZM187.366 151.6C187.753 151.093 188.279 150.667 188.946 150.32C189.613 149.973 190.366 149.8 191.206 149.8C192.166 149.8 193.039 150.04 193.826 150.52C194.626 150.987 195.253 151.647 195.706 152.5C196.159 153.353 196.386 154.333 196.386 155.44C196.386 156.547 196.159 157.54 195.706 158.42C195.253 159.287 194.626 159.967 193.826 160.46C193.039 160.94 192.166 161.18 191.206 161.18C190.366 161.18 189.619 161.013 188.966 160.68C188.313 160.333 187.779 159.907 187.366 159.4V166.24H185.086V149.98H187.366V151.6ZM194.066 155.44C194.066 154.68 193.906 154.027 193.586 153.48C193.279 152.92 192.866 152.5 192.346 152.22C191.839 151.927 191.293 151.78 190.706 151.78C190.133 151.78 189.586 151.927 189.066 152.22C188.559 152.513 188.146 152.94 187.826 153.5C187.519 154.06 187.366 154.72 187.366 155.48C187.366 156.24 187.519 156.907 187.826 157.48C188.146 158.04 188.559 158.467 189.066 158.76C189.586 159.053 190.133 159.2 190.706 159.2C191.293 159.2 191.839 159.053 192.346 158.76C192.866 158.453 193.279 158.013 193.586 157.44C193.906 156.867 194.066 156.2 194.066 155.44ZM203.421 161.18C202.381 161.18 201.441 160.947 200.601 160.48C199.761 160 199.101 159.333 198.621 158.48C198.141 157.613 197.901 156.613 197.901 155.48C197.901 154.36 198.147 153.367 198.641 152.5C199.134 151.633 199.807 150.967 200.661 150.5C201.514 150.033 202.467 149.8 203.521 149.8C204.574 149.8 205.527 150.033 206.381 150.5C207.234 150.967 207.907 151.633 208.401 152.5C208.894 153.367 209.141 154.36 209.141 155.48C209.141 156.6 208.887 157.593 208.381 158.46C207.874 159.327 207.181 160 206.301 160.48C205.434 160.947 204.474 161.18 203.421 161.18ZM203.421 159.2C204.007 159.2 204.554 159.06 205.061 158.78C205.581 158.5 206.001 158.08 206.321 157.52C206.641 156.96 206.801 156.28 206.801 155.48C206.801 154.68 206.647 154.007 206.341 153.46C206.034 152.9 205.627 152.48 205.121 152.2C204.614 151.92 204.067 151.78 203.481 151.78C202.894 151.78 202.347 151.92 201.841 152.2C201.347 152.48 200.954 152.9 200.661 153.46C200.367 154.007 200.221 154.68 200.221 155.48C200.221 156.667 200.521 157.587 201.121 158.24C201.734 158.88 202.501 159.2 203.421 159.2ZM215.835 149.8C216.688 149.8 217.441 149.973 218.095 150.32C218.761 150.653 219.281 151.073 219.655 151.58V149.98H221.955V161.18C221.955 162.193 221.741 163.093 221.315 163.88C220.888 164.68 220.268 165.307 219.455 165.76C218.655 166.213 217.695 166.44 216.575 166.44C215.081 166.44 213.841 166.087 212.855 165.38C211.868 164.687 211.308 163.74 211.175 162.54H213.435C213.608 163.113 213.975 163.573 214.535 163.92C215.108 164.28 215.788 164.46 216.575 164.46C217.495 164.46 218.235 164.18 218.795 163.62C219.368 163.06 219.655 162.247 219.655 161.18V159.34C219.268 159.86 218.741 160.3 218.075 160.66C217.421 161.007 216.675 161.18 215.835 161.18C214.875 161.18 213.995 160.94 213.195 160.46C212.408 159.967 211.781 159.287 211.315 158.42C210.861 157.54 210.635 156.547 210.635 155.44C210.635 154.333 210.861 153.353 211.315 152.5C211.781 151.647 212.408 150.987 213.195 150.52C213.995 150.04 214.875 149.8 215.835 149.8ZM219.655 155.48C219.655 154.72 219.495 154.06 219.175 153.5C218.868 152.94 218.461 152.513 217.955 152.22C217.448 151.927 216.901 151.78 216.315 151.78C215.728 151.78 215.181 151.927 214.675 152.22C214.168 152.5 213.755 152.92 213.435 153.48C213.128 154.027 212.975 154.68 212.975 155.44C212.975 156.2 213.128 156.867 213.435 157.44C213.755 158.013 214.168 158.453 214.675 158.76C215.195 159.053 215.741 159.2 216.315 159.2C216.901 159.2 217.448 159.053 217.955 158.76C218.461 158.467 218.868 158.04 219.175 157.48C219.495 156.907 219.655 156.24 219.655 155.48ZM227.229 151.58C227.563 151.02 228.003 150.587 228.549 150.28C229.109 149.96 229.769 149.8 230.529 149.8V152.16H229.949C229.056 152.16 228.376 152.387 227.909 152.84C227.456 153.293 227.229 154.08 227.229 155.2V161H224.949V149.98H227.229V151.58ZM231.865 155.44C231.865 154.333 232.092 153.353 232.545 152.5C233.012 151.647 233.638 150.987 234.425 150.52C235.225 150.04 236.105 149.8 237.065 149.8C237.932 149.8 238.685 149.973 239.325 150.32C239.978 150.653 240.498 151.073 240.885 151.58V149.98H243.185V161H240.885V159.36C240.498 159.88 239.972 160.313 239.305 160.66C238.638 161.007 237.878 161.18 237.025 161.18C236.078 161.18 235.212 160.94 234.425 160.46C233.638 159.967 233.012 159.287 232.545 158.42C232.092 157.54 231.865 156.547 231.865 155.44ZM240.885 155.48C240.885 154.72 240.725 154.06 240.405 153.5C240.098 152.94 239.692 152.513 239.185 152.22C238.678 151.927 238.132 151.78 237.545 151.78C236.958 151.78 236.412 151.927 235.905 152.22C235.398 152.5 234.985 152.92 234.665 153.48C234.358 154.027 234.205 154.68 234.205 155.44C234.205 156.2 234.358 156.867 234.665 157.44C234.985 158.013 235.398 158.453 235.905 158.76C236.425 159.053 236.972 159.2 237.545 159.2C238.132 159.2 238.678 159.053 239.185 158.76C239.692 158.467 240.098 158.04 240.405 157.48C240.725 156.907 240.885 156.24 240.885 155.48ZM250.8 151.84H248.76V161H246.46V151.84H245.16V149.98H246.46V149.2C246.46 147.933 246.793 147.013 247.46 146.44C248.14 145.853 249.2 145.56 250.64 145.56V147.46C249.946 147.46 249.46 147.593 249.18 147.86C248.9 148.113 248.76 148.56 248.76 149.2V149.98H250.8V151.84ZM253.98 148.52C253.567 148.52 253.22 148.38 252.94 148.1C252.66 147.82 252.52 147.473 252.52 147.06C252.52 146.647 252.66 146.3 252.94 146.02C253.22 145.74 253.567 145.6 253.98 145.6C254.38 145.6 254.72 145.74 255 146.02C255.28 146.3 255.42 146.647 255.42 147.06C255.42 147.473 255.28 147.82 255 148.1C254.72 148.38 254.38 148.52 253.98 148.52ZM255.1 149.98V161H252.82V149.98H255.1ZM257.334 155.44C257.334 154.333 257.56 153.353 258.014 152.5C258.48 151.647 259.107 150.987 259.894 150.52C260.694 150.04 261.574 149.8 262.534 149.8C263.4 149.8 264.154 149.973 264.794 150.32C265.447 150.653 265.967 151.073 266.354 151.58V149.98H268.654V161H266.354V159.36C265.967 159.88 265.44 160.313 264.774 160.66C264.107 161.007 263.347 161.18 262.494 161.18C261.547 161.18 260.68 160.94 259.894 160.46C259.107 159.967 258.48 159.287 258.014 158.42C257.56 157.54 257.334 156.547 257.334 155.44ZM266.354 155.48C266.354 154.72 266.194 154.06 265.874 153.5C265.567 152.94 265.16 152.513 264.654 152.22C264.147 151.927 263.6 151.78 263.014 151.78C262.427 151.78 261.88 151.927 261.374 152.22C260.867 152.5 260.454 152.92 260.134 153.48C259.827 154.027 259.674 154.68 259.674 155.44C259.674 156.2 259.827 156.867 260.134 157.44C260.454 158.013 260.867 158.453 261.374 158.76C261.894 159.053 262.44 159.2 263.014 159.2C263.6 159.2 264.147 159.053 264.654 158.76C265.16 158.467 265.567 158.04 265.874 157.48C266.194 156.907 266.354 156.24 266.354 155.48ZM23.74 176.48C23.74 175.347 23.9667 174.353 24.42 173.5C24.8867 172.633 25.5267 171.967 26.34 171.5C27.1533 171.033 28.0867 170.8 29.14 170.8C30.4733 170.8 31.5733 171.12 32.44 171.76C33.32 172.387 33.9133 173.287 34.22 174.46H31.76C31.56 173.913 31.24 173.487 30.8 173.18C30.36 172.873 29.8067 172.72 29.14 172.72C28.2067 172.72 27.46 173.053 26.9 173.72C26.3533 174.373 26.08 175.293 26.08 176.48C26.08 177.667 26.3533 178.593 26.9 179.26C27.46 179.927 28.2067 180.26 29.14 180.26C30.46 180.26 31.3333 179.68 31.76 178.52H34.22C33.9 179.64 33.3 180.533 32.42 181.2C31.54 181.853 30.4467 182.18 29.14 182.18C28.0867 182.18 27.1533 181.947 26.34 181.48C25.5267 181 24.8867 180.333 24.42 179.48C23.9667 178.613 23.74 177.613 23.74 176.48ZM37.6522 169.52C37.2389 169.52 36.8922 169.38 36.6122 169.1C36.3322 168.82 36.1922 168.473 36.1922 168.06C36.1922 167.647 36.3322 167.3 36.6122 167.02C36.8922 166.74 37.2389 166.6 37.6522 166.6C38.0522 166.6 38.3922 166.74 38.6722 167.02C38.9522 167.3 39.0922 167.647 39.0922 168.06C39.0922 168.473 38.9522 168.82 38.6722 169.1C38.3922 169.38 38.0522 169.52 37.6522 169.52ZM38.7722 170.98V182H36.4922V170.98H38.7722ZM47.3256 170.8C48.1923 170.8 48.9656 170.98 49.6456 171.34C50.339 171.7 50.879 172.233 51.2656 172.94C51.6523 173.647 51.8456 174.5 51.8456 175.5V182H49.5856V175.84C49.5856 174.853 49.339 174.1 48.8456 173.58C48.3523 173.047 47.679 172.78 46.8256 172.78C45.9723 172.78 45.2923 173.047 44.7856 173.58C44.2923 174.1 44.0456 174.853 44.0456 175.84V182H41.7656V170.98H44.0456V172.24C44.419 171.787 44.8923 171.433 45.4656 171.18C46.0523 170.927 46.6723 170.8 47.3256 170.8ZM64.8539 176.22C64.8539 176.633 64.8272 177.007 64.7739 177.34H56.3539C56.4206 178.22 56.7472 178.927 57.3339 179.46C57.9206 179.993 58.6406 180.26 59.4939 180.26C60.7206 180.26 61.5872 179.747 62.0939 178.72H64.5539C64.2206 179.733 63.6139 180.567 62.7339 181.22C61.8672 181.86 60.7872 182.18 59.4939 182.18C58.4406 182.18 57.4939 181.947 56.6539 181.48C55.8272 181 55.1739 180.333 54.6939 179.48C54.2272 178.613 53.9939 177.613 53.9939 176.48C53.9939 175.347 54.2206 174.353 54.6739 173.5C55.1406 172.633 55.7872 171.967 56.6139 171.5C57.4539 171.033 58.4139 170.8 59.4939 170.8C60.5339 170.8 61.4606 171.027 62.2739 171.48C63.0872 171.933 63.7206 172.573 64.1739 173.4C64.6272 174.213 64.8539 175.153 64.8539 176.22ZM62.4739 175.5C62.4606 174.66 62.1606 173.987 61.5739 173.48C60.9872 172.973 60.2606 172.72 59.3939 172.72C58.6072 172.72 57.9339 172.973 57.3739 173.48C56.8139 173.973 56.4806 174.647 56.3739 175.5H62.4739ZM61.4939 168.02L57.0739 170.2V168.52L61.4939 166.08V168.02ZM69.7577 172.84V178.94C69.7577 179.353 69.851 179.653 70.0377 179.84C70.2377 180.013 70.571 180.1 71.0377 180.1H72.4377V182H70.6377C69.611 182 68.8243 181.76 68.2777 181.28C67.731 180.8 67.4577 180.02 67.4577 178.94V172.84H66.1577V170.98H67.4577V168.24H69.7577V170.98H72.4377V172.84H69.7577ZM75.6991 169.52C75.2857 169.52 74.9391 169.38 74.6591 169.1C74.3791 168.82 74.2391 168.473 74.2391 168.06C74.2391 167.647 74.3791 167.3 74.6591 167.02C74.9391 166.74 75.2857 166.6 75.6991 166.6C76.0991 166.6 76.4391 166.74 76.7191 167.02C76.9991 167.3 77.1391 167.647 77.1391 168.06C77.1391 168.473 76.9991 168.82 76.7191 169.1C76.4391 169.38 76.0991 169.52 75.6991 169.52ZM76.8191 170.98V182H74.5391V170.98H76.8191ZM79.0525 176.48C79.0525 175.347 79.2792 174.353 79.7325 173.5C80.1992 172.633 80.8392 171.967 81.6525 171.5C82.4658 171.033 83.3992 170.8 84.4525 170.8C85.7858 170.8 86.8858 171.12 87.7525 171.76C88.6325 172.387 89.2258 173.287 89.5325 174.46H87.0725C86.8725 173.913 86.5525 173.487 86.1125 173.18C85.6725 172.873 85.1192 172.72 84.4525 172.72C83.5192 172.72 82.7725 173.053 82.2125 173.72C81.6658 174.373 81.3925 175.293 81.3925 176.48C81.3925 177.667 81.6658 178.593 82.2125 179.26C82.7725 179.927 83.5192 180.26 84.4525 180.26C85.7725 180.26 86.6458 179.68 87.0725 178.52H89.5325C89.2125 179.64 88.6125 180.533 87.7325 181.2C86.8525 181.853 85.7592 182.18 84.4525 182.18C83.3992 182.18 82.4658 181.947 81.6525 181.48C80.8392 181 80.1992 180.333 79.7325 179.48C79.2792 178.613 79.0525 177.613 79.0525 176.48ZM91.0447 176.44C91.0447 175.333 91.2714 174.353 91.7247 173.5C92.1914 172.647 92.818 171.987 93.6047 171.52C94.4047 171.04 95.2847 170.8 96.2447 170.8C97.1114 170.8 97.8647 170.973 98.5047 171.32C99.158 171.653 99.678 172.073 100.065 172.58V170.98H102.365V182H100.065V180.36C99.678 180.88 99.1514 181.313 98.4847 181.66C97.818 182.007 97.058 182.18 96.2047 182.18C95.258 182.18 94.3914 181.94 93.6047 181.46C92.818 180.967 92.1914 180.287 91.7247 179.42C91.2714 178.54 91.0447 177.547 91.0447 176.44ZM100.065 176.48C100.065 175.72 99.9047 175.06 99.5847 174.5C99.278 173.94 98.8714 173.513 98.3647 173.22C97.858 172.927 97.3114 172.78 96.7247 172.78C96.138 172.78 95.5914 172.927 95.0847 173.22C94.578 173.5 94.1647 173.92 93.8447 174.48C93.538 175.027 93.3847 175.68 93.3847 176.44C93.3847 177.2 93.538 177.867 93.8447 178.44C94.1647 179.013 94.578 179.453 95.0847 179.76C95.6047 180.053 96.1514 180.2 96.7247 180.2C97.3114 180.2 97.858 180.053 98.3647 179.76C98.8714 179.467 99.278 179.04 99.5847 178.48C99.9047 177.907 100.065 177.24 100.065 176.48ZM120.655 176.22C120.655 176.633 120.628 177.007 120.575 177.34H112.155C112.221 178.22 112.548 178.927 113.135 179.46C113.721 179.993 114.441 180.26 115.295 180.26C116.521 180.26 117.388 179.747 117.895 178.72H120.355C120.021 179.733 119.415 180.567 118.535 181.22C117.668 181.86 116.588 182.18 115.295 182.18C114.241 182.18 113.295 181.947 112.455 181.48C111.628 181 110.975 180.333 110.495 179.48C110.028 178.613 109.795 177.613 109.795 176.48C109.795 175.347 110.021 174.353 110.475 173.5C110.941 172.633 111.588 171.967 112.415 171.5C113.255 171.033 114.215 170.8 115.295 170.8C116.335 170.8 117.261 171.027 118.075 171.48C118.888 171.933 119.521 172.573 119.975 173.4C120.428 174.213 120.655 175.153 120.655 176.22ZM118.275 175.5C118.261 174.66 117.961 173.987 117.375 173.48C116.788 172.973 116.061 172.72 115.195 172.72C114.408 172.72 113.735 172.973 113.175 173.48C112.615 173.973 112.281 174.647 112.175 175.5H118.275ZM138.194 176.22C138.194 176.633 138.167 177.007 138.114 177.34H129.694C129.76 178.22 130.087 178.927 130.674 179.46C131.26 179.993 131.98 180.26 132.834 180.26C134.06 180.26 134.927 179.747 135.434 178.72H137.894C137.56 179.733 136.954 180.567 136.074 181.22C135.207 181.86 134.127 182.18 132.834 182.18C131.78 182.18 130.834 181.947 129.994 181.48C129.167 181 128.514 180.333 128.034 179.48C127.567 178.613 127.334 177.613 127.334 176.48C127.334 175.347 127.56 174.353 128.014 173.5C128.48 172.633 129.127 171.967 129.954 171.5C130.794 171.033 131.754 170.8 132.834 170.8C133.874 170.8 134.8 171.027 135.614 171.48C136.427 171.933 137.06 172.573 137.514 173.4C137.967 174.213 138.194 175.153 138.194 176.22ZM135.814 175.5C135.8 174.66 135.5 173.987 134.914 173.48C134.327 172.973 133.6 172.72 132.734 172.72C131.947 172.72 131.274 172.973 130.714 173.48C130.154 173.973 129.82 174.647 129.714 175.5H135.814ZM145.058 172.84H143.018V182H140.718V172.84H139.418V170.98H140.718V170.2C140.718 168.933 141.051 168.013 141.718 167.44C142.398 166.853 143.458 166.56 144.898 166.56V168.46C144.204 168.46 143.718 168.593 143.438 168.86C143.158 169.113 143.018 169.56 143.018 170.2V170.98H145.058V172.84ZM157.178 176.22C157.178 176.633 157.151 177.007 157.098 177.34H148.678C148.745 178.22 149.071 178.927 149.658 179.46C150.245 179.993 150.965 180.26 151.818 180.26C153.045 180.26 153.911 179.747 154.418 178.72H156.878C156.545 179.733 155.938 180.567 155.058 181.22C154.191 181.86 153.111 182.18 151.818 182.18C150.765 182.18 149.818 181.947 148.978 181.48C148.151 181 147.498 180.333 147.018 179.48C146.551 178.613 146.318 177.613 146.318 176.48C146.318 175.347 146.545 174.353 146.998 173.5C147.465 172.633 148.111 171.967 148.938 171.5C149.778 171.033 150.738 170.8 151.818 170.8C152.858 170.8 153.785 171.027 154.598 171.48C155.411 171.933 156.045 172.573 156.498 173.4C156.951 174.213 157.178 175.153 157.178 176.22ZM154.798 175.5C154.785 174.66 154.485 173.987 153.898 173.48C153.311 172.973 152.585 172.72 151.718 172.72C150.931 172.72 150.258 172.973 149.698 173.48C149.138 173.973 148.805 174.647 148.698 175.5H154.798ZM160.582 169.52C160.169 169.52 159.822 169.38 159.542 169.1C159.262 168.82 159.122 168.473 159.122 168.06C159.122 167.647 159.262 167.3 159.542 167.02C159.822 166.74 160.169 166.6 160.582 166.6C160.982 166.6 161.322 166.74 161.602 167.02C161.882 167.3 162.022 167.647 162.022 168.06C162.022 168.473 161.882 168.82 161.602 169.1C161.322 169.38 160.982 169.52 160.582 169.52ZM161.702 170.98V182H159.422V170.98H161.702ZM167.355 172.84V178.94C167.355 179.353 167.449 179.653 167.635 179.84C167.835 180.013 168.169 180.1 168.635 180.1H170.035V182H168.235C167.209 182 166.422 181.76 165.875 181.28C165.329 180.8 165.055 180.02 165.055 178.94V172.84H163.755V170.98H165.055V168.24H167.355V170.98H170.035V172.84H167.355ZM176.917 182.18C175.877 182.18 174.937 181.947 174.097 181.48C173.257 181 172.597 180.333 172.117 179.48C171.637 178.613 171.397 177.613 171.397 176.48C171.397 175.36 171.643 174.367 172.137 173.5C172.63 172.633 173.303 171.967 174.157 171.5C175.01 171.033 175.963 170.8 177.017 170.8C178.07 170.8 179.023 171.033 179.877 171.5C180.73 171.967 181.403 172.633 181.897 173.5C182.39 174.367 182.637 175.36 182.637 176.48C182.637 177.6 182.383 178.593 181.877 179.46C181.37 180.327 180.677 181 179.797 181.48C178.93 181.947 177.97 182.18 176.917 182.18ZM176.917 180.2C177.503 180.2 178.05 180.06 178.557 179.78C179.077 179.5 179.497 179.08 179.817 178.52C180.137 177.96 180.297 177.28 180.297 176.48C180.297 175.68 180.143 175.007 179.837 174.46C179.53 173.9 179.123 173.48 178.617 173.2C178.11 172.92 177.563 172.78 176.977 172.78C176.39 172.78 175.843 172.92 175.337 173.2C174.843 173.48 174.45 173.9 174.157 174.46C173.863 175.007 173.717 175.68 173.717 176.48C173.717 177.667 174.017 178.587 174.617 179.24C175.23 179.88 175.997 180.2 176.917 180.2ZM188.891 182.18C188.024 182.18 187.244 182.027 186.551 181.72C185.871 181.4 185.331 180.973 184.931 180.44C184.531 179.893 184.317 179.287 184.291 178.62H186.651C186.691 179.087 186.911 179.48 187.311 179.8C187.724 180.107 188.237 180.26 188.851 180.26C189.491 180.26 189.984 180.14 190.331 179.9C190.691 179.647 190.871 179.327 190.871 178.94C190.871 178.527 190.671 178.22 190.271 178.02C189.884 177.82 189.264 177.6 188.411 177.36C187.584 177.133 186.911 176.913 186.391 176.7C185.871 176.487 185.417 176.16 185.031 175.72C184.657 175.28 184.471 174.7 184.471 173.98C184.471 173.393 184.644 172.86 184.991 172.38C185.337 171.887 185.831 171.5 186.471 171.22C187.124 170.94 187.871 170.8 188.711 170.8C189.964 170.8 190.971 171.12 191.731 171.76C192.504 172.387 192.917 173.247 192.971 174.34H190.691C190.651 173.847 190.451 173.453 190.091 173.16C189.731 172.867 189.244 172.72 188.631 172.72C188.031 172.72 187.571 172.833 187.251 173.06C186.931 173.287 186.771 173.587 186.771 173.96C186.771 174.253 186.877 174.5 187.091 174.7C187.304 174.9 187.564 175.06 187.871 175.18C188.177 175.287 188.631 175.427 189.231 175.6C190.031 175.813 190.684 176.033 191.191 176.26C191.711 176.473 192.157 176.793 192.531 177.22C192.904 177.647 193.097 178.213 193.111 178.92C193.111 179.547 192.937 180.107 192.591 180.6C192.244 181.093 191.751 181.48 191.111 181.76C190.484 182.04 189.744 182.18 188.891 182.18ZM200.01 176.44C200.01 175.333 200.236 174.353 200.69 173.5C201.156 172.647 201.783 171.987 202.57 171.52C203.37 171.04 204.256 170.8 205.23 170.8C205.95 170.8 206.656 170.96 207.35 171.28C208.056 171.587 208.616 172 209.03 172.52V167.2H211.33V182H209.03V180.34C208.656 180.873 208.136 181.313 207.47 181.66C206.816 182.007 206.063 182.18 205.21 182.18C204.25 182.18 203.37 181.94 202.57 181.46C201.783 180.967 201.156 180.287 200.69 179.42C200.236 178.54 200.01 177.547 200.01 176.44ZM209.03 176.48C209.03 175.72 208.87 175.06 208.55 174.5C208.243 173.94 207.836 173.513 207.33 173.22C206.823 172.927 206.276 172.78 205.69 172.78C205.103 172.78 204.556 172.927 204.05 173.22C203.543 173.5 203.13 173.92 202.81 174.48C202.503 175.027 202.35 175.68 202.35 176.44C202.35 177.2 202.503 177.867 202.81 178.44C203.13 179.013 203.543 179.453 204.05 179.76C204.57 180.053 205.116 180.2 205.69 180.2C206.276 180.2 206.823 180.053 207.33 179.76C207.836 179.467 208.243 179.04 208.55 178.48C208.87 177.907 209.03 177.24 209.03 176.48ZM224.424 176.22C224.424 176.633 224.398 177.007 224.344 177.34H215.924C215.991 178.22 216.318 178.927 216.904 179.46C217.491 179.993 218.211 180.26 219.064 180.26C220.291 180.26 221.158 179.747 221.664 178.72H224.124C223.791 179.733 223.184 180.567 222.304 181.22C221.438 181.86 220.358 182.18 219.064 182.18C218.011 182.18 217.064 181.947 216.224 181.48C215.398 181 214.744 180.333 214.264 179.48C213.798 178.613 213.564 177.613 213.564 176.48C213.564 175.347 213.791 174.353 214.244 173.5C214.711 172.633 215.358 171.967 216.184 171.5C217.024 171.033 217.984 170.8 219.064 170.8C220.104 170.8 221.031 171.027 221.844 171.48C222.658 171.933 223.291 172.573 223.744 173.4C224.198 174.213 224.424 175.153 224.424 176.22ZM222.044 175.5C222.031 174.66 221.731 173.987 221.144 173.48C220.558 172.973 219.831 172.72 218.964 172.72C218.178 172.72 217.504 172.973 216.944 173.48C216.384 173.973 216.051 174.647 215.944 175.5H222.044ZM23.74 197.44C23.74 196.333 23.9667 195.353 24.42 194.5C24.8867 193.647 25.5133 192.987 26.3 192.52C27.1 192.04 27.9867 191.8 28.96 191.8C29.68 191.8 30.3867 191.96 31.08 192.28C31.7867 192.587 32.3467 193 32.76 193.52V188.2H35.06V203H32.76V201.34C32.3867 201.873 31.8667 202.313 31.2 202.66C30.5467 203.007 29.7933 203.18 28.94 203.18C27.98 203.18 27.1 202.94 26.3 202.46C25.5133 201.967 24.8867 201.287 24.42 200.42C23.9667 199.54 23.74 198.547 23.74 197.44ZM32.76 197.48C32.76 196.72 32.6 196.06 32.28 195.5C31.9733 194.94 31.5667 194.513 31.06 194.22C30.5533 193.927 30.0067 193.78 29.42 193.78C28.8333 193.78 28.2867 193.927 27.78 194.22C27.2733 194.5 26.86 194.92 26.54 195.48C26.2333 196.027 26.08 196.68 26.08 197.44C26.08 198.2 26.2333 198.867 26.54 199.44C26.86 200.013 27.2733 200.453 27.78 200.76C28.3 201.053 28.8467 201.2 29.42 201.2C30.0067 201.2 30.5533 201.053 31.06 200.76C31.5667 200.467 31.9733 200.04 32.28 199.48C32.6 198.907 32.76 198.24 32.76 197.48ZM39.2147 190.52C38.8014 190.52 38.4547 190.38 38.1747 190.1C37.8947 189.82 37.7547 189.473 37.7547 189.06C37.7547 188.647 37.8947 188.3 38.1747 188.02C38.4547 187.74 38.8014 187.6 39.2147 187.6C39.6147 187.6 39.9547 187.74 40.2347 188.02C40.5147 188.3 40.6547 188.647 40.6547 189.06C40.6547 189.473 40.5147 189.82 40.2347 190.1C39.9547 190.38 39.6147 190.52 39.2147 190.52ZM40.3347 191.98V203H38.0547V191.98H40.3347ZM47.3281 203.18C46.4615 203.18 45.6815 203.027 44.9881 202.72C44.3081 202.4 43.7681 201.973 43.3681 201.44C42.9681 200.893 42.7548 200.287 42.7281 199.62H45.0881C45.1281 200.087 45.3481 200.48 45.7481 200.8C46.1615 201.107 46.6748 201.26 47.2881 201.26C47.9281 201.26 48.4215 201.14 48.7681 200.9C49.1281 200.647 49.3081 200.327 49.3081 199.94C49.3081 199.527 49.1081 199.22 48.7081 199.02C48.3215 198.82 47.7015 198.6 46.8481 198.36C46.0215 198.133 45.3481 197.913 44.8281 197.7C44.3081 197.487 43.8548 197.16 43.4681 196.72C43.0948 196.28 42.9081 195.7 42.9081 194.98C42.9081 194.393 43.0815 193.86 43.4281 193.38C43.7748 192.887 44.2681 192.5 44.9081 192.22C45.5615 191.94 46.3081 191.8 47.1481 191.8C48.4015 191.8 49.4081 192.12 50.1681 192.76C50.9415 193.387 51.3548 194.247 51.4081 195.34H49.1281C49.0881 194.847 48.8881 194.453 48.5281 194.16C48.1681 193.867 47.6815 193.72 47.0681 193.72C46.4681 193.72 46.0081 193.833 45.6881 194.06C45.3681 194.287 45.2081 194.587 45.2081 194.96C45.2081 195.253 45.3148 195.5 45.5281 195.7C45.7415 195.9 46.0015 196.06 46.3081 196.18C46.6148 196.287 47.0681 196.427 47.6681 196.6C48.4681 196.813 49.1215 197.033 49.6281 197.26C50.1481 197.473 50.5948 197.793 50.9681 198.22C51.3415 198.647 51.5348 199.213 51.5481 199.92C51.5481 200.547 51.3748 201.107 51.0281 201.6C50.6815 202.093 50.1881 202.48 49.5481 202.76C48.9215 203.04 48.1815 203.18 47.3281 203.18ZM56.6717 193.84V199.94C56.6717 200.353 56.7651 200.653 56.9517 200.84C57.1517 201.013 57.4851 201.1 57.9517 201.1H59.3517V203H57.5517C56.5251 203 55.7384 202.76 55.1917 202.28C54.6451 201.8 54.3717 201.02 54.3717 199.94V193.84H53.0717V191.98H54.3717V189.24H56.6717V191.98H59.3517V193.84H56.6717ZM66.2331 203.18C65.1931 203.18 64.2531 202.947 63.4131 202.48C62.5731 202 61.9131 201.333 61.4331 200.48C60.9531 199.613 60.7131 198.613 60.7131 197.48C60.7131 196.36 60.9598 195.367 61.4531 194.5C61.9465 193.633 62.6198 192.967 63.4731 192.5C64.3265 192.033 65.2798 191.8 66.3331 191.8C67.3865 191.8 68.3398 192.033 69.1931 192.5C70.0465 192.967 70.7198 193.633 71.2131 194.5C71.7065 195.367 71.9531 196.36 71.9531 197.48C71.9531 198.6 71.6998 199.593 71.1931 200.46C70.6865 201.327 69.9931 202 69.1131 202.48C68.2465 202.947 67.2865 203.18 66.2331 203.18ZM66.2331 201.2C66.8198 201.2 67.3665 201.06 67.8731 200.78C68.3931 200.5 68.8131 200.08 69.1331 199.52C69.4531 198.96 69.6131 198.28 69.6131 197.48C69.6131 196.68 69.4598 196.007 69.1531 195.46C68.8465 194.9 68.4398 194.48 67.9331 194.2C67.4265 193.92 66.8798 193.78 66.2931 193.78C65.7065 193.78 65.1598 193.92 64.6531 194.2C64.1598 194.48 63.7665 194.9 63.4731 195.46C63.1798 196.007 63.0331 196.68 63.0331 197.48C63.0331 198.667 63.3331 199.587 63.9331 200.24C64.5465 200.88 65.3131 201.2 66.2331 201.2ZM76.487 193.58C76.8204 193.02 77.2604 192.587 77.807 192.28C78.367 191.96 79.027 191.8 79.787 191.8V194.16H79.207C78.3137 194.16 77.6337 194.387 77.167 194.84C76.7137 195.293 76.487 196.08 76.487 197.2V203H74.207V191.98H76.487V193.58ZM86.5228 201.26C87.8428 201.26 88.7161 200.68 89.1428 199.52H91.6028C91.3095 200.533 90.7828 201.367 90.0228 202.02C89.2761 202.66 88.3361 203.033 87.2028 203.14V203.96C87.9761 203.96 88.6028 204.14 89.0828 204.5C89.5628 204.873 89.8028 205.393 89.8028 206.06C89.8028 206.727 89.5628 207.253 89.0828 207.64C88.6028 208.04 87.9961 208.24 87.2628 208.24H84.6228V206.8H86.8028C87.1761 206.8 87.4561 206.747 87.6428 206.64C87.8295 206.533 87.9228 206.34 87.9228 206.06C87.9228 205.78 87.8295 205.587 87.6428 205.48C87.4561 205.373 87.1761 205.32 86.8028 205.32H85.7028V203.12C84.7961 203.013 83.9961 202.713 83.3028 202.22C82.6095 201.713 82.0695 201.06 81.6828 200.26C81.3095 199.447 81.1228 198.52 81.1228 197.48C81.1228 196.347 81.3495 195.353 81.8028 194.5C82.2695 193.633 82.9095 192.967 83.7228 192.5C84.5361 192.033 85.4695 191.8 86.5228 191.8C87.8561 191.8 88.9561 192.12 89.8228 192.76C90.7028 193.387 91.2961 194.287 91.6028 195.46H89.1428C88.9428 194.913 88.6228 194.487 88.1828 194.18C87.7428 193.873 87.1895 193.72 86.5228 193.72C85.5895 193.72 84.8428 194.053 84.2828 194.72C83.7361 195.373 83.4628 196.293 83.4628 197.48C83.4628 198.667 83.7361 199.593 84.2828 200.26C84.8428 200.927 85.5895 201.26 86.5228 201.26ZM93.115 197.44C93.115 196.333 93.3417 195.353 93.795 194.5C94.2617 193.647 94.8883 192.987 95.675 192.52C96.475 192.04 97.355 191.8 98.315 191.8C99.1817 191.8 99.935 191.973 100.575 192.32C101.228 192.653 101.748 193.073 102.135 193.58V191.98H104.435V203H102.135V201.36C101.748 201.88 101.222 202.313 100.555 202.66C99.8883 203.007 99.1283 203.18 98.275 203.18C97.3283 203.18 96.4617 202.94 95.675 202.46C94.8883 201.967 94.2617 201.287 93.795 200.42C93.3417 199.54 93.115 198.547 93.115 197.44ZM102.135 197.48C102.135 196.72 101.975 196.06 101.655 195.5C101.348 194.94 100.942 194.513 100.435 194.22C99.9283 193.927 99.3817 193.78 98.795 193.78C98.2083 193.78 97.6617 193.927 97.155 194.22C96.6483 194.5 96.235 194.92 95.915 195.48C95.6083 196.027 95.455 196.68 95.455 197.44C95.455 198.2 95.6083 198.867 95.915 199.44C96.235 200.013 96.6483 200.453 97.155 200.76C97.675 201.053 98.2217 201.2 98.795 201.2C99.3817 201.2 99.9283 201.053 100.435 200.76C100.942 200.467 101.348 200.04 101.655 199.48C101.975 198.907 102.135 198.24 102.135 197.48ZM95.895 190.84C96.0017 190.067 96.255 189.487 96.655 189.1C97.055 188.7 97.555 188.5 98.155 188.5C98.4083 188.5 98.6283 188.54 98.815 188.62C99.0017 188.7 99.2283 188.82 99.495 188.98C99.695 189.113 99.8617 189.213 99.995 189.28C100.142 189.347 100.302 189.38 100.475 189.38C100.702 189.38 100.888 189.313 101.035 189.18C101.195 189.033 101.295 188.82 101.335 188.54H102.615C102.508 189.313 102.255 189.9 101.855 190.3C101.455 190.687 100.955 190.88 100.355 190.88C100.102 190.88 99.875 190.84 99.675 190.76C99.475 190.667 99.255 190.54 99.015 190.38C98.775 190.233 98.5883 190.133 98.455 190.08C98.335 190.013 98.195 189.98 98.035 189.98C97.8083 189.98 97.615 190.053 97.455 190.2C97.3083 190.347 97.215 190.56 97.175 190.84H95.895ZM112.21 203.18C111.17 203.18 110.23 202.947 109.39 202.48C108.55 202 107.89 201.333 107.41 200.48C106.93 199.613 106.69 198.613 106.69 197.48C106.69 196.36 106.936 195.367 107.43 194.5C107.923 193.633 108.596 192.967 109.45 192.5C110.303 192.033 111.256 191.8 112.31 191.8C113.363 191.8 114.316 192.033 115.17 192.5C116.023 192.967 116.696 193.633 117.19 194.5C117.683 195.367 117.93 196.36 117.93 197.48C117.93 198.6 117.676 199.593 117.17 200.46C116.663 201.327 115.97 202 115.09 202.48C114.223 202.947 113.263 203.18 112.21 203.18ZM112.21 201.2C112.796 201.2 113.343 201.06 113.85 200.78C114.37 200.5 114.79 200.08 115.11 199.52C115.43 198.96 115.59 198.28 115.59 197.48C115.59 196.68 115.436 196.007 115.13 195.46C114.823 194.9 114.416 194.48 113.91 194.2C113.403 193.92 112.856 193.78 112.27 193.78C111.683 193.78 111.136 193.92 110.63 194.2C110.136 194.48 109.743 194.9 109.45 195.46C109.156 196.007 109.01 196.68 109.01 197.48C109.01 198.667 109.31 199.587 109.91 200.24C110.523 200.88 111.29 201.2 112.21 201.2ZM121.104 203.14C120.69 203.14 120.344 203 120.064 202.72C119.784 202.44 119.644 202.093 119.644 201.68C119.644 201.267 119.784 200.92 120.064 200.64C120.344 200.36 120.69 200.22 121.104 200.22C121.504 200.22 121.844 200.36 122.124 200.64C122.404 200.92 122.544 201.267 122.544 201.68C122.544 202.093 122.404 202.44 122.124 202.72C121.844 203 121.504 203.14 121.104 203.14Z" fill="white"/>
<mask id="path-2-outside-1_1037_108" maskUnits="userSpaceOnUse" x="280" y="170" width="195" height="109" fill="black">
<rect fill="white" x="280" y="170" width="195" height="109"/>
<path d="M335.625 218.25C346.375 218.25 358.438 229.062 358.438 244.25C358.438 260.188 345.062 275 324.875 275H281.875V174.25H315C333.25 174.25 346.625 186.562 346.625 200.438C346.625 210.812 339.75 218.25 335.625 218.25ZM324.188 205.25C324.188 200.375 319.938 197.5 314.188 197.5H307.625V213.312H314C319.812 213.312 324.188 210.438 324.188 205.25ZM320.812 250.688C326.938 250.688 332.812 247.688 332.812 241.062C332.812 235.188 328.562 231.625 321 231.625L307.625 231.562V250.688H320.812ZM472.625 217.125C473.125 220.5 473.438 223.75 473.438 226.938C473.438 257.562 450.312 277.375 421.688 277.375C389.688 277.375 365.5 253.5 365.5 224.75C365.5 196 389.75 171.812 421 171.812C433.812 172 448.625 177.438 456.938 185.125L442.125 205.438C436.5 200.188 428.438 196.812 421 196.812C406 196.812 392.812 209.125 392.812 224.688C392.812 238.812 404.125 252.562 422.75 252.562C434.938 252.562 443.625 246.688 444 237.062H420.938V217.125H472.625Z"/>
</mask>
<path d="M281.875 275H280.875V276H281.875V275ZM281.875 174.25V173.25H280.875V174.25H281.875ZM307.625 197.5V196.5H306.625V197.5H307.625ZM307.625 213.312H306.625V214.312H307.625V213.312ZM321 231.625L320.995 232.625H321V231.625ZM307.625 231.562L307.63 230.563L306.625 230.558V231.562H307.625ZM307.625 250.688H306.625V251.688H307.625V250.688ZM335.625 218.25V219.25C345.772 219.25 357.438 229.563 357.438 244.25H358.438H359.438C359.438 228.562 346.978 217.25 335.625 217.25V218.25ZM358.438 244.25H357.438C357.438 259.607 344.538 274 324.875 274V275V276C345.587 276 359.438 260.768 359.438 244.25H358.438ZM324.875 275V274H281.875V275V276H324.875V275ZM281.875 275H282.875V174.25H281.875H280.875V275H281.875ZM281.875 174.25V175.25H315V174.25V173.25H281.875V174.25ZM315 174.25V175.25C332.85 175.25 345.625 187.255 345.625 200.438H346.625H347.625C347.625 185.87 333.65 173.25 315 173.25V174.25ZM346.625 200.438H345.625C345.625 205.405 343.978 209.658 341.856 212.657C340.794 214.157 339.626 215.324 338.51 216.107C337.377 216.902 336.374 217.25 335.625 217.25V218.25V219.25C336.938 219.25 338.341 218.669 339.658 217.744C340.991 216.809 342.316 215.468 343.488 213.812C345.834 210.498 347.625 205.845 347.625 200.438H346.625ZM324.188 205.25H325.188C325.188 202.486 323.967 200.255 321.941 198.745C319.944 197.256 317.216 196.5 314.188 196.5V197.5V198.5C316.909 198.5 319.181 199.182 320.746 200.349C322.283 201.495 323.188 203.139 323.188 205.25H324.188ZM314.188 197.5V196.5H307.625V197.5V198.5H314.188V197.5ZM307.625 197.5H306.625V213.312H307.625H308.625V197.5H307.625ZM307.625 213.312V214.312H314V213.312V212.312H307.625V213.312ZM314 213.312V214.312C317.057 214.312 319.834 213.558 321.874 212.026C323.944 210.471 325.188 208.161 325.188 205.25H324.188H323.188C323.188 207.527 322.244 209.247 320.673 210.427C319.072 211.629 316.755 212.312 314 212.312V213.312ZM320.812 250.688V251.688C324.02 251.688 327.239 250.905 329.686 249.176C332.171 247.421 333.812 244.717 333.812 241.062H332.812H331.812C331.812 244.033 330.516 246.142 328.532 247.543C326.511 248.97 323.73 249.688 320.812 249.688V250.688ZM332.812 241.062H333.812C333.812 237.863 332.643 235.202 330.371 233.363C328.128 231.548 324.924 230.625 321 230.625V231.625V232.625C324.639 232.625 327.341 233.483 329.113 234.918C330.857 236.329 331.812 238.387 331.812 241.062H332.812ZM321 231.625L321.005 230.625L307.63 230.563L307.625 231.562L307.62 232.562L320.995 232.625L321 231.625ZM307.625 231.562H306.625V250.688H307.625H308.625V231.562H307.625ZM307.625 250.688V251.688H320.812V250.688V249.688H307.625V250.688ZM472.625 217.125L473.614 216.978L473.488 216.125H472.625V217.125ZM421 171.812L421.015 170.813L421.007 170.812H421V171.812ZM456.938 185.125L457.745 185.714L458.27 184.995L457.616 184.391L456.938 185.125ZM442.125 205.438L441.443 206.169L442.268 206.939L442.933 206.027L442.125 205.438ZM444 237.062L444.999 237.101L445.04 236.062H444V237.062ZM420.938 237.062H419.938V238.062H420.938V237.062ZM420.938 217.125V216.125H419.938V217.125H420.938ZM472.625 217.125L471.636 217.272C472.131 220.616 472.438 223.814 472.438 226.938H473.438H474.438C474.438 223.686 474.119 220.384 473.614 216.978L472.625 217.125ZM473.438 226.938H472.438C472.438 256.951 449.821 276.375 421.688 276.375V277.375V278.375C450.804 278.375 474.438 258.174 474.438 226.938H473.438ZM421.688 277.375V276.375C390.193 276.375 366.5 252.902 366.5 224.75H365.5H364.5C364.5 254.098 389.182 278.375 421.688 278.375V277.375ZM365.5 224.75H366.5C366.5 196.584 390.27 172.812 421 172.812V171.812V170.812C389.23 170.812 364.5 195.416 364.5 224.75H365.5ZM421 171.812L420.985 172.812C433.591 172.997 448.154 178.364 456.259 185.859L456.938 185.125L457.616 184.391C449.096 176.511 434.034 171.003 421.015 170.813L421 171.812ZM456.938 185.125L456.13 184.536L441.317 204.848L442.125 205.438L442.933 206.027L457.745 185.714L456.938 185.125ZM442.125 205.438L442.807 204.706C437.013 199.298 428.711 195.812 421 195.812V196.812V197.812C428.164 197.812 435.987 201.077 441.443 206.169L442.125 205.438ZM421 196.812V195.812C405.475 195.812 391.812 208.545 391.812 224.688H392.812H393.812C393.812 209.705 406.525 197.812 421 197.812V196.812ZM392.812 224.688H391.812C391.812 239.356 403.564 253.562 422.75 253.562V252.562V251.562C404.686 251.562 393.812 238.269 393.812 224.688H392.812ZM422.75 252.562V253.562C428.992 253.562 434.431 252.059 438.386 249.236C442.365 246.395 444.799 242.241 444.999 237.101L444 237.062L443.001 237.024C442.826 241.509 440.729 245.105 437.224 247.608C433.694 250.128 428.695 251.562 422.75 251.562V252.562ZM444 237.062V236.062H420.938V237.062V238.062H444V237.062ZM420.938 237.062H421.938V217.125H420.938H419.938V237.062H420.938ZM420.938 217.125V218.125H472.625V217.125V216.125H420.938V217.125Z" fill="url(#paint1_linear_1037_108)" mask="url(#path-2-outside-1_1037_108)"/>
</g>
<defs>
<radialGradient id="paint0_radial_1037_108" cx="0" cy="0" r="1" gradientUnits="userSpaceOnUse" gradientTransform="translate(173.5 158.5) rotate(90) scale(127.5 150.5)">
<stop stop-color="#051B20"/>
<stop offset="1" stop-color="white"/>
</radialGradient>
<linearGradient id="paint1_linear_1037_108" x1="284.5" y1="164.5" x2="375.5" y2="364" gradientUnits="userSpaceOnUse">
<stop offset="0.0520473" stop-color="white" stop-opacity="0"/>
<stop offset="0.125" stop-color="white" stop-opacity="0"/>
<stop offset="0.740385" stop-color="#EDF5FF" stop-opacity="0.62"/>
</linearGradient>
<clipPath id="clip0_1037_108">
<rect width="429" height="286" fill="white"/>
</clipPath>
</defs>
</svg>
