<svg width="429" height="286" viewBox="0 0 429 286" fill="none" xmlns="http://www.w3.org/2000/svg">
<g clip-path="url(#clip0_1004_14)">
<rect width="429" height="286" fill="white"/>
<path d="M54.388 82.248H62.452V87H48.232V61.728H54.388V82.248ZM81.1203 82.536H71.6883L70.1763 87H63.7323L72.8763 61.728H80.0043L89.1483 87H82.6323L81.1203 82.536ZM79.5363 77.784L76.4043 68.532L73.3083 77.784H79.5363ZM114.539 87H108.383L98.0872 71.412V87H91.9312V61.728H98.0872L108.383 77.388V61.728H114.539V87ZM128.47 61.728C131.134 61.728 133.462 62.256 135.454 63.312C137.446 64.368 138.982 65.856 140.062 67.776C141.166 69.672 141.718 71.868 141.718 74.364C141.718 76.836 141.166 79.032 140.062 80.952C138.982 82.872 137.434 84.36 135.418 85.416C133.426 86.472 131.11 87 128.47 87H119.002V61.728H128.47ZM128.074 81.672C130.402 81.672 132.214 81.036 133.51 79.764C134.806 78.492 135.454 76.692 135.454 74.364C135.454 72.036 134.806 70.224 133.51 68.928C132.214 67.632 130.402 66.984 128.074 66.984H125.158V81.672H128.074ZM151.314 61.728V87H145.158V61.728H151.314ZM178.383 87H172.227L161.931 71.412V87H155.775V61.728H161.931L172.227 77.388V61.728H178.383V87ZM199.621 69.72C199.165 68.88 198.505 68.244 197.641 67.812C196.801 67.356 195.805 67.128 194.653 67.128C192.661 67.128 191.065 67.788 189.865 69.108C188.665 70.404 188.065 72.144 188.065 74.328C188.065 76.656 188.689 78.48 189.937 79.8C191.209 81.096 192.949 81.744 195.157 81.744C196.669 81.744 197.941 81.36 198.973 80.592C200.029 79.824 200.797 78.72 201.277 77.28H193.465V72.744H206.857V78.468C206.401 80.004 205.621 81.432 204.517 82.752C203.437 84.072 202.057 85.14 200.377 85.956C198.697 86.772 196.801 87.18 194.689 87.18C192.193 87.18 189.961 86.64 187.993 85.56C186.049 84.456 184.525 82.932 183.421 80.988C182.341 79.044 181.801 76.824 181.801 74.328C181.801 71.832 182.341 69.612 183.421 67.668C184.525 65.7 186.049 64.176 187.993 63.096C189.937 61.992 192.157 61.44 194.653 61.44C197.677 61.44 200.221 62.172 202.285 63.636C204.373 65.1 205.753 67.128 206.425 69.72H199.621ZM67.492 123.864C67.492 125.328 67.156 126.672 66.484 127.896C65.812 129.096 64.78 130.068 63.388 130.812C61.996 131.556 60.268 131.928 58.204 131.928H54.388V141H48.232V115.728H58.204C60.22 115.728 61.924 116.076 63.316 116.772C64.708 117.468 65.752 118.428 66.448 119.652C67.144 120.876 67.492 122.28 67.492 123.864ZM57.736 127.032C58.912 127.032 59.788 126.756 60.364 126.204C60.94 125.652 61.228 124.872 61.228 123.864C61.228 122.856 60.94 122.076 60.364 121.524C59.788 120.972 58.912 120.696 57.736 120.696H54.388V127.032H57.736ZM86.4288 136.536H76.9968L75.4848 141H69.0408L78.1848 115.728H85.3128L94.4568 141H87.9408L86.4288 136.536ZM84.8448 131.784L81.7128 122.532L78.6168 131.784H84.8448ZM114.016 123.72C113.56 122.88 112.9 122.244 112.036 121.812C111.196 121.356 110.2 121.128 109.048 121.128C107.056 121.128 105.46 121.788 104.26 123.108C103.06 124.404 102.46 126.144 102.46 128.328C102.46 130.656 103.084 132.48 104.332 133.8C105.604 135.096 107.344 135.744 109.552 135.744C111.064 135.744 112.336 135.36 113.368 134.592C114.424 133.824 115.192 132.72 115.672 131.28H107.86V126.744H121.252V132.468C120.796 134.004 120.016 135.432 118.912 136.752C117.832 138.072 116.452 139.14 114.772 139.956C113.092 140.772 111.196 141.18 109.084 141.18C106.588 141.18 104.356 140.64 102.388 139.56C100.444 138.456 98.9198 136.932 97.8158 134.988C96.7358 133.044 96.1958 130.824 96.1958 128.328C96.1958 125.832 96.7358 123.612 97.8158 121.668C98.9198 119.7 100.444 118.176 102.388 117.096C104.332 115.992 106.552 115.44 109.048 115.44C112.072 115.44 114.616 116.172 116.68 117.636C118.768 119.1 120.148 121.128 120.82 123.72H114.016ZM130.818 120.66V125.772H139.062V130.524H130.818V136.068H140.142V141H124.662V115.728H140.142V120.66H130.818Z" fill="black"/>
<path d="M371.5 -27V227" stroke="url(#paint0_linear_1004_14)"/>
<line x1="99" y1="233.5" x2="353" y2="233.5" stroke="url(#paint1_linear_1004_14)"/>
<path d="M358.75 232.133C360.264 232.133 362.227 233.695 362.227 236.225C362.227 238.549 360.557 241 357.314 241H351.367V225.258H355.664C358.457 225.258 360.234 227.309 360.234 229.428C360.234 231.098 359.131 232.133 358.75 232.133ZM355.859 228.334H354.521V231.41H355.801C356.553 231.41 357.285 230.766 357.285 229.848C357.285 228.959 356.592 228.334 355.859 228.334ZM357.021 237.914C358.047 237.914 359.141 237.211 359.141 236C359.141 235.092 358.516 234.184 357.012 234.184H354.521V237.914H357.021ZM379.043 232.162C379.092 232.621 379.121 233.061 379.121 233.49C379.121 238.432 375.713 241.312 371.611 241.312C366.973 241.312 363.32 237.641 363.32 233.148C363.32 228.646 366.992 224.936 371.494 224.936C373.535 224.955 375.713 225.893 377.256 227.396L375.498 230.023C374.268 228.822 372.861 228.139 371.455 228.139C369.014 228.139 366.543 230.209 366.543 233.148C366.543 235.883 368.672 238.129 371.748 238.129C373.994 238.129 375.605 236.977 375.713 235.082H371.641V232.162H379.043Z" fill="url(#paint2_linear_1004_14)"/>
</g>
<defs>
<linearGradient id="paint0_linear_1004_14" x1="363" y1="236.5" x2="367" y2="92" gradientUnits="userSpaceOnUse">
<stop stop-color="#0077FF"/>
<stop offset="1" stop-color="white"/>
</linearGradient>
<linearGradient id="paint1_linear_1004_14" x1="360.5" y1="238" x2="216" y2="234" gradientUnits="userSpaceOnUse">
<stop stop-color="#0077FF"/>
<stop offset="1" stop-color="white"/>
</linearGradient>
<linearGradient id="paint2_linear_1004_14" x1="350" y1="219" x2="367" y2="248" gradientUnits="userSpaceOnUse">
<stop stop-color="#00AAFF"/>
<stop offset="1" stop-color="#006FFF"/>
</linearGradient>
<clipPath id="clip0_1004_14">
<rect width="429" height="286" fill="white"/>
</clipPath>
</defs>
</svg>
