<svg width="429" height="286" viewBox="0 0 429 286" fill="none" xmlns="http://www.w3.org/2000/svg">
<g clip-path="url(#clip0_1003_2)">
<rect width="429" height="286" fill="white"/>
<path d="M57.376 87.252C55.528 87.252 53.872 86.952 52.408 86.352C50.944 85.752 49.768 84.864 48.88 83.688C48.016 82.512 47.56 81.096 47.512 79.44H54.064C54.16 80.376 54.484 81.096 55.036 81.6C55.588 82.08 56.308 82.32 57.196 82.32C58.108 82.32 58.828 82.116 59.356 81.708C59.884 81.276 60.148 80.688 60.148 79.944C60.148 79.32 59.932 78.804 59.5 78.396C59.092 77.988 58.576 77.652 57.952 77.388C57.352 77.124 56.488 76.824 55.36 76.488C53.728 75.984 52.396 75.48 51.364 74.976C50.332 74.472 49.444 73.728 48.7 72.744C47.956 71.76 47.584 70.476 47.584 68.892C47.584 66.54 48.436 64.704 50.14 63.384C51.844 62.04 54.064 61.368 56.8 61.368C59.584 61.368 61.828 62.04 63.532 63.384C65.236 64.704 66.148 66.552 66.268 68.928H59.608C59.56 68.112 59.26 67.476 58.708 67.02C58.156 66.54 57.448 66.3 56.584 66.3C55.84 66.3 55.24 66.504 54.784 66.912C54.328 67.296 54.1 67.86 54.1 68.604C54.1 69.42 54.484 70.056 55.252 70.512C56.02 70.968 57.22 71.46 58.852 71.988C60.484 72.54 61.804 73.068 62.812 73.572C63.844 74.076 64.732 74.808 65.476 75.768C66.22 76.728 66.592 77.964 66.592 79.476C66.592 80.916 66.22 82.224 65.476 83.4C64.756 84.576 63.7 85.512 62.308 86.208C60.916 86.904 59.272 87.252 57.376 87.252ZM82.3324 87.252C79.9564 87.252 77.7724 86.7 75.7804 85.596C73.8124 84.492 72.2404 82.956 71.0644 80.988C69.9124 78.996 69.3364 76.764 69.3364 74.292C69.3364 71.82 69.9124 69.6 71.0644 67.632C72.2404 65.664 73.8124 64.128 75.7804 63.024C77.7724 61.92 79.9564 61.368 82.3324 61.368C84.7084 61.368 86.8804 61.92 88.8484 63.024C90.8404 64.128 92.4004 65.664 93.5284 67.632C94.6804 69.6 95.2564 71.82 95.2564 74.292C95.2564 76.764 94.6804 78.996 93.5284 80.988C92.3764 82.956 90.8164 84.492 88.8484 85.596C86.8804 86.7 84.7084 87.252 82.3324 87.252ZM82.3324 81.636C84.3484 81.636 85.9564 80.964 87.1564 79.62C88.3804 78.276 88.9924 76.5 88.9924 74.292C88.9924 72.06 88.3804 70.284 87.1564 68.964C85.9564 67.62 84.3484 66.948 82.3324 66.948C80.2924 66.948 78.6604 67.608 77.4364 68.928C76.2364 70.248 75.6364 72.036 75.6364 74.292C75.6364 76.524 76.2364 78.312 77.4364 79.656C78.6604 80.976 80.2924 81.636 82.3324 81.636ZM97.6372 74.328C97.6372 71.832 98.1772 69.612 99.2572 67.668C100.337 65.7 101.837 64.176 103.757 63.096C105.701 61.992 107.897 61.44 110.345 61.44C113.345 61.44 115.913 62.232 118.049 63.816C120.185 65.4 121.613 67.56 122.333 70.296H115.565C115.061 69.24 114.341 68.436 113.405 67.884C112.493 67.332 111.449 67.056 110.273 67.056C108.377 67.056 106.841 67.716 105.665 69.036C104.489 70.356 103.901 72.12 103.901 74.328C103.901 76.536 104.489 78.3 105.665 79.62C106.841 80.94 108.377 81.6 110.273 81.6C111.449 81.6 112.493 81.324 113.405 80.772C114.341 80.22 115.061 79.416 115.565 78.36H122.333C121.613 81.096 120.185 83.256 118.049 84.84C115.913 86.4 113.345 87.18 110.345 87.18C107.897 87.18 105.701 86.64 103.757 85.56C101.837 84.456 100.337 82.932 99.2572 80.988C98.1772 79.044 97.6372 76.824 97.6372 74.328ZM132.259 61.728V87H126.103V61.728H132.259ZM152.452 82.536H143.02L141.508 87H135.064L144.208 61.728H151.336L160.48 87H153.964L152.452 82.536ZM150.868 77.784L147.736 68.532L144.64 77.784H150.868ZM169.419 82.248H177.483V87H163.263V61.728H169.419V82.248ZM76.852 115.728V141H70.696V125.844L65.044 141H60.076L54.388 125.808V141H48.232V115.728H55.504L62.596 133.224L69.616 115.728H76.852ZM87.4349 120.66V125.772H95.6789V130.524H87.4349V136.068H96.7589V141H81.2789V115.728H96.7589V120.66H87.4349ZM110.223 115.728C112.887 115.728 115.215 116.256 117.207 117.312C119.199 118.368 120.735 119.856 121.815 121.776C122.919 123.672 123.471 125.868 123.471 128.364C123.471 130.836 122.919 133.032 121.815 134.952C120.735 136.872 119.187 138.36 117.171 139.416C115.179 140.472 112.863 141 110.223 141H100.755V115.728H110.223ZM109.827 135.672C112.155 135.672 113.967 135.036 115.263 133.764C116.559 132.492 117.207 130.692 117.207 128.364C117.207 126.036 116.559 124.224 115.263 122.928C113.967 121.632 112.155 120.984 109.827 120.984H106.911V135.672H109.827ZM133.068 115.728V141H126.912V115.728H133.068ZM153.261 136.536H143.829L142.317 141H135.873L145.017 115.728H152.145L161.289 141H154.773L153.261 136.536ZM151.677 131.784L148.545 122.532L145.449 131.784H151.677Z" fill="black"/>
<path d="M371.5 -27V227" stroke="url(#paint0_linear_1003_2)"/>
<line x1="99" y1="233.5" x2="353" y2="233.5" stroke="url(#paint1_linear_1003_2)"/>
<path d="M358.75 232.133C360.264 232.133 362.227 233.695 362.227 236.225C362.227 238.549 360.557 241 357.314 241H351.367V225.258H355.664C358.457 225.258 360.234 227.309 360.234 229.428C360.234 231.098 359.131 232.133 358.75 232.133ZM355.859 228.334H354.521V231.41H355.801C356.553 231.41 357.285 230.766 357.285 229.848C357.285 228.959 356.592 228.334 355.859 228.334ZM357.021 237.914C358.047 237.914 359.141 237.211 359.141 236C359.141 235.092 358.516 234.184 357.012 234.184H354.521V237.914H357.021ZM379.043 232.162C379.092 232.621 379.121 233.061 379.121 233.49C379.121 238.432 375.713 241.312 371.611 241.312C366.973 241.312 363.32 237.641 363.32 233.148C363.32 228.646 366.992 224.936 371.494 224.936C373.535 224.955 375.713 225.893 377.256 227.396L375.498 230.023C374.268 228.822 372.861 228.139 371.455 228.139C369.014 228.139 366.543 230.209 366.543 233.148C366.543 235.883 368.672 238.129 371.748 238.129C373.994 238.129 375.605 236.977 375.713 235.082H371.641V232.162H379.043Z" fill="url(#paint2_linear_1003_2)"/>
</g>
<defs>
<linearGradient id="paint0_linear_1003_2" x1="363" y1="236.5" x2="367" y2="92" gradientUnits="userSpaceOnUse">
<stop stop-color="#0077FF"/>
<stop offset="1" stop-color="white"/>
</linearGradient>
<linearGradient id="paint1_linear_1003_2" x1="360.5" y1="238" x2="216" y2="234" gradientUnits="userSpaceOnUse">
<stop stop-color="#0077FF"/>
<stop offset="1" stop-color="white"/>
</linearGradient>
<linearGradient id="paint2_linear_1003_2" x1="350" y1="219" x2="367" y2="248" gradientUnits="userSpaceOnUse">
<stop stop-color="#00AAFF"/>
<stop offset="1" stop-color="#006FFF"/>
</linearGradient>
<clipPath id="clip0_1003_2">
<rect width="429" height="286" fill="white"/>
</clipPath>
</defs>
</svg>
