<svg width="429" height="286" viewBox="0 0 429 286" fill="none" xmlns="http://www.w3.org/2000/svg">
<g clip-path="url(#clip0_1001_2)">
<rect width="429" height="286" fill="white"/>
<path d="M76.852 61.728V87H70.696V71.844L65.044 87H60.076L54.388 71.808V87H48.232V61.728H55.504L62.596 79.224L69.616 61.728H76.852ZM93.2309 87.252C90.8549 87.252 88.6709 86.7 86.6789 85.596C84.7109 84.492 83.1389 82.956 81.9629 80.988C80.8109 78.996 80.2349 76.764 80.2349 74.292C80.2349 71.82 80.8109 69.6 81.9629 67.632C83.1389 65.664 84.7109 64.128 86.6789 63.024C88.6709 61.92 90.8549 61.368 93.2309 61.368C95.6069 61.368 97.7789 61.92 99.7469 63.024C101.739 64.128 103.299 65.664 104.427 67.632C105.579 69.6 106.155 71.82 106.155 74.292C106.155 76.764 105.579 78.996 104.427 80.988C103.275 82.956 101.715 84.492 99.7469 85.596C97.7789 86.7 95.6069 87.252 93.2309 87.252ZM93.2309 81.636C95.2469 81.636 96.8549 80.964 98.0549 79.62C99.2789 78.276 99.8909 76.5 99.8909 74.292C99.8909 72.06 99.2789 70.284 98.0549 68.964C96.8549 67.62 95.2469 66.948 93.2309 66.948C91.1909 66.948 89.5589 67.608 88.3349 68.928C87.1349 70.248 86.5349 72.036 86.5349 74.292C86.5349 76.524 87.1349 78.312 88.3349 79.656C89.5589 80.976 91.1909 81.636 93.2309 81.636ZM127.76 61.728V66.66H121.064V87H114.908V66.66H108.212V61.728H127.76ZM137.005 61.728V87H130.849V61.728H137.005ZM153.418 87.252C151.042 87.252 148.858 86.7 146.866 85.596C144.898 84.492 143.326 82.956 142.15 80.988C140.998 78.996 140.422 76.764 140.422 74.292C140.422 71.82 140.998 69.6 142.15 67.632C143.326 65.664 144.898 64.128 146.866 63.024C148.858 61.92 151.042 61.368 153.418 61.368C155.794 61.368 157.966 61.92 159.934 63.024C161.926 64.128 163.486 65.664 164.614 67.632C165.766 69.6 166.342 71.82 166.342 74.292C166.342 76.764 165.766 78.996 164.614 80.988C163.462 82.956 161.902 84.492 159.934 85.596C157.966 86.7 155.794 87.252 153.418 87.252ZM153.418 81.636C155.434 81.636 157.042 80.964 158.242 79.62C159.466 78.276 160.078 76.5 160.078 74.292C160.078 72.06 159.466 70.284 158.242 68.964C157.042 67.62 155.434 66.948 153.418 66.948C151.378 66.948 149.746 67.608 148.522 68.928C147.322 70.248 146.722 72.036 146.722 74.292C146.722 76.524 147.322 78.312 148.522 79.656C149.746 80.976 151.378 81.636 153.418 81.636ZM192.375 87H186.219L175.923 71.412V87H169.767V61.728H175.923L186.219 77.388V61.728H192.375V87ZM57.7 115.728C60.364 115.728 62.692 116.256 64.684 117.312C66.676 118.368 68.212 119.856 69.292 121.776C70.396 123.672 70.948 125.868 70.948 128.364C70.948 130.836 70.396 133.032 69.292 134.952C68.212 136.872 66.664 138.36 64.648 139.416C62.656 140.472 60.34 141 57.7 141H48.232V115.728H57.7ZM57.304 135.672C59.632 135.672 61.444 135.036 62.74 133.764C64.036 132.492 64.684 130.692 64.684 128.364C64.684 126.036 64.036 124.224 62.74 122.928C61.444 121.632 59.632 120.984 57.304 120.984H54.388V135.672H57.304ZM80.5443 120.66V125.772H88.7883V130.524H80.5443V136.068H89.8683V141H74.3883V115.728H89.8683V120.66H80.5443ZM103.009 141.252C101.161 141.252 99.5048 140.952 98.0408 140.352C96.5768 139.752 95.4008 138.864 94.5128 137.688C93.6488 136.512 93.1928 135.096 93.1448 133.44H99.6968C99.7928 134.376 100.117 135.096 100.669 135.6C101.221 136.08 101.941 136.32 102.829 136.32C103.741 136.32 104.461 136.116 104.989 135.708C105.517 135.276 105.781 134.688 105.781 133.944C105.781 133.32 105.565 132.804 105.133 132.396C104.725 131.988 104.209 131.652 103.585 131.388C102.985 131.124 102.121 130.824 100.993 130.488C99.3608 129.984 98.0288 129.48 96.9968 128.976C95.9648 128.472 95.0768 127.728 94.3328 126.744C93.5888 125.76 93.2168 124.476 93.2168 122.892C93.2168 120.54 94.0688 118.704 95.7728 117.384C97.4768 116.04 99.6968 115.368 102.433 115.368C105.217 115.368 107.461 116.04 109.165 117.384C110.869 118.704 111.781 120.552 111.901 122.928H105.241C105.193 122.112 104.893 121.476 104.341 121.02C103.789 120.54 103.081 120.3 102.217 120.3C101.473 120.3 100.873 120.504 100.417 120.912C99.9608 121.296 99.7328 121.86 99.7328 122.604C99.7328 123.42 100.117 124.056 100.885 124.512C101.653 124.968 102.853 125.46 104.485 125.988C106.117 126.54 107.437 127.068 108.445 127.572C109.477 128.076 110.365 128.808 111.109 129.768C111.853 130.728 112.225 131.964 112.225 133.476C112.225 134.916 111.853 136.224 111.109 137.4C110.389 138.576 109.333 139.512 107.941 140.208C106.549 140.904 104.905 141.252 103.009 141.252ZM122.169 115.728V141H116.013V115.728H122.169ZM143.406 123.72C142.95 122.88 142.29 122.244 141.426 121.812C140.586 121.356 139.59 121.128 138.438 121.128C136.446 121.128 134.85 121.788 133.65 123.108C132.45 124.404 131.85 126.144 131.85 128.328C131.85 130.656 132.474 132.48 133.722 133.8C134.994 135.096 136.734 135.744 138.942 135.744C140.454 135.744 141.726 135.36 142.758 134.592C143.814 133.824 144.582 132.72 145.062 131.28H137.25V126.744H150.642V132.468C150.186 134.004 149.406 135.432 148.302 136.752C147.222 138.072 145.842 139.14 144.162 139.956C142.482 140.772 140.586 141.18 138.474 141.18C135.978 141.18 133.746 140.64 131.778 139.56C129.834 138.456 128.31 136.932 127.206 134.988C126.126 133.044 125.586 130.824 125.586 128.328C125.586 125.832 126.126 123.612 127.206 121.668C128.31 119.7 129.834 118.176 131.778 117.096C133.722 115.992 135.942 115.44 138.438 115.44C141.462 115.44 144.006 116.172 146.07 117.636C148.158 119.1 149.538 121.128 150.21 123.72H143.406ZM176.66 141H170.504L160.208 125.412V141H154.052V115.728H160.208L170.504 131.388V115.728H176.66V141Z" fill="black"/>
<path d="M371.5 -27V227" stroke="url(#paint0_linear_1001_2)"/>
<line x1="99" y1="233.5" x2="353" y2="233.5" stroke="url(#paint1_linear_1001_2)"/>
<path d="M358.75 232.133C360.264 232.133 362.227 233.695 362.227 236.225C362.227 238.549 360.557 241 357.314 241H351.367V225.258H355.664C358.457 225.258 360.234 227.309 360.234 229.428C360.234 231.098 359.131 232.133 358.75 232.133ZM355.859 228.334H354.521V231.41H355.801C356.553 231.41 357.285 230.766 357.285 229.848C357.285 228.959 356.592 228.334 355.859 228.334ZM357.021 237.914C358.047 237.914 359.141 237.211 359.141 236C359.141 235.092 358.516 234.184 357.012 234.184H354.521V237.914H357.021ZM379.043 232.162C379.092 232.621 379.121 233.061 379.121 233.49C379.121 238.432 375.713 241.312 371.611 241.312C366.973 241.312 363.32 237.641 363.32 233.148C363.32 228.646 366.992 224.936 371.494 224.936C373.535 224.955 375.713 225.893 377.256 227.396L375.498 230.023C374.268 228.822 372.861 228.139 371.455 228.139C369.014 228.139 366.543 230.209 366.543 233.148C366.543 235.883 368.672 238.129 371.748 238.129C373.994 238.129 375.605 236.977 375.713 235.082H371.641V232.162H379.043Z" fill="url(#paint2_linear_1001_2)"/>
</g>
<defs>
<linearGradient id="paint0_linear_1001_2" x1="363" y1="236.5" x2="367" y2="92" gradientUnits="userSpaceOnUse">
<stop stop-color="#0077FF"/>
<stop offset="1" stop-color="white"/>
</linearGradient>
<linearGradient id="paint1_linear_1001_2" x1="360.5" y1="238" x2="216" y2="234" gradientUnits="userSpaceOnUse">
<stop stop-color="#0077FF"/>
<stop offset="1" stop-color="white"/>
</linearGradient>
<linearGradient id="paint2_linear_1001_2" x1="350" y1="219" x2="367" y2="248" gradientUnits="userSpaceOnUse">
<stop stop-color="#00AAFF"/>
<stop offset="1" stop-color="#006FFF"/>
</linearGradient>
<clipPath id="clip0_1001_2">
<rect width="429" height="286" fill="white"/>
</clipPath>
</defs>
</svg>
