<svg width="429" height="286" viewBox="0 0 429 286" fill="none" xmlns="http://www.w3.org/2000/svg">
<g clip-path="url(#clip0_1004_8)">
<rect width="429" height="286" fill="white"/>
<path d="M54.388 66.66V71.772H62.632V76.524H54.388V82.068H63.712V87H48.232V61.728H63.712V66.66H54.388ZM77.1766 61.728C79.8406 61.728 82.1686 62.256 84.1606 63.312C86.1526 64.368 87.6886 65.856 88.7686 67.776C89.8726 69.672 90.4246 71.868 90.4246 74.364C90.4246 76.836 89.8726 79.032 88.7686 80.952C87.6886 82.872 86.1406 84.36 84.1246 85.416C82.1326 86.472 79.8166 87 77.1766 87H67.7086V61.728H77.1766ZM76.7806 81.672C79.1086 81.672 80.9206 81.036 82.2166 79.764C83.5126 78.492 84.1606 76.692 84.1606 74.364C84.1606 72.036 83.5126 70.224 82.2166 68.928C80.9206 67.632 79.1086 66.984 76.7806 66.984H73.8646V81.672H76.7806ZM100.021 61.728V87H93.8648V61.728H100.021ZM122.662 61.728V66.66H115.966V87H109.81V66.66H103.114V61.728H122.662ZM134.896 87.252C133.048 87.252 131.392 86.952 129.928 86.352C128.464 85.752 127.288 84.864 126.4 83.688C125.536 82.512 125.08 81.096 125.032 79.44H131.584C131.68 80.376 132.004 81.096 132.556 81.6C133.108 82.08 133.828 82.32 134.716 82.32C135.628 82.32 136.348 82.116 136.876 81.708C137.404 81.276 137.668 80.688 137.668 79.944C137.668 79.32 137.452 78.804 137.02 78.396C136.612 77.988 136.096 77.652 135.472 77.388C134.872 77.124 134.008 76.824 132.88 76.488C131.248 75.984 129.916 75.48 128.884 74.976C127.852 74.472 126.964 73.728 126.22 72.744C125.476 71.76 125.104 70.476 125.104 68.892C125.104 66.54 125.956 64.704 127.66 63.384C129.364 62.04 131.584 61.368 134.32 61.368C137.104 61.368 139.348 62.04 141.052 63.384C142.756 64.704 143.668 66.552 143.788 68.928H137.128C137.08 68.112 136.78 67.476 136.228 67.02C135.676 66.54 134.968 66.3 134.104 66.3C133.36 66.3 132.76 66.504 132.304 66.912C131.848 67.296 131.62 67.86 131.62 68.604C131.62 69.42 132.004 70.056 132.772 70.512C133.54 70.968 134.74 71.46 136.372 71.988C138.004 72.54 139.324 73.068 140.332 73.572C141.364 74.076 142.252 74.808 142.996 75.768C143.74 76.728 144.112 77.964 144.112 79.476C144.112 80.916 143.74 82.224 142.996 83.4C142.276 84.576 141.22 85.512 139.828 86.208C138.436 86.904 136.792 87.252 134.896 87.252Z" fill="black"/>
<path d="M371.5 -27V227" stroke="url(#paint0_linear_1004_8)"/>
<line x1="99" y1="233.5" x2="353" y2="233.5" stroke="url(#paint1_linear_1004_8)"/>
<path d="M358.75 232.133C360.264 232.133 362.227 233.695 362.227 236.225C362.227 238.549 360.557 241 357.314 241H351.367V225.258H355.664C358.457 225.258 360.234 227.309 360.234 229.428C360.234 231.098 359.131 232.133 358.75 232.133ZM355.859 228.334H354.521V231.41H355.801C356.553 231.41 357.285 230.766 357.285 229.848C357.285 228.959 356.592 228.334 355.859 228.334ZM357.021 237.914C358.047 237.914 359.141 237.211 359.141 236C359.141 235.092 358.516 234.184 357.012 234.184H354.521V237.914H357.021ZM379.043 232.162C379.092 232.621 379.121 233.061 379.121 233.49C379.121 238.432 375.713 241.312 371.611 241.312C366.973 241.312 363.32 237.641 363.32 233.148C363.32 228.646 366.992 224.936 371.494 224.936C373.535 224.955 375.713 225.893 377.256 227.396L375.498 230.023C374.268 228.822 372.861 228.139 371.455 228.139C369.014 228.139 366.543 230.209 366.543 233.148C366.543 235.883 368.672 238.129 371.748 238.129C373.994 238.129 375.605 236.977 375.713 235.082H371.641V232.162H379.043Z" fill="url(#paint2_linear_1004_8)"/>
</g>
<defs>
<linearGradient id="paint0_linear_1004_8" x1="363" y1="236.5" x2="367" y2="92" gradientUnits="userSpaceOnUse">
<stop stop-color="#0077FF"/>
<stop offset="1" stop-color="white"/>
</linearGradient>
<linearGradient id="paint1_linear_1004_8" x1="360.5" y1="238" x2="216" y2="234" gradientUnits="userSpaceOnUse">
<stop stop-color="#0077FF"/>
<stop offset="1" stop-color="white"/>
</linearGradient>
<linearGradient id="paint2_linear_1004_8" x1="350" y1="219" x2="367" y2="248" gradientUnits="userSpaceOnUse">
<stop stop-color="#00AAFF"/>
<stop offset="1" stop-color="#006FFF"/>
</linearGradient>
<clipPath id="clip0_1004_8">
<rect width="429" height="286" fill="white"/>
</clipPath>
</defs>
</svg>
