<svg width="429" height="286" viewBox="0 0 429 286" fill="none" xmlns="http://www.w3.org/2000/svg">
<g clip-path="url(#clip0_1007_32)">
<rect width="429" height="286" fill="black"/>
<path d="M23.528 43.368C23.528 42.2587 23.768 41.272 24.248 40.408C24.728 39.5333 25.3947 38.856 26.248 38.376C27.112 37.8853 28.088 37.64 29.176 37.64C30.5093 37.64 31.6507 37.992 32.6 38.696C33.5493 39.4 34.184 40.36 34.504 41.576H31.496C31.272 41.1067 30.952 40.7493 30.536 40.504C30.1307 40.2587 29.6667 40.136 29.144 40.136C28.3013 40.136 27.6187 40.4293 27.096 41.016C26.5733 41.6027 26.312 42.3867 26.312 43.368C26.312 44.3493 26.5733 45.1333 27.096 45.72C27.6187 46.3067 28.3013 46.6 29.144 46.6C29.6667 46.6 30.1307 46.4773 30.536 46.232C30.952 45.9867 31.272 45.6293 31.496 45.16H34.504C34.184 46.376 33.5493 47.336 32.6 48.04C31.6507 48.7333 30.5093 49.08 29.176 49.08C28.088 49.08 27.112 48.84 26.248 48.36C25.3947 47.8693 24.728 47.192 24.248 46.328C23.768 45.464 23.528 44.4773 23.528 43.368ZM40.2435 49.128C39.3688 49.128 38.5795 48.9413 37.8755 48.568C37.1822 48.1947 36.6328 47.6613 36.2275 46.968C35.8328 46.2747 35.6355 45.464 35.6355 44.536C35.6355 43.6187 35.8382 42.8133 36.2435 42.12C36.6488 41.416 37.2035 40.8773 37.9075 40.504C38.6115 40.1307 39.4008 39.944 40.2755 39.944C41.1502 39.944 41.9395 40.1307 42.6435 40.504C43.3475 40.8773 43.9022 41.416 44.3075 42.12C44.7128 42.8133 44.9155 43.6187 44.9155 44.536C44.9155 45.4533 44.7075 46.264 44.2915 46.968C43.8862 47.6613 43.3262 48.1947 42.6115 48.568C41.9075 48.9413 41.1182 49.128 40.2435 49.128ZM40.2435 46.76C40.7662 46.76 41.2088 46.568 41.5715 46.184C41.9448 45.8 42.1315 45.2507 42.1315 44.536C42.1315 43.8213 41.9502 43.272 41.5875 42.888C41.2355 42.504 40.7982 42.312 40.2755 42.312C39.7422 42.312 39.2995 42.504 38.9475 42.888C38.5955 43.2613 38.4195 43.8107 38.4195 44.536C38.4195 45.2507 38.5902 45.8 38.9315 46.184C39.2835 46.568 39.7208 46.76 40.2435 46.76ZM57.759 39.976C58.8683 39.976 59.7483 40.312 60.399 40.984C61.0603 41.656 61.391 42.5893 61.391 43.784V49H58.671V44.152C58.671 43.576 58.5163 43.1333 58.207 42.824C57.9083 42.504 57.4923 42.344 56.959 42.344C56.4257 42.344 56.0043 42.504 55.695 42.824C55.3963 43.1333 55.247 43.576 55.247 44.152V49H52.527V44.152C52.527 43.576 52.3723 43.1333 52.063 42.824C51.7643 42.504 51.3483 42.344 50.815 42.344C50.2817 42.344 49.8603 42.504 49.551 42.824C49.2523 43.1333 49.103 43.576 49.103 44.152V49H46.367V40.072H49.103V41.192C49.3803 40.8187 49.743 40.5253 50.191 40.312C50.639 40.088 51.1457 39.976 51.711 39.976C52.383 39.976 52.9803 40.12 53.503 40.408C54.0363 40.696 54.4523 41.1067 54.751 41.64C55.0603 41.1493 55.4817 40.7493 56.015 40.44C56.5483 40.1307 57.1297 39.976 57.759 39.976ZM66.1511 44.52C66.1511 43.6027 66.3218 42.7973 66.6631 42.104C67.0151 41.4107 67.4898 40.8773 68.0871 40.504C68.6845 40.1307 69.3511 39.944 70.0871 39.944C70.7165 39.944 71.2658 40.072 71.7351 40.328C72.2151 40.584 72.5831 40.92 72.8391 41.336V40.072H75.5751V49H72.8391V47.736C72.5725 48.152 72.1991 48.488 71.7191 48.744C71.2498 49 70.7005 49.128 70.0711 49.128C69.3458 49.128 68.6845 48.9413 68.0871 48.568C67.4898 48.184 67.0151 47.6453 66.6631 46.952C66.3218 46.248 66.1511 45.4373 66.1511 44.52ZM72.8391 44.536C72.8391 43.8533 72.6471 43.3147 72.2631 42.92C71.8898 42.5253 71.4311 42.328 70.8871 42.328C70.3431 42.328 69.8791 42.5253 69.4951 42.92C69.1218 43.304 68.9351 43.8373 68.9351 44.52C68.9351 45.2027 69.1218 45.7467 69.4951 46.152C69.8791 46.5467 70.3431 46.744 70.8871 46.744C71.4311 46.744 71.8898 46.5467 72.2631 46.152C72.6471 45.7573 72.8391 45.2187 72.8391 44.536ZM82.9945 39.976C84.0398 39.976 84.8718 40.3173 85.4905 41C86.1198 41.672 86.4345 42.6 86.4345 43.784V49H83.7145V44.152C83.7145 43.5547 83.5598 43.0907 83.2505 42.76C82.9412 42.4293 82.5252 42.264 82.0025 42.264C81.4798 42.264 81.0638 42.4293 80.7545 42.76C80.4452 43.0907 80.2905 43.5547 80.2905 44.152V49H77.5545V40.072H80.2905V41.256C80.5678 40.8613 80.9412 40.552 81.4105 40.328C81.8798 40.0933 82.4078 39.976 82.9945 39.976ZM89.7118 39.144C89.2318 39.144 88.8371 39.0053 88.5278 38.728C88.2291 38.44 88.0798 38.088 88.0798 37.672C88.0798 37.2453 88.2291 36.8933 88.5278 36.616C88.8371 36.328 89.2318 36.184 89.7118 36.184C90.1811 36.184 90.5651 36.328 90.8638 36.616C91.1731 36.8933 91.3278 37.2453 91.3278 37.672C91.3278 38.088 91.1731 38.44 90.8638 38.728C90.5651 39.0053 90.1811 39.144 89.7118 39.144ZM91.0718 40.072V49H88.3358V40.072H91.0718ZM104.447 39.976C105.556 39.976 106.436 40.312 107.087 40.984C107.748 41.656 108.079 42.5893 108.079 43.784V49H105.359V44.152C105.359 43.576 105.204 43.1333 104.895 42.824C104.596 42.504 104.18 42.344 103.647 42.344C103.113 42.344 102.692 42.504 102.383 42.824C102.084 43.1333 101.935 43.576 101.935 44.152V49H99.2145V44.152C99.2145 43.576 99.0598 43.1333 98.7505 42.824C98.4518 42.504 98.0358 42.344 97.5025 42.344C96.9692 42.344 96.5478 42.504 96.2385 42.824C95.9398 43.1333 95.7905 43.576 95.7905 44.152V49H93.0545V40.072H95.7905V41.192C96.0678 40.8187 96.4305 40.5253 96.8785 40.312C97.3265 40.088 97.8332 39.976 98.3985 39.976C99.0705 39.976 99.6678 40.12 100.191 40.408C100.724 40.696 101.14 41.1067 101.439 41.64C101.748 41.1493 102.169 40.7493 102.703 40.44C103.236 40.1307 103.817 39.976 104.447 39.976ZM109.448 44.52C109.448 43.6027 109.619 42.7973 109.96 42.104C110.312 41.4107 110.787 40.8773 111.384 40.504C111.981 40.1307 112.648 39.944 113.384 39.944C114.013 39.944 114.563 40.072 115.032 40.328C115.512 40.584 115.88 40.92 116.136 41.336V40.072H118.872V49H116.136V47.736C115.869 48.152 115.496 48.488 115.016 48.744C114.547 49 113.997 49.128 113.368 49.128C112.643 49.128 111.981 48.9413 111.384 48.568C110.787 48.184 110.312 47.6453 109.96 46.952C109.619 46.248 109.448 45.4373 109.448 44.52ZM116.136 44.536C116.136 43.8533 115.944 43.3147 115.56 42.92C115.187 42.5253 114.728 42.328 114.184 42.328C113.64 42.328 113.176 42.5253 112.792 42.92C112.419 43.304 112.232 43.8373 112.232 44.52C112.232 45.2027 112.419 45.7467 112.792 46.152C113.176 46.5467 113.64 46.744 114.184 46.744C114.728 46.744 115.187 46.5467 115.56 46.152C115.944 45.7573 116.136 45.2187 116.136 44.536ZM124.739 46.792C125.443 46.792 125.918 46.4507 126.163 45.768H129.075C128.873 46.6747 128.467 47.416 127.859 47.992C127.251 48.568 126.494 48.9253 125.587 49.064V49.656C126.142 49.656 126.627 49.8053 127.043 50.104C127.459 50.4133 127.667 50.872 127.667 51.48C127.667 52.088 127.449 52.5467 127.011 52.856C126.574 53.176 126.051 53.336 125.443 53.336H122.979V51.832H125.075C125.289 51.832 125.449 51.8 125.555 51.736C125.662 51.672 125.715 51.5653 125.715 51.416C125.715 51.2667 125.662 51.16 125.555 51.096C125.449 51.0427 125.289 51.016 125.075 51.016H123.939V49.064C122.841 48.8933 121.961 48.408 121.299 47.608C120.638 46.7973 120.307 45.7733 120.307 44.536C120.307 43.608 120.494 42.7973 120.867 42.104C121.251 41.4107 121.779 40.8773 122.451 40.504C123.134 40.1307 123.913 39.944 124.787 39.944C125.907 39.944 126.841 40.2373 127.587 40.824C128.345 41.4107 128.841 42.2373 129.075 43.304H126.163C125.918 42.6213 125.443 42.28 124.739 42.28C124.238 42.28 123.838 42.4773 123.539 42.872C123.241 43.256 123.091 43.8107 123.091 44.536C123.091 45.2613 123.241 45.8213 123.539 46.216C123.838 46.6 124.238 46.792 124.739 46.792ZM134.603 49.128C133.728 49.128 132.939 48.9413 132.235 48.568C131.542 48.1947 130.992 47.6613 130.587 46.968C130.192 46.2747 129.995 45.464 129.995 44.536C129.995 43.6187 130.198 42.8133 130.603 42.12C131.008 41.416 131.563 40.8773 132.267 40.504C132.971 40.1307 133.76 39.944 134.635 39.944C135.51 39.944 136.299 40.1307 137.003 40.504C137.707 40.8773 138.262 41.416 138.667 42.12C139.072 42.8133 139.275 43.6187 139.275 44.536C139.275 45.4533 139.067 46.264 138.651 46.968C138.246 47.6613 137.686 48.1947 136.971 48.568C136.267 48.9413 135.478 49.128 134.603 49.128ZM134.603 46.76C135.126 46.76 135.568 46.568 135.931 46.184C136.304 45.8 136.491 45.2507 136.491 44.536C136.491 43.8213 136.31 43.272 135.947 42.888C135.595 42.504 135.158 42.312 134.635 42.312C134.102 42.312 133.659 42.504 133.307 42.888C132.955 43.2613 132.779 43.8107 132.779 44.536C132.779 45.2507 132.95 45.8 133.291 46.184C133.643 46.568 134.08 46.76 134.603 46.76ZM131.643 39.256C131.899 37.6773 132.635 36.888 133.851 36.888C134.086 36.888 134.288 36.9253 134.459 37C134.64 37.064 134.859 37.1653 135.115 37.304C135.307 37.4107 135.462 37.4907 135.579 37.544C135.696 37.5867 135.819 37.608 135.947 37.608C136.342 37.608 136.571 37.368 136.635 36.888H138.043C137.787 38.4667 137.051 39.256 135.835 39.256C135.6 39.256 135.392 39.224 135.211 39.16C135.04 39.0853 134.827 38.9787 134.571 38.84C134.379 38.7333 134.224 38.6587 134.107 38.616C133.99 38.5627 133.867 38.536 133.739 38.536C133.344 38.536 133.11 38.776 133.035 39.256H131.643ZM149.142 44.392C149.142 44.648 149.126 44.9147 149.094 45.192H142.902C142.945 45.7467 143.121 46.1733 143.43 46.472C143.75 46.76 144.14 46.904 144.598 46.904C145.281 46.904 145.756 46.616 146.022 46.04H148.934C148.785 46.6267 148.513 47.1547 148.118 47.624C147.734 48.0933 147.249 48.4613 146.662 48.728C146.076 48.9947 145.42 49.128 144.694 49.128C143.82 49.128 143.041 48.9413 142.358 48.568C141.676 48.1947 141.142 47.6613 140.758 46.968C140.374 46.2747 140.182 45.464 140.182 44.536C140.182 43.608 140.369 42.7973 140.742 42.104C141.126 41.4107 141.66 40.8773 142.342 40.504C143.025 40.1307 143.809 39.944 144.694 39.944C145.558 39.944 146.326 40.1253 146.998 40.488C147.67 40.8507 148.193 41.368 148.566 42.04C148.95 42.712 149.142 43.496 149.142 44.392ZM146.342 43.672C146.342 43.2027 146.182 42.8293 145.862 42.552C145.542 42.2747 145.142 42.136 144.662 42.136C144.204 42.136 143.814 42.2693 143.494 42.536C143.185 42.8027 142.993 43.1813 142.918 43.672H146.342ZM154.218 49.128C153.439 49.128 152.746 48.9947 152.138 48.728C151.53 48.4613 151.05 48.0987 150.698 47.64C150.346 47.1707 150.148 46.648 150.106 46.072H152.81C152.842 46.3813 152.986 46.632 153.242 46.824C153.498 47.016 153.812 47.112 154.186 47.112C154.527 47.112 154.788 47.048 154.97 46.92C155.162 46.7813 155.258 46.6053 155.258 46.392C155.258 46.136 155.124 45.9493 154.858 45.832C154.591 45.704 154.159 45.5653 153.562 45.416C152.922 45.2667 152.388 45.112 151.962 44.952C151.535 44.7813 151.167 44.52 150.858 44.168C150.548 43.8053 150.394 43.32 150.394 42.712C150.394 42.2 150.532 41.736 150.81 41.32C151.098 40.8933 151.514 40.5573 152.058 40.312C152.612 40.0667 153.268 39.944 154.026 39.944C155.146 39.944 156.026 40.2213 156.666 40.776C157.316 41.3307 157.69 42.0667 157.786 42.984H155.258C155.215 42.6747 155.076 42.4293 154.842 42.248C154.618 42.0667 154.319 41.976 153.946 41.976C153.626 41.976 153.38 42.04 153.21 42.168C153.039 42.2853 152.954 42.4507 152.954 42.664C152.954 42.92 153.087 43.112 153.354 43.24C153.631 43.368 154.058 43.496 154.634 43.624C155.295 43.7947 155.834 43.9653 156.25 44.136C156.666 44.296 157.028 44.5627 157.338 44.936C157.658 45.2987 157.823 45.7893 157.834 46.408C157.834 46.9307 157.684 47.4 157.386 47.816C157.098 48.2213 156.676 48.5413 156.122 48.776C155.578 49.0107 154.943 49.128 154.218 49.128ZM167.378 42.344H165.906V49H163.17V42.344H162.178V40.072H163.17V39.816C163.17 38.7173 163.485 37.8853 164.114 37.32C164.744 36.744 165.666 36.456 166.882 36.456C167.085 36.456 167.234 36.4613 167.33 36.472V38.792C166.808 38.76 166.44 38.8347 166.226 39.016C166.013 39.1973 165.906 39.5227 165.906 39.992V40.072H167.378V42.344ZM171.4 37.16V49H168.664V37.16H171.4ZM182.199 40.072V49H179.463V47.784C179.185 48.1787 178.807 48.4987 178.327 48.744C177.857 48.9787 177.335 49.096 176.759 49.096C176.076 49.096 175.473 48.9467 174.951 48.648C174.428 48.3387 174.023 47.896 173.735 47.32C173.447 46.744 173.303 46.0667 173.303 45.288V40.072H176.023V44.92C176.023 45.5173 176.177 45.9813 176.487 46.312C176.796 46.6427 177.212 46.808 177.735 46.808C178.268 46.808 178.689 46.6427 178.999 46.312C179.308 45.9813 179.463 45.5173 179.463 44.92V40.072H182.199ZM185.54 39.144C185.06 39.144 184.665 39.0053 184.356 38.728C184.057 38.44 183.908 38.088 183.908 37.672C183.908 37.2453 184.057 36.8933 184.356 36.616C184.665 36.328 185.06 36.184 185.54 36.184C186.009 36.184 186.393 36.328 186.692 36.616C187.001 36.8933 187.156 37.2453 187.156 37.672C187.156 38.088 187.001 38.44 186.692 38.728C186.393 39.0053 186.009 39.144 185.54 39.144ZM186.9 40.072V49H184.164V40.072H186.9ZM188.339 44.52C188.339 43.6027 188.509 42.7973 188.851 42.104C189.203 41.4107 189.677 40.8773 190.275 40.504C190.872 40.1307 191.539 39.944 192.275 39.944C192.861 39.944 193.395 40.0667 193.875 40.312C194.365 40.5573 194.749 40.888 195.027 41.304V37.16H197.763V49H195.027V47.72C194.771 48.1467 194.403 48.488 193.923 48.744C193.453 49 192.904 49.128 192.275 49.128C191.539 49.128 190.872 48.9413 190.275 48.568C189.677 48.184 189.203 47.6453 188.851 46.952C188.509 46.248 188.339 45.4373 188.339 44.52ZM195.027 44.536C195.027 43.8533 194.835 43.3147 194.451 42.92C194.077 42.5253 193.619 42.328 193.075 42.328C192.531 42.328 192.067 42.5253 191.683 42.92C191.309 43.304 191.123 43.8373 191.123 44.52C191.123 45.2027 191.309 45.7467 191.683 46.152C192.067 46.5467 192.531 46.744 193.075 46.744C193.619 46.744 194.077 46.5467 194.451 46.152C194.835 45.7573 195.027 45.2187 195.027 44.536ZM199.198 44.52C199.198 43.6027 199.369 42.7973 199.71 42.104C200.062 41.4107 200.537 40.8773 201.134 40.504C201.731 40.1307 202.398 39.944 203.134 39.944C203.763 39.944 204.313 40.072 204.782 40.328C205.262 40.584 205.63 40.92 205.886 41.336V40.072H208.622V49H205.886V47.736C205.619 48.152 205.246 48.488 204.766 48.744C204.297 49 203.747 49.128 203.118 49.128C202.393 49.128 201.731 48.9413 201.134 48.568C200.537 48.184 200.062 47.6453 199.71 46.952C199.369 46.248 199.198 45.4373 199.198 44.52ZM205.886 44.536C205.886 43.8533 205.694 43.3147 205.31 42.92C204.937 42.5253 204.478 42.328 203.934 42.328C203.39 42.328 202.926 42.5253 202.542 42.92C202.169 43.304 201.982 43.8373 201.982 44.52C201.982 45.2027 202.169 45.7467 202.542 46.152C202.926 46.5467 203.39 46.744 203.934 46.744C204.478 46.744 204.937 46.5467 205.31 46.152C205.694 45.7573 205.886 45.2187 205.886 44.536ZM214.233 49.128C213.455 49.128 212.761 48.9947 212.153 48.728C211.545 48.4613 211.065 48.0987 210.713 47.64C210.361 47.1707 210.164 46.648 210.121 46.072H212.825C212.857 46.3813 213.001 46.632 213.257 46.824C213.513 47.016 213.828 47.112 214.201 47.112C214.543 47.112 214.804 47.048 214.985 46.92C215.177 46.7813 215.273 46.6053 215.273 46.392C215.273 46.136 215.14 45.9493 214.873 45.832C214.607 45.704 214.175 45.5653 213.577 45.416C212.937 45.2667 212.404 45.112 211.977 44.952C211.551 44.7813 211.183 44.52 210.873 44.168C210.564 43.8053 210.409 43.32 210.409 42.712C210.409 42.2 210.548 41.736 210.825 41.32C211.113 40.8933 211.529 40.5573 212.073 40.312C212.628 40.0667 213.284 39.944 214.041 39.944C215.161 39.944 216.041 40.2213 216.681 40.776C217.332 41.3307 217.705 42.0667 217.801 42.984H215.273C215.231 42.6747 215.092 42.4293 214.857 42.248C214.633 42.0667 214.335 41.976 213.961 41.976C213.641 41.976 213.396 42.04 213.225 42.168C213.055 42.2853 212.969 42.4507 212.969 42.664C212.969 42.92 213.103 43.112 213.369 43.24C213.647 43.368 214.073 43.496 214.649 43.624C215.311 43.7947 215.849 43.9653 216.265 44.136C216.681 44.296 217.044 44.5627 217.353 44.936C217.673 45.2987 217.839 45.7893 217.849 46.408C217.849 46.9307 217.7 47.4 217.401 47.816C217.113 48.2213 216.692 48.5413 216.137 48.776C215.593 49.0107 214.959 49.128 214.233 49.128ZM231.33 44.392C231.33 44.648 231.314 44.9147 231.282 45.192H225.09C225.133 45.7467 225.309 46.1733 225.618 46.472C225.938 46.76 226.327 46.904 226.786 46.904C227.469 46.904 227.943 46.616 228.21 46.04H231.122C230.973 46.6267 230.701 47.1547 230.306 47.624C229.922 48.0933 229.437 48.4613 228.85 48.728C228.263 48.9947 227.607 49.128 226.882 49.128C226.007 49.128 225.229 48.9413 224.546 48.568C223.863 48.1947 223.33 47.6613 222.946 46.968C222.562 46.2747 222.37 45.464 222.37 44.536C222.37 43.608 222.557 42.7973 222.93 42.104C223.314 41.4107 223.847 40.8773 224.53 40.504C225.213 40.1307 225.997 39.944 226.882 39.944C227.746 39.944 228.514 40.1253 229.186 40.488C229.858 40.8507 230.381 41.368 230.754 42.04C231.138 42.712 231.33 43.496 231.33 44.392ZM228.53 43.672C228.53 43.2027 228.37 42.8293 228.05 42.552C227.73 42.2747 227.33 42.136 226.85 42.136C226.391 42.136 226.002 42.2693 225.682 42.536C225.373 42.8027 225.181 43.1813 225.106 43.672H228.53ZM244.58 44.392C244.58 44.648 244.564 44.9147 244.532 45.192H238.34C238.383 45.7467 238.559 46.1733 238.868 46.472C239.188 46.76 239.577 46.904 240.036 46.904C240.719 46.904 241.193 46.616 241.46 46.04H244.372C244.223 46.6267 243.951 47.1547 243.556 47.624C243.172 48.0933 242.687 48.4613 242.1 48.728C241.513 48.9947 240.857 49.128 240.132 49.128C239.257 49.128 238.479 48.9413 237.796 48.568C237.113 48.1947 236.58 47.6613 236.196 46.968C235.812 46.2747 235.62 45.464 235.62 44.536C235.62 43.608 235.807 42.7973 236.18 42.104C236.564 41.4107 237.097 40.8773 237.78 40.504C238.463 40.1307 239.247 39.944 240.132 39.944C240.996 39.944 241.764 40.1253 242.436 40.488C243.108 40.8507 243.631 41.368 244.004 42.04C244.388 42.712 244.58 43.496 244.58 44.392ZM241.78 43.672C241.78 43.2027 241.62 42.8293 241.3 42.552C240.98 42.2747 240.58 42.136 240.1 42.136C239.641 42.136 239.252 42.2693 238.932 42.536C238.623 42.8027 238.431 43.1813 238.356 43.672H241.78ZM250.503 42.344H249.031V49H246.295V42.344H245.303V40.072H246.295V39.816C246.295 38.7173 246.61 37.8853 247.239 37.32C247.869 36.744 248.791 36.456 250.007 36.456C250.21 36.456 250.359 36.4613 250.455 36.472V38.792C249.933 38.76 249.565 38.8347 249.351 39.016C249.138 39.1973 249.031 39.5227 249.031 39.992V40.072H250.503V42.344ZM260.205 44.392C260.205 44.648 260.189 44.9147 260.157 45.192H253.965C254.008 45.7467 254.184 46.1733 254.493 46.472C254.813 46.76 255.202 46.904 255.661 46.904C256.344 46.904 256.818 46.616 257.085 46.04H259.997C259.848 46.6267 259.576 47.1547 259.181 47.624C258.797 48.0933 258.312 48.4613 257.725 48.728C257.138 48.9947 256.482 49.128 255.757 49.128C254.882 49.128 254.104 48.9413 253.421 48.568C252.738 48.1947 252.205 47.6613 251.821 46.968C251.437 46.2747 251.245 45.464 251.245 44.536C251.245 43.608 251.432 42.7973 251.805 42.104C252.189 41.4107 252.722 40.8773 253.405 40.504C254.088 40.1307 254.872 39.944 255.757 39.944C256.621 39.944 257.389 40.1253 258.061 40.488C258.733 40.8507 259.256 41.368 259.629 42.04C260.013 42.712 260.205 43.496 260.205 44.392ZM257.405 43.672C257.405 43.2027 257.245 42.8293 256.925 42.552C256.605 42.2747 256.205 42.136 255.725 42.136C255.266 42.136 254.877 42.2693 254.557 42.536C254.248 42.8027 254.056 43.1813 253.981 43.672H257.405ZM263.024 39.144C262.544 39.144 262.15 39.0053 261.84 38.728C261.542 38.44 261.392 38.088 261.392 37.672C261.392 37.2453 261.542 36.8933 261.84 36.616C262.15 36.328 262.544 36.184 263.024 36.184C263.494 36.184 263.878 36.328 264.176 36.616C264.486 36.8933 264.64 37.2453 264.64 37.672C264.64 38.088 264.486 38.44 264.176 38.728C263.878 39.0053 263.494 39.144 263.024 39.144ZM264.384 40.072V49H261.648V40.072H264.384ZM271.343 46.68V49H269.951C268.959 49 268.186 48.76 267.631 48.28C267.076 47.7893 266.799 46.9947 266.799 45.896V42.344H265.711V40.072H266.799V37.896H269.535V40.072H271.327V42.344H269.535V45.928C269.535 46.1947 269.599 46.3867 269.727 46.504C269.855 46.6213 270.068 46.68 270.367 46.68H271.343ZM276.931 49.128C276.056 49.128 275.267 48.9413 274.563 48.568C273.87 48.1947 273.32 47.6613 272.915 46.968C272.52 46.2747 272.323 45.464 272.323 44.536C272.323 43.6187 272.526 42.8133 272.931 42.12C273.336 41.416 273.891 40.8773 274.595 40.504C275.299 40.1307 276.088 39.944 276.963 39.944C277.838 39.944 278.627 40.1307 279.331 40.504C280.035 40.8773 280.59 41.416 280.995 42.12C281.4 42.8133 281.603 43.6187 281.603 44.536C281.603 45.4533 281.395 46.264 280.979 46.968C280.574 47.6613 280.014 48.1947 279.299 48.568C278.595 48.9413 277.806 49.128 276.931 49.128ZM276.931 46.76C277.454 46.76 277.896 46.568 278.259 46.184C278.632 45.8 278.819 45.2507 278.819 44.536C278.819 43.8213 278.638 43.272 278.275 42.888C277.923 42.504 277.486 42.312 276.963 42.312C276.43 42.312 275.987 42.504 275.635 42.888C275.283 43.2613 275.107 43.8107 275.107 44.536C275.107 45.2507 275.278 45.8 275.619 46.184C275.971 46.568 276.408 46.76 276.931 46.76ZM286.687 49.128C285.908 49.128 285.215 48.9947 284.607 48.728C283.999 48.4613 283.519 48.0987 283.167 47.64C282.815 47.1707 282.617 46.648 282.575 46.072H285.279C285.311 46.3813 285.455 46.632 285.711 46.824C285.967 47.016 286.281 47.112 286.655 47.112C286.996 47.112 287.257 47.048 287.439 46.92C287.631 46.7813 287.727 46.6053 287.727 46.392C287.727 46.136 287.593 45.9493 287.327 45.832C287.06 45.704 286.628 45.5653 286.031 45.416C285.391 45.2667 284.857 45.112 284.431 44.952C284.004 44.7813 283.636 44.52 283.327 44.168C283.017 43.8053 282.863 43.32 282.863 42.712C282.863 42.2 283.001 41.736 283.279 41.32C283.567 40.8933 283.983 40.5573 284.527 40.312C285.081 40.0667 285.737 39.944 286.495 39.944C287.615 39.944 288.495 40.2213 289.135 40.776C289.785 41.3307 290.159 42.0667 290.255 42.984H287.727C287.684 42.6747 287.545 42.4293 287.311 42.248C287.087 42.0667 286.788 41.976 286.415 41.976C286.095 41.976 285.849 42.04 285.679 42.168C285.508 42.2853 285.423 42.4507 285.423 42.664C285.423 42.92 285.556 43.112 285.823 43.24C286.1 43.368 286.527 43.496 287.103 43.624C287.764 43.7947 288.303 43.9653 288.719 44.136C289.135 44.296 289.497 44.5627 289.807 44.936C290.127 45.2987 290.292 45.7893 290.303 46.408C290.303 46.9307 290.153 47.4 289.855 47.816C289.567 48.2213 289.145 48.5413 288.591 48.776C288.047 49.0107 287.412 49.128 286.687 49.128ZM294.823 44.52C294.823 43.6027 294.994 42.7973 295.335 42.104C295.687 41.4107 296.162 40.8773 296.759 40.504C297.356 40.1307 298.023 39.944 298.759 39.944C299.346 39.944 299.879 40.0667 300.359 40.312C300.85 40.5573 301.234 40.888 301.511 41.304V37.16H304.247V49H301.511V47.72C301.255 48.1467 300.887 48.488 300.407 48.744C299.938 49 299.388 49.128 298.759 49.128C298.023 49.128 297.356 48.9413 296.759 48.568C296.162 48.184 295.687 47.6453 295.335 46.952C294.994 46.248 294.823 45.4373 294.823 44.52ZM301.511 44.536C301.511 43.8533 301.319 43.3147 300.935 42.92C300.562 42.5253 300.103 42.328 299.559 42.328C299.015 42.328 298.551 42.5253 298.167 42.92C297.794 43.304 297.607 43.8373 297.607 44.52C297.607 45.2027 297.794 45.7467 298.167 46.152C298.551 46.5467 299.015 46.744 299.559 46.744C300.103 46.744 300.562 46.5467 300.935 46.152C301.319 45.7573 301.511 45.2187 301.511 44.536ZM314.642 44.392C314.642 44.648 314.626 44.9147 314.594 45.192H308.402C308.445 45.7467 308.621 46.1733 308.93 46.472C309.25 46.76 309.64 46.904 310.098 46.904C310.781 46.904 311.256 46.616 311.522 46.04H314.434C314.285 46.6267 314.013 47.1547 313.618 47.624C313.234 48.0933 312.749 48.4613 312.162 48.728C311.576 48.9947 310.92 49.128 310.194 49.128C309.32 49.128 308.541 48.9413 307.858 48.568C307.176 48.1947 306.642 47.6613 306.258 46.968C305.874 46.2747 305.682 45.464 305.682 44.536C305.682 43.608 305.869 42.7973 306.242 42.104C306.626 41.4107 307.16 40.8773 307.842 40.504C308.525 40.1307 309.309 39.944 310.194 39.944C311.058 39.944 311.826 40.1253 312.498 40.488C313.17 40.8507 313.693 41.368 314.066 42.04C314.45 42.712 314.642 43.496 314.642 44.392ZM311.842 43.672C311.842 43.2027 311.682 42.8293 311.362 42.552C311.042 42.2747 310.642 42.136 310.162 42.136C309.704 42.136 309.314 42.2693 308.994 42.536C308.685 42.8027 308.493 43.1813 308.418 43.672H311.842ZM28.968 70.68V73H27.576C26.584 73 25.8107 72.76 25.256 72.28C24.7013 71.7893 24.424 70.9947 24.424 69.896V66.344H23.336V64.072H24.424V61.896H27.16V64.072H28.952V66.344H27.16V69.928C27.16 70.1947 27.224 70.3867 27.352 70.504C27.48 70.6213 27.6933 70.68 27.992 70.68H28.968ZM33.228 65.56C33.548 65.0693 33.948 64.6853 34.428 64.408C34.908 64.12 35.4413 63.976 36.028 63.976V66.872H35.276C34.5933 66.872 34.0813 67.0213 33.74 67.32C33.3987 67.608 33.228 68.12 33.228 68.856V73H30.492V64.072H33.228V65.56ZM36.7918 68.52C36.7918 67.6027 36.9624 66.7973 37.3038 66.104C37.6558 65.4107 38.1304 64.8773 38.7278 64.504C39.3251 64.1307 39.9918 63.944 40.7278 63.944C41.3571 63.944 41.9064 64.072 42.3758 64.328C42.8558 64.584 43.2238 64.92 43.4798 65.336V64.072H46.2158V73H43.4798V71.736C43.2131 72.152 42.8398 72.488 42.3598 72.744C41.8904 73 41.3411 73.128 40.7118 73.128C39.9864 73.128 39.3251 72.9413 38.7278 72.568C38.1304 72.184 37.6558 71.6453 37.3038 70.952C36.9624 70.248 36.7918 69.4373 36.7918 68.52ZM43.4798 68.536C43.4798 67.8533 43.2878 67.3147 42.9038 66.92C42.5304 66.5253 42.0718 66.328 41.5278 66.328C40.9838 66.328 40.5198 66.5253 40.1358 66.92C39.7624 67.304 39.5758 67.8373 39.5758 68.52C39.5758 69.2027 39.7624 69.7467 40.1358 70.152C40.5198 70.5467 40.9838 70.744 41.5278 70.744C42.0718 70.744 42.5304 70.5467 42.9038 70.152C43.2878 69.7573 43.4798 69.2187 43.4798 68.536ZM49.5551 63.144C49.0751 63.144 48.6805 63.0053 48.3711 62.728C48.0725 62.44 47.9231 62.088 47.9231 61.672C47.9231 61.2453 48.0725 60.8933 48.3711 60.616C48.6805 60.328 49.0751 60.184 49.5551 60.184C50.0245 60.184 50.4085 60.328 50.7071 60.616C51.0165 60.8933 51.1711 61.2453 51.1711 61.672C51.1711 62.088 51.0165 62.44 50.7071 62.728C50.4085 63.0053 50.0245 63.144 49.5551 63.144ZM50.9311 74.152C50.9311 75.2507 50.6538 76.04 50.0991 76.52C49.5445 77.0107 48.7711 77.256 47.7791 77.256H46.7071V74.936H47.3631C47.6618 74.936 47.8751 74.8773 48.0031 74.76C48.1311 74.6427 48.1951 74.4507 48.1951 74.184V64.072H50.9311V74.152ZM61.3142 68.392C61.3142 68.648 61.2983 68.9147 61.2663 69.192H55.0743C55.1169 69.7467 55.2929 70.1733 55.6023 70.472C55.9223 70.76 56.3116 70.904 56.7703 70.904C57.4529 70.904 57.9276 70.616 58.1943 70.04H61.1063C60.9569 70.6267 60.6849 71.1547 60.2903 71.624C59.9063 72.0933 59.4209 72.4613 58.8343 72.728C58.2476 72.9947 57.5916 73.128 56.8663 73.128C55.9916 73.128 55.2129 72.9413 54.5303 72.568C53.8476 72.1947 53.3143 71.6613 52.9303 70.968C52.5463 70.2747 52.3543 69.464 52.3543 68.536C52.3543 67.608 52.5409 66.7973 52.9143 66.104C53.2983 65.4107 53.8316 64.8773 54.5143 64.504C55.1969 64.1307 55.9809 63.944 56.8663 63.944C57.7303 63.944 58.4983 64.1253 59.1703 64.488C59.8423 64.8507 60.3649 65.368 60.7383 66.04C61.1223 66.712 61.3142 67.496 61.3142 68.392ZM58.5143 67.672C58.5143 67.2027 58.3543 66.8293 58.0343 66.552C57.7143 66.2747 57.3143 66.136 56.8343 66.136C56.3756 66.136 55.9863 66.2693 55.6663 66.536C55.3569 66.8027 55.1649 67.1813 55.0903 67.672H58.5143ZM67.7336 70.68V73H66.3416C65.3496 73 64.5763 72.76 64.0216 72.28C63.467 71.7893 63.1896 70.9947 63.1896 69.896V66.344H62.1016V64.072H63.1896V61.896H65.9256V64.072H67.7176V66.344H65.9256V69.928C65.9256 70.1947 65.9896 70.3867 66.1176 70.504C66.2456 70.6213 66.459 70.68 66.7576 70.68H67.7336ZM73.3216 73.128C72.447 73.128 71.6576 72.9413 70.9536 72.568C70.2603 72.1947 69.711 71.6613 69.3056 70.968C68.911 70.2747 68.7136 69.464 68.7136 68.536C68.7136 67.6187 68.9163 66.8133 69.3216 66.12C69.727 65.416 70.2816 64.8773 70.9856 64.504C71.6896 64.1307 72.479 63.944 73.3536 63.944C74.2283 63.944 75.0176 64.1307 75.7216 64.504C76.4256 64.8773 76.9803 65.416 77.3856 66.12C77.791 66.8133 77.9936 67.6187 77.9936 68.536C77.9936 69.4533 77.7856 70.264 77.3696 70.968C76.9643 71.6613 76.4043 72.1947 75.6896 72.568C74.9856 72.9413 74.1963 73.128 73.3216 73.128ZM73.3216 70.76C73.8443 70.76 74.287 70.568 74.6496 70.184C75.023 69.8 75.2096 69.2507 75.2096 68.536C75.2096 67.8213 75.0283 67.272 74.6656 66.888C74.3136 66.504 73.8763 66.312 73.3536 66.312C72.8203 66.312 72.3776 66.504 72.0256 66.888C71.6736 67.2613 71.4976 67.8107 71.4976 68.536C71.4976 69.2507 71.6683 69.8 72.0096 70.184C72.3616 70.568 72.799 70.76 73.3216 70.76ZM75.4336 61.784L71.5776 63.4V61.512L75.4336 59.656V61.784ZM82.1811 65.56C82.5011 65.0693 82.9011 64.6853 83.3811 64.408C83.8611 64.12 84.3945 63.976 84.9811 63.976V66.872H84.2291C83.5465 66.872 83.0345 67.0213 82.6931 67.32C82.3518 67.608 82.1811 68.12 82.1811 68.856V73H79.4451V64.072H82.1811V65.56ZM87.6649 63.144C87.1849 63.144 86.7902 63.0053 86.4809 62.728C86.1822 62.44 86.0329 62.088 86.0329 61.672C86.0329 61.2453 86.1822 60.8933 86.4809 60.616C86.7902 60.328 87.1849 60.184 87.6649 60.184C88.1342 60.184 88.5182 60.328 88.8169 60.616C89.1262 60.8933 89.2809 61.2453 89.2809 61.672C89.2809 62.088 89.1262 62.44 88.8169 62.728C88.5182 63.0053 88.1342 63.144 87.6649 63.144ZM89.0249 64.072V73H86.2889V64.072H89.0249ZM90.4636 68.52C90.4636 67.6027 90.6343 66.7973 90.9756 66.104C91.3276 65.4107 91.8023 64.8773 92.3996 64.504C92.997 64.1307 93.6636 63.944 94.3996 63.944C95.029 63.944 95.5783 64.072 96.0476 64.328C96.5276 64.584 96.8956 64.92 97.1516 65.336V64.072H99.8876V73H97.1516V71.736C96.885 72.152 96.5116 72.488 96.0316 72.744C95.5623 73 95.013 73.128 94.3836 73.128C93.6583 73.128 92.997 72.9413 92.3996 72.568C91.8023 72.184 91.3276 71.6453 90.9756 70.952C90.6343 70.248 90.4636 69.4373 90.4636 68.52ZM97.1516 68.536C97.1516 67.8533 96.9596 67.3147 96.5756 66.92C96.2023 66.5253 95.7436 66.328 95.1996 66.328C94.6556 66.328 94.1916 66.5253 93.8076 66.92C93.4343 67.304 93.2476 67.8373 93.2476 68.52C93.2476 69.2027 93.4343 69.7467 93.8076 70.152C94.1916 70.5467 94.6556 70.744 95.1996 70.744C95.7436 70.744 96.2023 70.5467 96.5756 70.152C96.9596 69.7573 97.1516 69.2187 97.1516 68.536ZM104.714 68.52C104.714 67.6027 104.884 66.7973 105.226 66.104C105.578 65.4107 106.052 64.8773 106.65 64.504C107.247 64.1307 107.914 63.944 108.65 63.944C109.236 63.944 109.77 64.0667 110.25 64.312C110.74 64.5573 111.124 64.888 111.402 65.304V61.16H114.138V73H111.402V71.72C111.146 72.1467 110.778 72.488 110.298 72.744C109.828 73 109.279 73.128 108.65 73.128C107.914 73.128 107.247 72.9413 106.65 72.568C106.052 72.184 105.578 71.6453 105.226 70.952C104.884 70.248 104.714 69.4373 104.714 68.52ZM111.402 68.536C111.402 67.8533 111.21 67.3147 110.826 66.92C110.452 66.5253 109.994 66.328 109.45 66.328C108.906 66.328 108.442 66.5253 108.058 66.92C107.684 67.304 107.498 67.8373 107.498 68.52C107.498 69.2027 107.684 69.7467 108.058 70.152C108.442 70.5467 108.906 70.744 109.45 70.744C109.994 70.744 110.452 70.5467 110.826 70.152C111.21 69.7573 111.402 69.2187 111.402 68.536ZM117.493 63.144C117.013 63.144 116.618 63.0053 116.309 62.728C116.01 62.44 115.861 62.088 115.861 61.672C115.861 61.2453 116.01 60.8933 116.309 60.616C116.618 60.328 117.013 60.184 117.493 60.184C117.962 60.184 118.346 60.328 118.645 60.616C118.954 60.8933 119.109 61.2453 119.109 61.672C119.109 62.088 118.954 62.44 118.645 62.728C118.346 63.0053 117.962 63.144 117.493 63.144ZM118.853 64.072V73H116.117V64.072H118.853ZM126.276 63.976C127.321 63.976 128.153 64.3173 128.772 65C129.401 65.672 129.716 66.6 129.716 67.784V73H126.996V68.152C126.996 67.5547 126.841 67.0907 126.532 66.76C126.222 66.4293 125.806 66.264 125.284 66.264C124.761 66.264 124.345 66.4293 124.036 66.76C123.726 67.0907 123.572 67.5547 123.572 68.152V73H120.836V64.072H123.572V65.256C123.849 64.8613 124.222 64.552 124.692 64.328C125.161 64.0933 125.689 63.976 126.276 63.976ZM131.073 68.52C131.073 67.6027 131.244 66.7973 131.585 66.104C131.937 65.4107 132.412 64.8773 133.009 64.504C133.606 64.1307 134.273 63.944 135.009 63.944C135.638 63.944 136.188 64.072 136.657 64.328C137.137 64.584 137.505 64.92 137.761 65.336V64.072H140.497V73H137.761V71.736C137.494 72.152 137.121 72.488 136.641 72.744C136.172 73 135.622 73.128 134.993 73.128C134.268 73.128 133.606 72.9413 133.009 72.568C132.412 72.184 131.937 71.6453 131.585 70.952C131.244 70.248 131.073 69.4373 131.073 68.52ZM137.761 68.536C137.761 67.8533 137.569 67.3147 137.185 66.92C136.812 66.5253 136.353 66.328 135.809 66.328C135.265 66.328 134.801 66.5253 134.417 66.92C134.044 67.304 133.857 67.8373 133.857 68.52C133.857 69.2027 134.044 69.7467 134.417 70.152C134.801 70.5467 135.265 70.744 135.809 70.744C136.353 70.744 136.812 70.5467 137.185 70.152C137.569 69.7573 137.761 69.2187 137.761 68.536ZM136.113 62.152L133.633 63.464V61.576L136.113 60.312L138.593 61.576V63.464L136.113 62.152ZM153.868 63.976C154.978 63.976 155.858 64.312 156.508 64.984C157.17 65.656 157.5 66.5893 157.5 67.784V73H154.78V68.152C154.78 67.576 154.626 67.1333 154.316 66.824C154.018 66.504 153.602 66.344 153.068 66.344C152.535 66.344 152.114 66.504 151.804 66.824C151.506 67.1333 151.356 67.576 151.356 68.152V73H148.636V68.152C148.636 67.576 148.482 67.1333 148.172 66.824C147.874 66.504 147.458 66.344 146.924 66.344C146.391 66.344 145.97 66.504 145.66 66.824C145.362 67.1333 145.212 67.576 145.212 68.152V73H142.476V64.072H145.212V65.192C145.49 64.8187 145.852 64.5253 146.3 64.312C146.748 64.088 147.255 63.976 147.82 63.976C148.492 63.976 149.09 64.12 149.612 64.408C150.146 64.696 150.562 65.1067 150.86 65.64C151.17 65.1493 151.591 64.7493 152.124 64.44C152.658 64.1307 153.239 63.976 153.868 63.976ZM160.79 63.144C160.31 63.144 159.915 63.0053 159.606 62.728C159.307 62.44 159.158 62.088 159.158 61.672C159.158 61.2453 159.307 60.8933 159.606 60.616C159.915 60.328 160.31 60.184 160.79 60.184C161.259 60.184 161.643 60.328 161.942 60.616C162.251 60.8933 162.406 61.2453 162.406 61.672C162.406 62.088 162.251 62.44 161.942 62.728C161.643 63.0053 161.259 63.144 160.79 63.144ZM162.15 64.072V73H159.414V64.072H162.15ZM163.589 68.536C163.589 67.608 163.775 66.7973 164.149 66.104C164.533 65.4107 165.061 64.8773 165.733 64.504C166.415 64.1307 167.194 63.944 168.069 63.944C169.189 63.944 170.122 64.2373 170.869 64.824C171.626 65.4107 172.122 66.2373 172.357 67.304H169.445C169.199 66.6213 168.725 66.28 168.021 66.28C167.519 66.28 167.119 66.4773 166.821 66.872C166.522 67.256 166.373 67.8107 166.373 68.536C166.373 69.2613 166.522 69.8213 166.821 70.216C167.119 70.6 167.519 70.792 168.021 70.792C168.725 70.792 169.199 70.4507 169.445 69.768H172.357C172.122 70.8133 171.626 71.6347 170.869 72.232C170.111 72.8293 169.178 73.128 168.069 73.128C167.194 73.128 166.415 72.9413 165.733 72.568C165.061 72.1947 164.533 71.6613 164.149 70.968C163.775 70.2747 163.589 69.464 163.589 68.536ZM177.884 73.128C177.009 73.128 176.22 72.9413 175.516 72.568C174.823 72.1947 174.273 71.6613 173.868 70.968C173.473 70.2747 173.276 69.464 173.276 68.536C173.276 67.6187 173.479 66.8133 173.884 66.12C174.289 65.416 174.844 64.8773 175.548 64.504C176.252 64.1307 177.041 63.944 177.916 63.944C178.791 63.944 179.58 64.1307 180.284 64.504C180.988 64.8773 181.543 65.416 181.948 66.12C182.353 66.8133 182.556 67.6187 182.556 68.536C182.556 69.4533 182.348 70.264 181.932 70.968C181.527 71.6613 180.967 72.1947 180.252 72.568C179.548 72.9413 178.759 73.128 177.884 73.128ZM177.884 70.76C178.407 70.76 178.849 70.568 179.212 70.184C179.585 69.8 179.772 69.2507 179.772 68.536C179.772 67.8213 179.591 67.272 179.228 66.888C178.876 66.504 178.439 66.312 177.916 66.312C177.383 66.312 176.94 66.504 176.588 66.888C176.236 67.2613 176.06 67.8107 176.06 68.536C176.06 69.2507 176.231 69.8 176.572 70.184C176.924 70.568 177.361 70.76 177.884 70.76ZM187.64 73.128C186.861 73.128 186.168 72.9947 185.56 72.728C184.952 72.4613 184.472 72.0987 184.12 71.64C183.768 71.1707 183.57 70.648 183.528 70.072H186.232C186.264 70.3813 186.408 70.632 186.664 70.824C186.92 71.016 187.234 71.112 187.608 71.112C187.949 71.112 188.21 71.048 188.392 70.92C188.584 70.7813 188.68 70.6053 188.68 70.392C188.68 70.136 188.546 69.9493 188.28 69.832C188.013 69.704 187.581 69.5653 186.984 69.416C186.344 69.2667 185.81 69.112 185.384 68.952C184.957 68.7813 184.589 68.52 184.28 68.168C183.97 67.8053 183.816 67.32 183.816 66.712C183.816 66.2 183.954 65.736 184.232 65.32C184.52 64.8933 184.936 64.5573 185.48 64.312C186.034 64.0667 186.69 63.944 187.448 63.944C188.568 63.944 189.448 64.2213 190.088 64.776C190.738 65.3307 191.112 66.0667 191.208 66.984H188.68C188.637 66.6747 188.498 66.4293 188.264 66.248C188.04 66.0667 187.741 65.976 187.368 65.976C187.048 65.976 186.802 66.04 186.632 66.168C186.461 66.2853 186.376 66.4507 186.376 66.664C186.376 66.92 186.509 67.112 186.776 67.24C187.053 67.368 187.48 67.496 188.056 67.624C188.717 67.7947 189.256 67.9653 189.672 68.136C190.088 68.296 190.45 68.5627 190.76 68.936C191.08 69.2987 191.245 69.7893 191.256 70.408C191.256 70.9307 191.106 71.4 190.808 71.816C190.52 72.2213 190.098 72.5413 189.544 72.776C189 73.0107 188.365 73.128 187.64 73.128ZM194.21 73.128C193.73 73.128 193.335 72.9893 193.026 72.712C192.727 72.424 192.578 72.072 192.578 71.656C192.578 71.2293 192.727 70.872 193.026 70.584C193.335 70.296 193.73 70.152 194.21 70.152C194.679 70.152 195.063 70.296 195.362 70.584C195.671 70.872 195.826 71.2293 195.826 71.656C195.826 72.072 195.671 72.424 195.362 72.712C195.063 72.9893 194.679 73.128 194.21 73.128ZM34.76 192.24C34.76 192.56 34.74 192.893 34.7 193.24H26.96C27.0133 193.933 27.2333 194.467 27.62 194.84C28.02 195.2 28.5067 195.38 29.08 195.38C29.9333 195.38 30.5267 195.02 30.86 194.3H34.5C34.3133 195.033 33.9733 195.693 33.48 196.28C33 196.867 32.3933 197.327 31.66 197.66C30.9267 197.993 30.1067 198.16 29.2 198.16C28.1067 198.16 27.1333 197.927 26.28 197.46C25.4267 196.993 24.76 196.327 24.28 195.46C23.8 194.593 23.56 193.58 23.56 192.42C23.56 191.26 23.7933 190.247 24.26 189.38C24.74 188.513 25.4067 187.847 26.26 187.38C27.1133 186.913 28.0933 186.68 29.2 186.68C30.28 186.68 31.24 186.907 32.08 187.36C32.92 187.813 33.5733 188.46 34.04 189.3C34.52 190.14 34.76 191.12 34.76 192.24ZM31.26 191.34C31.26 190.753 31.06 190.287 30.66 189.94C30.26 189.593 29.76 189.42 29.16 189.42C28.5867 189.42 28.1 189.587 27.7 189.92C27.3133 190.253 27.0733 190.727 26.98 191.34H31.26ZM31.5 183.98L26.68 186V183.64L31.5 181.32V183.98ZM44.7625 186.768C45.9465 186.768 46.9812 187.003 47.8665 187.472C48.7518 187.941 49.4345 188.603 49.9145 189.456C50.4052 190.299 50.6505 191.275 50.6505 192.384C50.6505 193.483 50.4052 194.459 49.9145 195.312C49.4345 196.165 48.7465 196.827 47.8505 197.296C46.9652 197.765 45.9358 198 44.7625 198H40.5545V186.768H44.7625ZM44.5865 195.632C45.6212 195.632 46.4265 195.349 47.0025 194.784C47.5785 194.219 47.8665 193.419 47.8665 192.384C47.8665 191.349 47.5785 190.544 47.0025 189.968C46.4265 189.392 45.6212 189.104 44.5865 189.104H43.2905V195.632H44.5865ZM60.5955 193.392C60.5955 193.648 60.5795 193.915 60.5475 194.192H54.3555C54.3982 194.747 54.5742 195.173 54.8835 195.472C55.2035 195.76 55.5928 195.904 56.0515 195.904C56.7342 195.904 57.2088 195.616 57.4755 195.04H60.3875C60.2382 195.627 59.9662 196.155 59.5715 196.624C59.1875 197.093 58.7022 197.461 58.1155 197.728C57.5288 197.995 56.8728 198.128 56.1475 198.128C55.2728 198.128 54.4942 197.941 53.8115 197.568C53.1288 197.195 52.5955 196.661 52.2115 195.968C51.8275 195.275 51.6355 194.464 51.6355 193.536C51.6355 192.608 51.8222 191.797 52.1955 191.104C52.5795 190.411 53.1128 189.877 53.7955 189.504C54.4782 189.131 55.2622 188.944 56.1475 188.944C57.0115 188.944 57.7795 189.125 58.4515 189.488C59.1235 189.851 59.6462 190.368 60.0195 191.04C60.4035 191.712 60.5955 192.496 60.5955 193.392ZM57.7955 192.672C57.7955 192.203 57.6355 191.829 57.3155 191.552C56.9955 191.275 56.5955 191.136 56.1155 191.136C55.6568 191.136 55.2675 191.269 54.9475 191.536C54.6382 191.803 54.4462 192.181 54.3715 192.672H57.7955ZM65.6709 198.128C64.8922 198.128 64.1989 197.995 63.5909 197.728C62.9829 197.461 62.5029 197.099 62.1509 196.64C61.7989 196.171 61.6015 195.648 61.5589 195.072H64.2629C64.2949 195.381 64.4389 195.632 64.6949 195.824C64.9509 196.016 65.2655 196.112 65.6389 196.112C65.9802 196.112 66.2415 196.048 66.4229 195.92C66.6149 195.781 66.7109 195.605 66.7109 195.392C66.7109 195.136 66.5775 194.949 66.3109 194.832C66.0442 194.704 65.6122 194.565 65.0149 194.416C64.3749 194.267 63.8415 194.112 63.4149 193.952C62.9882 193.781 62.6202 193.52 62.3109 193.168C62.0015 192.805 61.8469 192.32 61.8469 191.712C61.8469 191.2 61.9855 190.736 62.2629 190.32C62.5509 189.893 62.9669 189.557 63.5109 189.312C64.0655 189.067 64.7215 188.944 65.4789 188.944C66.5989 188.944 67.4789 189.221 68.1189 189.776C68.7695 190.331 69.1429 191.067 69.2389 191.984H66.7109C66.6682 191.675 66.5295 191.429 66.2949 191.248C66.0709 191.067 65.7722 190.976 65.3989 190.976C65.0789 190.976 64.8335 191.04 64.6629 191.168C64.4922 191.285 64.4069 191.451 64.4069 191.664C64.4069 191.92 64.5402 192.112 64.8069 192.24C65.0842 192.368 65.5109 192.496 66.0869 192.624C66.7482 192.795 67.2869 192.965 67.7029 193.136C68.1189 193.296 68.4815 193.563 68.7909 193.936C69.1109 194.299 69.2762 194.789 69.2869 195.408C69.2869 195.931 69.1375 196.4 68.8389 196.816C68.5509 197.221 68.1295 197.541 67.5749 197.776C67.0309 198.011 66.3962 198.128 65.6709 198.128ZM72.3368 188.144C71.8568 188.144 71.4621 188.005 71.1528 187.728C70.8541 187.44 70.7048 187.088 70.7048 186.672C70.7048 186.245 70.8541 185.893 71.1528 185.616C71.4621 185.328 71.8568 185.184 72.3368 185.184C72.8061 185.184 73.1901 185.328 73.4888 185.616C73.7981 185.893 73.9528 186.245 73.9528 186.672C73.9528 187.088 73.7981 187.44 73.4888 187.728C73.1901 188.005 72.8061 188.144 72.3368 188.144ZM73.6968 189.072V198H70.9608V189.072H73.6968ZM79.0715 188.944C79.7008 188.944 80.2502 189.072 80.7195 189.328C81.1995 189.584 81.5675 189.92 81.8235 190.336V189.072H84.5595V197.984C84.5595 198.805 84.3942 199.547 84.0635 200.208C83.7435 200.88 83.2475 201.413 82.5755 201.808C81.9142 202.203 81.0875 202.4 80.0955 202.4C78.7728 202.4 77.7008 202.085 76.8795 201.456C76.0582 200.837 75.5888 199.995 75.4715 198.928H78.1755C78.2608 199.269 78.4635 199.536 78.7835 199.728C79.1035 199.931 79.4982 200.032 79.9675 200.032C80.5328 200.032 80.9808 199.867 81.3115 199.536C81.6528 199.216 81.8235 198.699 81.8235 197.984V196.72C81.5568 197.136 81.1888 197.477 80.7195 197.744C80.2502 198 79.7008 198.128 79.0715 198.128C78.3355 198.128 77.6688 197.941 77.0715 197.568C76.4742 197.184 75.9995 196.645 75.6475 195.952C75.3062 195.248 75.1355 194.437 75.1355 193.52C75.1355 192.603 75.3062 191.797 75.6475 191.104C75.9995 190.411 76.4742 189.877 77.0715 189.504C77.6688 189.131 78.3355 188.944 79.0715 188.944ZM81.8235 193.536C81.8235 192.853 81.6315 192.315 81.2475 191.92C80.8742 191.525 80.4155 191.328 79.8715 191.328C79.3275 191.328 78.8635 191.525 78.4795 191.92C78.1062 192.304 77.9195 192.837 77.9195 193.52C77.9195 194.203 78.1062 194.747 78.4795 195.152C78.8635 195.547 79.3275 195.744 79.8715 195.744C80.4155 195.744 80.8742 195.547 81.2475 195.152C81.6315 194.757 81.8235 194.219 81.8235 193.536ZM91.9789 188.976C93.0242 188.976 93.8562 189.317 94.4749 190C95.1042 190.672 95.4189 191.6 95.4189 192.784V198H92.6989V193.152C92.6989 192.555 92.5442 192.091 92.2349 191.76C91.9255 191.429 91.5095 191.264 90.9869 191.264C90.4642 191.264 90.0482 191.429 89.7389 191.76C89.4295 192.091 89.2749 192.555 89.2749 193.152V198H86.5389V189.072H89.2749V190.256C89.5522 189.861 89.9255 189.552 90.3949 189.328C90.8642 189.093 91.3922 188.976 91.9789 188.976ZM112.103 188.976C113.212 188.976 114.092 189.312 114.743 189.984C115.404 190.656 115.735 191.589 115.735 192.784V198H113.015V193.152C113.015 192.576 112.86 192.133 112.551 191.824C112.252 191.504 111.836 191.344 111.303 191.344C110.769 191.344 110.348 191.504 110.039 191.824C109.74 192.133 109.591 192.576 109.591 193.152V198H106.871V193.152C106.871 192.576 106.716 192.133 106.407 191.824C106.108 191.504 105.692 191.344 105.159 191.344C104.625 191.344 104.204 191.504 103.895 191.824C103.596 192.133 103.447 192.576 103.447 193.152V198H100.711V189.072H103.447V190.192C103.724 189.819 104.087 189.525 104.535 189.312C104.983 189.088 105.489 188.976 106.055 188.976C106.727 188.976 107.324 189.12 107.847 189.408C108.38 189.696 108.796 190.107 109.095 190.64C109.404 190.149 109.825 189.749 110.359 189.44C110.892 189.131 111.473 188.976 112.103 188.976ZM121.712 198.128C120.838 198.128 120.048 197.941 119.344 197.568C118.651 197.195 118.102 196.661 117.696 195.968C117.302 195.275 117.104 194.464 117.104 193.536C117.104 192.619 117.307 191.813 117.712 191.12C118.118 190.416 118.672 189.877 119.376 189.504C120.08 189.131 120.87 188.944 121.744 188.944C122.619 188.944 123.408 189.131 124.112 189.504C124.816 189.877 125.371 190.416 125.776 191.12C126.182 191.813 126.384 192.619 126.384 193.536C126.384 194.453 126.176 195.264 125.76 195.968C125.355 196.661 124.795 197.195 124.08 197.568C123.376 197.941 122.587 198.128 121.712 198.128ZM121.712 195.76C122.235 195.76 122.678 195.568 123.04 195.184C123.414 194.8 123.6 194.251 123.6 193.536C123.6 192.821 123.419 192.272 123.056 191.888C122.704 191.504 122.267 191.312 121.744 191.312C121.211 191.312 120.768 191.504 120.416 191.888C120.064 192.261 119.888 192.811 119.888 193.536C119.888 194.251 120.059 194.8 120.4 195.184C120.752 195.568 121.19 195.76 121.712 195.76ZM127.292 193.52C127.292 192.603 127.462 191.797 127.804 191.104C128.156 190.411 128.63 189.877 129.228 189.504C129.825 189.131 130.492 188.944 131.228 188.944C131.814 188.944 132.348 189.067 132.828 189.312C133.318 189.557 133.702 189.888 133.98 190.304V186.16H136.716V198H133.98V196.72C133.724 197.147 133.356 197.488 132.876 197.744C132.406 198 131.857 198.128 131.228 198.128C130.492 198.128 129.825 197.941 129.228 197.568C128.63 197.184 128.156 196.645 127.804 195.952C127.462 195.248 127.292 194.437 127.292 193.52ZM133.98 193.536C133.98 192.853 133.788 192.315 133.404 191.92C133.03 191.525 132.572 191.328 132.028 191.328C131.484 191.328 131.02 191.525 130.636 191.92C130.262 192.304 130.076 192.837 130.076 193.52C130.076 194.203 130.262 194.747 130.636 195.152C131.02 195.547 131.484 195.744 132.028 195.744C132.572 195.744 133.03 195.547 133.404 195.152C133.788 194.757 133.98 194.219 133.98 193.536ZM147.111 193.392C147.111 193.648 147.095 193.915 147.063 194.192H140.871C140.914 194.747 141.09 195.173 141.399 195.472C141.719 195.76 142.108 195.904 142.567 195.904C143.25 195.904 143.724 195.616 143.991 195.04H146.903C146.754 195.627 146.482 196.155 146.087 196.624C145.703 197.093 145.218 197.461 144.631 197.728C144.044 197.995 143.388 198.128 142.663 198.128C141.788 198.128 141.01 197.941 140.327 197.568C139.644 197.195 139.111 196.661 138.727 195.968C138.343 195.275 138.151 194.464 138.151 193.536C138.151 192.608 138.338 191.797 138.711 191.104C139.095 190.411 139.628 189.877 140.311 189.504C140.994 189.131 141.778 188.944 142.663 188.944C143.527 188.944 144.295 189.125 144.967 189.488C145.639 189.851 146.162 190.368 146.535 191.04C146.919 191.712 147.111 192.496 147.111 193.392ZM144.311 192.672C144.311 192.203 144.151 191.829 143.831 191.552C143.511 191.275 143.111 191.136 142.631 191.136C142.172 191.136 141.783 191.269 141.463 191.536C141.154 191.803 140.962 192.181 140.887 192.672H144.311ZM151.291 190.56C151.611 190.069 152.011 189.685 152.491 189.408C152.971 189.12 153.504 188.976 154.091 188.976V191.872H153.339C152.656 191.872 152.144 192.021 151.803 192.32C151.461 192.608 151.291 193.12 151.291 193.856V198H148.555V189.072H151.291V190.56ZM160.838 188.976C161.884 188.976 162.716 189.317 163.334 190C163.964 190.672 164.278 191.6 164.278 192.784V198H161.558V193.152C161.558 192.555 161.404 192.091 161.094 191.76C160.785 191.429 160.369 191.264 159.846 191.264C159.324 191.264 158.908 191.429 158.598 191.76C158.289 192.091 158.134 192.555 158.134 193.152V198H155.398V189.072H158.134V190.256C158.412 189.861 158.785 189.552 159.254 189.328C159.724 189.093 160.252 188.976 160.838 188.976ZM170.244 198.128C169.369 198.128 168.58 197.941 167.876 197.568C167.182 197.195 166.633 196.661 166.228 195.968C165.833 195.275 165.636 194.464 165.636 193.536C165.636 192.619 165.838 191.813 166.243 191.12C166.649 190.416 167.204 189.877 167.908 189.504C168.612 189.131 169.401 188.944 170.276 188.944C171.15 188.944 171.94 189.131 172.644 189.504C173.348 189.877 173.902 190.416 174.308 191.12C174.713 191.813 174.916 192.619 174.916 193.536C174.916 194.453 174.708 195.264 174.292 195.968C173.886 196.661 173.326 197.195 172.612 197.568C171.908 197.941 171.118 198.128 170.244 198.128ZM170.244 195.76C170.766 195.76 171.209 195.568 171.572 195.184C171.945 194.8 172.132 194.251 172.132 193.536C172.132 192.821 171.95 192.272 171.588 191.888C171.236 191.504 170.798 191.312 170.276 191.312C169.742 191.312 169.3 191.504 168.948 191.888C168.596 192.261 168.42 192.811 168.42 193.536C168.42 194.251 168.59 194.8 168.932 195.184C169.284 195.568 169.721 195.76 170.244 195.76ZM179.311 195.472L177.535 200.064H175.791L176.719 195.472H179.311ZM183.807 193.536C183.807 192.608 183.994 191.797 184.367 191.104C184.751 190.411 185.279 189.877 185.951 189.504C186.634 189.131 187.413 188.944 188.287 188.944C189.407 188.944 190.341 189.237 191.087 189.824C191.845 190.411 192.341 191.237 192.575 192.304H189.663C189.418 191.621 188.943 191.28 188.239 191.28C187.738 191.28 187.338 191.477 187.039 191.872C186.741 192.256 186.591 192.811 186.591 193.536C186.591 194.261 186.741 194.821 187.039 195.216C187.338 195.6 187.738 195.792 188.239 195.792C188.943 195.792 189.418 195.451 189.663 194.768H192.575C192.341 195.813 191.845 196.635 191.087 197.232C190.33 197.829 189.397 198.128 188.287 198.128C187.413 198.128 186.634 197.941 185.951 197.568C185.279 197.195 184.751 196.661 184.367 195.968C183.994 195.275 183.807 194.464 183.807 193.536ZM196.775 186.16V198H194.039V186.16H196.775ZM207.174 193.392C207.174 193.648 207.158 193.915 207.126 194.192H200.934C200.976 194.747 201.152 195.173 201.462 195.472C201.782 195.76 202.171 195.904 202.63 195.904C203.312 195.904 203.787 195.616 204.054 195.04H206.966C206.816 195.627 206.544 196.155 206.15 196.624C205.766 197.093 205.28 197.461 204.694 197.728C204.107 197.995 203.451 198.128 202.726 198.128C201.851 198.128 201.072 197.941 200.39 197.568C199.707 197.195 199.174 196.661 198.79 195.968C198.406 195.275 198.214 194.464 198.214 193.536C198.214 192.608 198.4 191.797 198.774 191.104C199.158 190.411 199.691 189.877 200.374 189.504C201.056 189.131 201.84 188.944 202.726 188.944C203.59 188.944 204.358 189.125 205.03 189.488C205.702 189.851 206.224 190.368 206.598 191.04C206.982 191.712 207.174 192.496 207.174 193.392ZM204.374 192.672C204.374 192.203 204.214 191.829 203.894 191.552C203.574 191.275 203.174 191.136 202.694 191.136C202.235 191.136 201.846 191.269 201.526 191.536C201.216 191.803 201.024 192.181 200.95 192.672H204.374ZM208.073 193.52C208.073 192.603 208.244 191.797 208.585 191.104C208.937 190.411 209.412 189.877 210.009 189.504C210.606 189.131 211.273 188.944 212.009 188.944C212.638 188.944 213.188 189.072 213.657 189.328C214.137 189.584 214.505 189.92 214.761 190.336V189.072H217.497V198H214.761V196.736C214.494 197.152 214.121 197.488 213.641 197.744C213.172 198 212.622 198.128 211.993 198.128C211.268 198.128 210.606 197.941 210.009 197.568C209.412 197.184 208.937 196.645 208.585 195.952C208.244 195.248 208.073 194.437 208.073 193.52ZM214.761 193.536C214.761 192.853 214.569 192.315 214.185 191.92C213.812 191.525 213.353 191.328 212.809 191.328C212.265 191.328 211.801 191.525 211.417 191.92C211.044 192.304 210.857 192.837 210.857 193.52C210.857 194.203 211.044 194.747 211.417 195.152C211.801 195.547 212.265 195.744 212.809 195.744C213.353 195.744 213.812 195.547 214.185 195.152C214.569 194.757 214.761 194.219 214.761 193.536ZM224.916 188.976C225.962 188.976 226.794 189.317 227.412 190C228.042 190.672 228.356 191.6 228.356 192.784V198H225.636V193.152C225.636 192.555 225.482 192.091 225.172 191.76C224.863 191.429 224.447 191.264 223.924 191.264C223.402 191.264 222.986 191.429 222.676 191.76C222.367 192.091 222.212 192.555 222.212 193.152V198H219.476V189.072H222.212V190.256C222.49 189.861 222.863 189.552 223.332 189.328C223.802 189.093 224.33 188.976 224.916 188.976ZM242.064 193.392C242.064 193.648 242.048 193.915 242.016 194.192H235.824C235.867 194.747 236.043 195.173 236.352 195.472C236.672 195.76 237.062 195.904 237.52 195.904C238.203 195.904 238.678 195.616 238.944 195.04H241.856C241.707 195.627 241.435 196.155 241.04 196.624C240.656 197.093 240.171 197.461 239.584 197.728C238.998 197.995 238.342 198.128 237.616 198.128C236.742 198.128 235.963 197.941 235.28 197.568C234.598 197.195 234.064 196.661 233.68 195.968C233.296 195.275 233.104 194.464 233.104 193.536C233.104 192.608 233.291 191.797 233.664 191.104C234.048 190.411 234.582 189.877 235.264 189.504C235.947 189.131 236.731 188.944 237.616 188.944C238.48 188.944 239.248 189.125 239.92 189.488C240.592 189.851 241.115 190.368 241.488 191.04C241.872 191.712 242.064 192.496 242.064 193.392ZM239.264 192.672C239.264 192.203 239.104 191.829 238.784 191.552C238.464 191.275 238.064 191.136 237.584 191.136C237.126 191.136 236.736 191.269 236.416 191.536C236.107 191.803 235.915 192.181 235.84 192.672H239.264ZM26.728 214.336C26.9947 213.92 27.3627 213.584 27.832 213.328C28.3013 213.072 28.8507 212.944 29.48 212.944C30.216 212.944 30.8827 213.131 31.48 213.504C32.0773 213.877 32.5467 214.411 32.888 215.104C33.24 215.797 33.416 216.603 33.416 217.52C33.416 218.437 33.24 219.248 32.888 219.952C32.5467 220.645 32.0773 221.184 31.48 221.568C30.8827 221.941 30.216 222.128 29.48 222.128C28.8613 222.128 28.312 222 27.832 221.744C27.3627 221.488 26.9947 221.157 26.728 220.752V226.256H23.992V213.072H26.728V214.336ZM30.632 217.52C30.632 216.837 30.44 216.304 30.056 215.92C29.6827 215.525 29.2187 215.328 28.664 215.328C28.12 215.328 27.656 215.525 27.272 215.92C26.8987 216.315 26.712 216.853 26.712 217.536C26.712 218.219 26.8987 218.757 27.272 219.152C27.656 219.547 28.12 219.744 28.664 219.744C29.208 219.744 29.672 219.547 30.056 219.152C30.44 218.747 30.632 218.203 30.632 217.52ZM37.5874 214.56C37.9074 214.069 38.3074 213.685 38.7874 213.408C39.2674 213.12 39.8007 212.976 40.3874 212.976V215.872H39.6354C38.9527 215.872 38.4407 216.021 38.0994 216.32C37.758 216.608 37.5874 217.12 37.5874 217.856V222H34.8514V213.072H37.5874V214.56ZM45.7591 222.128C44.8845 222.128 44.0951 221.941 43.3911 221.568C42.6978 221.195 42.1485 220.661 41.7431 219.968C41.3485 219.275 41.1511 218.464 41.1511 217.536C41.1511 216.619 41.3538 215.813 41.7591 215.12C42.1645 214.416 42.7191 213.877 43.4231 213.504C44.1271 213.131 44.9165 212.944 45.7911 212.944C46.6658 212.944 47.4551 213.131 48.1591 213.504C48.8631 213.877 49.4178 214.416 49.8231 215.12C50.2285 215.813 50.4311 216.619 50.4311 217.536C50.4311 218.453 50.2231 219.264 49.8071 219.968C49.4018 220.661 48.8418 221.195 48.1271 221.568C47.4231 221.941 46.6338 222.128 45.7591 222.128ZM45.7591 219.76C46.2818 219.76 46.7245 219.568 47.0871 219.184C47.4605 218.8 47.6471 218.251 47.6471 217.536C47.6471 216.821 47.4658 216.272 47.1031 215.888C46.7511 215.504 46.3138 215.312 45.7911 215.312C45.2578 215.312 44.8151 215.504 44.4631 215.888C44.1111 216.261 43.9351 216.811 43.9351 217.536C43.9351 218.251 44.1058 218.8 44.4471 219.184C44.7991 219.568 45.2365 219.76 45.7591 219.76ZM56.3626 215.344H54.8906V222H52.1546V215.344H51.1626V213.072H52.1546V212.816C52.1546 211.717 52.4693 210.885 53.0986 210.32C53.728 209.744 54.6506 209.456 55.8666 209.456C56.0693 209.456 56.2186 209.461 56.3146 209.472V211.792C55.792 211.76 55.424 211.835 55.2106 212.016C54.9973 212.197 54.8906 212.523 54.8906 212.992V213.072H56.3626V215.344ZM59.0243 212.144C58.5443 212.144 58.1496 212.005 57.8403 211.728C57.5416 211.44 57.3923 211.088 57.3923 210.672C57.3923 210.245 57.5416 209.893 57.8403 209.616C58.1496 209.328 58.5443 209.184 59.0243 209.184C59.4936 209.184 59.8776 209.328 60.1763 209.616C60.4856 209.893 60.6403 210.245 60.6403 210.672C60.6403 211.088 60.4856 211.44 60.1763 211.728C59.8776 212.005 59.4936 212.144 59.0243 212.144ZM60.3843 213.072V222H57.6483V213.072H60.3843ZM65.999 222.128C65.2203 222.128 64.527 221.995 63.919 221.728C63.311 221.461 62.831 221.099 62.479 220.64C62.127 220.171 61.9297 219.648 61.887 219.072H64.591C64.623 219.381 64.767 219.632 65.023 219.824C65.279 220.016 65.5937 220.112 65.967 220.112C66.3083 220.112 66.5697 220.048 66.751 219.92C66.943 219.781 67.039 219.605 67.039 219.392C67.039 219.136 66.9057 218.949 66.639 218.832C66.3723 218.704 65.9403 218.565 65.343 218.416C64.703 218.267 64.1697 218.112 63.743 217.952C63.3163 217.781 62.9483 217.52 62.639 217.168C62.3297 216.805 62.175 216.32 62.175 215.712C62.175 215.2 62.3137 214.736 62.591 214.32C62.879 213.893 63.295 213.557 63.839 213.312C64.3937 213.067 65.0497 212.944 65.807 212.944C66.927 212.944 67.807 213.221 68.447 213.776C69.0977 214.331 69.471 215.067 69.567 215.984H67.039C66.9963 215.675 66.8577 215.429 66.623 215.248C66.399 215.067 66.1003 214.976 65.727 214.976C65.407 214.976 65.1617 215.04 64.991 215.168C64.8203 215.285 64.735 215.451 64.735 215.664C64.735 215.92 64.8683 216.112 65.135 216.24C65.4123 216.368 65.839 216.496 66.415 216.624C67.0763 216.795 67.615 216.965 68.031 217.136C68.447 217.296 68.8097 217.563 69.119 217.936C69.439 218.299 69.6043 218.789 69.615 219.408C69.615 219.931 69.4657 220.4 69.167 220.816C68.879 221.221 68.4577 221.541 67.903 221.776C67.359 222.011 66.7243 222.128 65.999 222.128ZM74.9209 222.128C74.1422 222.128 73.4489 221.995 72.8409 221.728C72.2329 221.461 71.7529 221.099 71.4009 220.64C71.0489 220.171 70.8515 219.648 70.8089 219.072H73.5129C73.5449 219.381 73.6889 219.632 73.9449 219.824C74.2009 220.016 74.5155 220.112 74.8889 220.112C75.2302 220.112 75.4915 220.048 75.6729 219.92C75.8649 219.781 75.9609 219.605 75.9609 219.392C75.9609 219.136 75.8275 218.949 75.5609 218.832C75.2942 218.704 74.8622 218.565 74.2649 218.416C73.6249 218.267 73.0915 218.112 72.6649 217.952C72.2382 217.781 71.8702 217.52 71.5609 217.168C71.2515 216.805 71.0969 216.32 71.0969 215.712C71.0969 215.2 71.2355 214.736 71.5129 214.32C71.8009 213.893 72.2169 213.557 72.7609 213.312C73.3155 213.067 73.9715 212.944 74.7289 212.944C75.8489 212.944 76.7289 213.221 77.3689 213.776C78.0195 214.331 78.3929 215.067 78.4889 215.984H75.9609C75.9182 215.675 75.7795 215.429 75.5449 215.248C75.3209 215.067 75.0222 214.976 74.6489 214.976C74.3289 214.976 74.0835 215.04 73.9129 215.168C73.7422 215.285 73.6569 215.451 73.6569 215.664C73.6569 215.92 73.7902 216.112 74.0569 216.24C74.3342 216.368 74.7609 216.496 75.3369 216.624C75.9982 216.795 76.5369 216.965 76.9529 217.136C77.3689 217.296 77.7315 217.563 78.0409 217.936C78.3609 218.299 78.5262 218.789 78.5369 219.408C78.5369 219.931 78.3875 220.4 78.0889 220.816C77.8009 221.221 77.3795 221.541 76.8249 221.776C76.2809 222.011 75.6462 222.128 74.9209 222.128ZM81.5868 212.144C81.1068 212.144 80.7121 212.005 80.4028 211.728C80.1041 211.44 79.9548 211.088 79.9548 210.672C79.9548 210.245 80.1041 209.893 80.4028 209.616C80.7121 209.328 81.1068 209.184 81.5868 209.184C82.0561 209.184 82.4401 209.328 82.7388 209.616C83.0481 209.893 83.2028 210.245 83.2028 210.672C83.2028 211.088 83.0481 211.44 82.7388 211.728C82.4401 212.005 82.0561 212.144 81.5868 212.144ZM82.9468 213.072V222H80.2108V213.072H82.9468ZM88.9935 222.128C88.1188 222.128 87.3295 221.941 86.6255 221.568C85.9322 221.195 85.3828 220.661 84.9775 219.968C84.5828 219.275 84.3855 218.464 84.3855 217.536C84.3855 216.619 84.5882 215.813 84.9935 215.12C85.3988 214.416 85.9535 213.877 86.6575 213.504C87.3615 213.131 88.1508 212.944 89.0255 212.944C89.9002 212.944 90.6895 213.131 91.3935 213.504C92.0975 213.877 92.6522 214.416 93.0575 215.12C93.4628 215.813 93.6655 216.619 93.6655 217.536C93.6655 218.453 93.4575 219.264 93.0415 219.968C92.6362 220.661 92.0762 221.195 91.3615 221.568C90.6575 221.941 89.8682 222.128 88.9935 222.128ZM88.9935 219.76C89.5162 219.76 89.9588 219.568 90.3215 219.184C90.6948 218.8 90.8815 218.251 90.8815 217.536C90.8815 216.821 90.7002 216.272 90.3375 215.888C89.9855 215.504 89.5482 215.312 89.0255 215.312C88.4922 215.312 88.0495 215.504 87.6975 215.888C87.3455 216.261 87.1695 216.811 87.1695 217.536C87.1695 218.251 87.3402 218.8 87.6815 219.184C88.0335 219.568 88.4708 219.76 88.9935 219.76ZM100.557 212.976C101.602 212.976 102.434 213.317 103.053 214C103.682 214.672 103.997 215.6 103.997 216.784V222H101.277V217.152C101.277 216.555 101.122 216.091 100.813 215.76C100.504 215.429 100.088 215.264 99.565 215.264C99.0423 215.264 98.6263 215.429 98.317 215.76C98.0077 216.091 97.853 216.555 97.853 217.152V222H95.117V213.072H97.853V214.256C98.1303 213.861 98.5037 213.552 98.973 213.328C99.4423 213.093 99.9703 212.976 100.557 212.976ZM105.354 217.52C105.354 216.603 105.525 215.797 105.866 215.104C106.218 214.411 106.693 213.877 107.29 213.504C107.888 213.131 108.554 212.944 109.29 212.944C109.92 212.944 110.469 213.072 110.938 213.328C111.418 213.584 111.786 213.92 112.042 214.336V213.072H114.778V222H112.042V220.736C111.776 221.152 111.402 221.488 110.922 221.744C110.453 222 109.904 222.128 109.274 222.128C108.549 222.128 107.888 221.941 107.29 221.568C106.693 221.184 106.218 220.645 105.866 219.952C105.525 219.248 105.354 218.437 105.354 217.52ZM112.042 217.536C112.042 216.853 111.85 216.315 111.466 215.92C111.093 215.525 110.634 215.328 110.09 215.328C109.546 215.328 109.082 215.525 108.698 215.92C108.325 216.304 108.138 216.837 108.138 217.52C108.138 218.203 108.325 218.747 108.698 219.152C109.082 219.547 109.546 219.744 110.09 219.744C110.634 219.744 111.093 219.547 111.466 219.152C111.85 218.757 112.042 218.219 112.042 217.536ZM119.494 210.16V222H116.758V210.16H119.494ZM122.756 222.128C122.276 222.128 121.882 221.989 121.572 221.712C121.274 221.424 121.124 221.072 121.124 220.656C121.124 220.229 121.274 219.872 121.572 219.584C121.882 219.296 122.276 219.152 122.756 219.152C123.226 219.152 123.61 219.296 123.908 219.584C124.218 219.872 124.372 220.229 124.372 220.656C124.372 221.072 124.218 221.424 123.908 221.712C123.61 221.989 123.226 222.128 122.756 222.128Z" fill="white"/>
<path d="M37.184 124.252C34.808 124.252 32.624 123.7 30.632 122.596C28.664 121.492 27.092 119.956 25.916 117.988C24.764 115.996 24.188 113.764 24.188 111.292C24.188 108.82 24.764 106.6 25.916 104.632C27.092 102.664 28.664 101.128 30.632 100.024C32.624 98.92 34.808 98.368 37.184 98.368C39.56 98.368 41.732 98.92 43.7 100.024C45.692 101.128 47.252 102.664 48.38 104.632C49.532 106.6 50.108 108.82 50.108 111.292C50.108 113.764 49.532 115.996 48.38 117.988C47.228 119.956 45.668 121.492 43.7 122.596C41.732 123.7 39.56 124.252 37.184 124.252ZM37.184 118.636C39.2 118.636 40.808 117.964 42.008 116.62C43.232 115.276 43.844 113.5 43.844 111.292C43.844 109.06 43.232 107.284 42.008 105.964C40.808 104.62 39.2 103.948 37.184 103.948C35.144 103.948 33.512 104.608 32.288 105.928C31.088 107.248 30.488 109.036 30.488 111.292C30.488 113.524 31.088 115.312 32.288 116.656C33.512 117.976 35.144 118.636 37.184 118.636ZM89.7817 98.728V124H83.6257V108.844L77.9737 124H73.0057L67.3177 108.808V124H61.1617V98.728H68.4337L75.5257 116.224L82.5457 98.728H89.7817ZM103.353 124.288C101.385 124.288 99.6086 123.868 98.0246 123.028C96.4646 122.188 95.2286 120.988 94.3166 119.428C93.4286 117.868 92.9846 116.044 92.9846 113.956C92.9846 111.892 93.4406 110.08 94.3526 108.52C95.2646 106.936 96.5126 105.724 98.0966 104.884C99.6806 104.044 101.457 103.624 103.425 103.624C105.393 103.624 107.169 104.044 108.753 104.884C110.337 105.724 111.585 106.936 112.497 108.52C113.409 110.08 113.865 111.892 113.865 113.956C113.865 116.02 113.397 117.844 112.461 119.428C111.549 120.988 110.289 122.188 108.681 123.028C107.097 123.868 105.321 124.288 103.353 124.288ZM103.353 118.96C104.529 118.96 105.525 118.528 106.341 117.664C107.181 116.8 107.601 115.564 107.601 113.956C107.601 112.348 107.193 111.112 106.377 110.248C105.585 109.384 104.601 108.952 103.425 108.952C102.225 108.952 101.229 109.384 100.437 110.248C99.6446 111.088 99.2486 112.324 99.2486 113.956C99.2486 115.564 99.6326 116.8 100.401 117.664C101.193 118.528 102.177 118.96 103.353 118.96ZM128.326 118.78V124H125.194C122.962 124 121.222 123.46 119.974 122.38C118.726 121.276 118.102 119.488 118.102 117.016V109.024H115.654V103.912H118.102V99.016H124.258V103.912H128.29V109.024H124.258V117.088C124.258 117.688 124.402 118.12 124.69 118.384C124.978 118.648 125.458 118.78 126.13 118.78H128.326ZM134.851 101.824C133.771 101.824 132.883 101.512 132.187 100.888C131.515 100.24 131.179 99.448 131.179 98.512C131.179 97.552 131.515 96.76 132.187 96.136C132.883 95.488 133.771 95.164 134.851 95.164C135.907 95.164 136.771 95.488 137.443 96.136C138.139 96.76 138.487 97.552 138.487 98.512C138.487 99.448 138.139 100.24 137.443 100.888C136.771 101.512 135.907 101.824 134.851 101.824ZM137.911 103.912V124H131.755V103.912H137.911ZM151.517 124.288C149.549 124.288 147.773 123.868 146.189 123.028C144.629 122.188 143.393 120.988 142.481 119.428C141.593 117.868 141.149 116.044 141.149 113.956C141.149 111.892 141.605 110.08 142.517 108.52C143.429 106.936 144.677 105.724 146.261 104.884C147.845 104.044 149.621 103.624 151.589 103.624C153.557 103.624 155.333 104.044 156.917 104.884C158.501 105.724 159.749 106.936 160.661 108.52C161.573 110.08 162.029 111.892 162.029 113.956C162.029 116.02 161.561 117.844 160.625 119.428C159.713 120.988 158.453 122.188 156.845 123.028C155.261 123.868 153.485 124.288 151.517 124.288ZM151.517 118.96C152.693 118.96 153.689 118.528 154.505 117.664C155.345 116.8 155.765 115.564 155.765 113.956C155.765 112.348 155.357 111.112 154.541 110.248C153.749 109.384 152.765 108.952 151.589 108.952C150.389 108.952 149.393 109.384 148.601 110.248C147.809 111.088 147.413 112.324 147.413 113.956C147.413 115.564 147.797 116.8 148.565 117.664C149.357 118.528 150.341 118.96 151.517 118.96ZM177.535 103.696C179.887 103.696 181.759 104.464 183.151 106C184.567 107.512 185.275 109.6 185.275 112.264V124H179.155V113.092C179.155 111.748 178.807 110.704 178.111 109.96C177.415 109.216 176.479 108.844 175.303 108.844C174.127 108.844 173.191 109.216 172.495 109.96C171.799 110.704 171.451 111.748 171.451 113.092V124H165.295V103.912H171.451V106.576C172.075 105.688 172.915 104.992 173.971 104.488C175.027 103.96 176.215 103.696 177.535 103.696ZM40.532 138.04C41.996 138.352 43.172 139.084 44.06 140.236C44.948 141.364 45.392 142.66 45.392 144.124C45.392 146.236 44.648 147.916 43.16 149.164C41.696 150.388 39.644 151 37.004 151H25.232V125.728H36.608C39.176 125.728 41.18 126.316 42.62 127.492C44.084 128.668 44.816 130.264 44.816 132.28C44.816 133.768 44.42 135.004 43.628 135.988C42.86 136.972 41.828 137.656 40.532 138.04ZM31.388 135.952H35.42C36.428 135.952 37.196 135.736 37.724 135.304C38.276 134.848 38.552 134.188 38.552 133.324C38.552 132.46 38.276 131.8 37.724 131.344C37.196 130.888 36.428 130.66 35.42 130.66H31.388V135.952ZM35.924 146.032C36.956 146.032 37.748 145.804 38.3 145.348C38.876 144.868 39.164 144.184 39.164 143.296C39.164 142.408 38.864 141.712 38.264 141.208C37.688 140.704 36.884 140.452 35.852 140.452H31.388V146.032H35.924ZM58.1065 151.288C56.1385 151.288 54.3625 150.868 52.7785 150.028C51.2185 149.188 49.9825 147.988 49.0705 146.428C48.1825 144.868 47.7385 143.044 47.7385 140.956C47.7385 138.892 48.1945 137.08 49.1065 135.52C50.0185 133.936 51.2665 132.724 52.8505 131.884C54.4345 131.044 56.2105 130.624 58.1785 130.624C60.1465 130.624 61.9225 131.044 63.5065 131.884C65.0905 132.724 66.3385 133.936 67.2505 135.52C68.1625 137.08 68.6185 138.892 68.6185 140.956C68.6185 143.02 68.1505 144.844 67.2145 146.428C66.3025 147.988 65.0425 149.188 63.4345 150.028C61.8505 150.868 60.0745 151.288 58.1065 151.288ZM58.1065 145.96C59.2825 145.96 60.2785 145.528 61.0945 144.664C61.9345 143.8 62.3545 142.564 62.3545 140.956C62.3545 139.348 61.9465 138.112 61.1305 137.248C60.3385 136.384 59.3545 135.952 58.1785 135.952C56.9785 135.952 55.9825 136.384 55.1905 137.248C54.3985 138.088 54.0025 139.324 54.0025 140.956C54.0025 142.564 54.3865 143.8 55.1545 144.664C55.9465 145.528 56.9305 145.96 58.1065 145.96ZM91.7203 130.912V151H85.5643V148.264C84.9403 149.152 84.0883 149.872 83.0083 150.424C81.9523 150.952 80.7763 151.216 79.4803 151.216C77.9443 151.216 76.5883 150.88 75.4123 150.208C74.2363 149.512 73.3243 148.516 72.6763 147.22C72.0283 145.924 71.7043 144.4 71.7043 142.648V130.912H77.8243V141.82C77.8243 143.164 78.1723 144.208 78.8683 144.952C79.5643 145.696 80.5003 146.068 81.6763 146.068C82.8763 146.068 83.8243 145.696 84.5203 144.952C85.2163 144.208 85.5643 143.164 85.5643 141.82V130.912H91.7203ZM108.382 130.696C110.734 130.696 112.606 131.464 113.998 133C115.414 134.512 116.122 136.6 116.122 139.264V151H110.002V140.092C110.002 138.748 109.654 137.704 108.958 136.96C108.262 136.216 107.326 135.844 106.15 135.844C104.974 135.844 104.038 136.216 103.342 136.96C102.646 137.704 102.298 138.748 102.298 140.092V151H96.1422V130.912H102.298V133.576C102.922 132.688 103.762 131.992 104.818 131.488C105.874 130.96 107.062 130.696 108.382 130.696ZM119.176 140.956C119.176 138.868 119.596 137.044 120.436 135.484C121.3 133.924 122.488 132.724 124 131.884C125.536 131.044 127.288 130.624 129.256 130.624C131.776 130.624 133.876 131.284 135.556 132.604C137.26 133.924 138.376 135.784 138.904 138.184H132.352C131.8 136.648 130.732 135.88 129.148 135.88C128.02 135.88 127.12 136.324 126.448 137.212C125.776 138.076 125.44 139.324 125.44 140.956C125.44 142.588 125.776 143.848 126.448 144.736C127.12 145.6 128.02 146.032 129.148 146.032C130.732 146.032 131.8 145.264 132.352 143.728H138.904C138.376 146.08 137.26 147.928 135.556 149.272C133.852 150.616 131.752 151.288 129.256 151.288C127.288 151.288 125.536 150.868 124 150.028C122.488 149.188 121.3 147.988 120.436 146.428C119.596 144.868 119.176 143.044 119.176 140.956ZM162.717 130.912L150.117 160.54H143.493L148.101 150.316L139.929 130.912H146.805L151.449 143.476L156.057 130.912H162.717Z" fill="white"/>
<mask id="path-2-outside-1_1007_32" maskUnits="userSpaceOnUse" x="280" y="170" width="195" height="109" fill="black">
<rect fill="white" x="280" y="170" width="195" height="109"/>
<path d="M335.625 218.25C346.375 218.25 358.438 229.062 358.438 244.25C358.438 260.188 345.062 275 324.875 275H281.875V174.25H315C333.25 174.25 346.625 186.562 346.625 200.438C346.625 210.812 339.75 218.25 335.625 218.25ZM324.188 205.25C324.188 200.375 319.938 197.5 314.188 197.5H307.625V213.312H314C319.812 213.312 324.188 210.438 324.188 205.25ZM320.812 250.688C326.938 250.688 332.812 247.688 332.812 241.062C332.812 235.188 328.562 231.625 321 231.625L307.625 231.562V250.688H320.812ZM472.625 217.125C473.125 220.5 473.438 223.75 473.438 226.938C473.438 257.562 450.312 277.375 421.688 277.375C389.688 277.375 365.5 253.5 365.5 224.75C365.5 196 389.75 171.812 421 171.812C433.812 172 448.625 177.438 456.938 185.125L442.125 205.438C436.5 200.188 428.438 196.812 421 196.812C406 196.812 392.812 209.125 392.812 224.688C392.812 238.812 404.125 252.562 422.75 252.562C434.938 252.562 443.625 246.688 444 237.062H420.938V217.125H472.625Z"/>
</mask>
<path d="M281.875 275H280.875V276H281.875V275ZM281.875 174.25V173.25H280.875V174.25H281.875ZM307.625 197.5V196.5H306.625V197.5H307.625ZM307.625 213.312H306.625V214.312H307.625V213.312ZM321 231.625L320.995 232.625H321V231.625ZM307.625 231.562L307.63 230.563L306.625 230.558V231.562H307.625ZM307.625 250.688H306.625V251.688H307.625V250.688ZM335.625 218.25V219.25C345.772 219.25 357.438 229.563 357.438 244.25H358.438H359.438C359.438 228.562 346.978 217.25 335.625 217.25V218.25ZM358.438 244.25H357.438C357.438 259.607 344.538 274 324.875 274V275V276C345.587 276 359.438 260.768 359.438 244.25H358.438ZM324.875 275V274H281.875V275V276H324.875V275ZM281.875 275H282.875V174.25H281.875H280.875V275H281.875ZM281.875 174.25V175.25H315V174.25V173.25H281.875V174.25ZM315 174.25V175.25C332.85 175.25 345.625 187.255 345.625 200.438H346.625H347.625C347.625 185.87 333.65 173.25 315 173.25V174.25ZM346.625 200.438H345.625C345.625 205.405 343.978 209.658 341.856 212.657C340.794 214.157 339.626 215.324 338.51 216.107C337.377 216.902 336.374 217.25 335.625 217.25V218.25V219.25C336.938 219.25 338.341 218.669 339.658 217.744C340.991 216.809 342.316 215.468 343.488 213.812C345.834 210.498 347.625 205.845 347.625 200.438H346.625ZM324.188 205.25H325.188C325.188 202.486 323.967 200.255 321.941 198.745C319.944 197.256 317.216 196.5 314.188 196.5V197.5V198.5C316.909 198.5 319.181 199.182 320.746 200.349C322.283 201.495 323.188 203.139 323.188 205.25H324.188ZM314.188 197.5V196.5H307.625V197.5V198.5H314.188V197.5ZM307.625 197.5H306.625V213.312H307.625H308.625V197.5H307.625ZM307.625 213.312V214.312H314V213.312V212.312H307.625V213.312ZM314 213.312V214.312C317.057 214.312 319.834 213.558 321.874 212.026C323.944 210.471 325.188 208.161 325.188 205.25H324.188H323.188C323.188 207.527 322.244 209.247 320.673 210.427C319.072 211.629 316.755 212.312 314 212.312V213.312ZM320.812 250.688V251.688C324.02 251.688 327.239 250.905 329.686 249.176C332.171 247.421 333.812 244.717 333.812 241.062H332.812H331.812C331.812 244.033 330.516 246.142 328.532 247.543C326.511 248.97 323.73 249.688 320.812 249.688V250.688ZM332.812 241.062H333.812C333.812 237.863 332.643 235.202 330.371 233.363C328.128 231.548 324.924 230.625 321 230.625V231.625V232.625C324.639 232.625 327.341 233.483 329.113 234.918C330.857 236.329 331.812 238.387 331.812 241.062H332.812ZM321 231.625L321.005 230.625L307.63 230.563L307.625 231.562L307.62 232.562L320.995 232.625L321 231.625ZM307.625 231.562H306.625V250.688H307.625H308.625V231.562H307.625ZM307.625 250.688V251.688H320.812V250.688V249.688H307.625V250.688ZM472.625 217.125L473.614 216.978L473.488 216.125H472.625V217.125ZM421 171.812L421.015 170.813L421.007 170.812H421V171.812ZM456.938 185.125L457.745 185.714L458.27 184.995L457.616 184.391L456.938 185.125ZM442.125 205.438L441.443 206.169L442.268 206.939L442.933 206.027L442.125 205.438ZM444 237.062L444.999 237.101L445.04 236.062H444V237.062ZM420.938 237.062H419.938V238.062H420.938V237.062ZM420.938 217.125V216.125H419.938V217.125H420.938ZM472.625 217.125L471.636 217.272C472.131 220.616 472.438 223.814 472.438 226.938H473.438H474.438C474.438 223.686 474.119 220.384 473.614 216.978L472.625 217.125ZM473.438 226.938H472.438C472.438 256.951 449.821 276.375 421.688 276.375V277.375V278.375C450.804 278.375 474.438 258.174 474.438 226.938H473.438ZM421.688 277.375V276.375C390.193 276.375 366.5 252.902 366.5 224.75H365.5H364.5C364.5 254.098 389.182 278.375 421.688 278.375V277.375ZM365.5 224.75H366.5C366.5 196.584 390.27 172.812 421 172.812V171.812V170.812C389.23 170.812 364.5 195.416 364.5 224.75H365.5ZM421 171.812L420.985 172.812C433.591 172.997 448.154 178.364 456.259 185.859L456.938 185.125L457.616 184.391C449.096 176.511 434.034 171.003 421.015 170.813L421 171.812ZM456.938 185.125L456.13 184.536L441.317 204.848L442.125 205.438L442.933 206.027L457.745 185.714L456.938 185.125ZM442.125 205.438L442.807 204.706C437.013 199.298 428.711 195.812 421 195.812V196.812V197.812C428.164 197.812 435.987 201.077 441.443 206.169L442.125 205.438ZM421 196.812V195.812C405.475 195.812 391.812 208.545 391.812 224.688H392.812H393.812C393.812 209.705 406.525 197.812 421 197.812V196.812ZM392.812 224.688H391.812C391.812 239.356 403.564 253.562 422.75 253.562V252.562V251.562C404.686 251.562 393.812 238.269 393.812 224.688H392.812ZM422.75 252.562V253.562C428.992 253.562 434.431 252.059 438.386 249.236C442.365 246.395 444.799 242.241 444.999 237.101L444 237.062L443.001 237.024C442.826 241.509 440.729 245.105 437.224 247.608C433.694 250.128 428.695 251.562 422.75 251.562V252.562ZM444 237.062V236.062H420.938V237.062V238.062H444V237.062ZM420.938 237.062H421.938V217.125H420.938H419.938V237.062H420.938ZM420.938 217.125V218.125H472.625V217.125V216.125H420.938V217.125Z" fill="url(#paint0_linear_1007_32)" mask="url(#path-2-outside-1_1007_32)"/>
</g>
<defs>
<linearGradient id="paint0_linear_1007_32" x1="375.5" y1="173" x2="375.5" y2="364" gradientUnits="userSpaceOnUse">
<stop offset="0.0520473" stop-color="#999999" stop-opacity="0"/>
<stop offset="0.198949" stop-color="#A8A8A8" stop-opacity="0.151188"/>
<stop offset="1" stop-color="white"/>
</linearGradient>
<clipPath id="clip0_1007_32">
<rect width="429" height="286" fill="white"/>
</clipPath>
</defs>
</svg>
