<svg width="429" height="286" viewBox="0 0 429 286" fill="none" xmlns="http://www.w3.org/2000/svg">
<rect width="429" height="286" fill="#0F121B"/>
<path d="M201.295 141.266C204.323 141.266 208.248 144.391 208.248 149.449C208.248 154.098 204.909 159 198.424 159H186.53V127.516H195.123C200.709 127.516 204.264 131.617 204.264 135.855C204.264 139.195 202.057 141.266 201.295 141.266ZM195.514 133.668H192.838V139.82H195.397C196.901 139.82 198.366 138.531 198.366 136.695C198.366 134.918 196.979 133.668 195.514 133.668ZM197.838 152.828C199.889 152.828 202.077 151.422 202.077 149C202.077 147.184 200.827 145.367 197.819 145.367H192.838V152.828H197.838ZM244.681 141.324C244.779 142.242 244.837 143.121 244.837 143.98C244.837 153.863 238.021 159.625 229.818 159.625C220.541 159.625 213.236 152.281 213.236 143.297C213.236 134.293 220.58 126.871 229.584 126.871C233.666 126.91 238.021 128.785 241.107 131.793L237.591 137.047C235.13 134.645 232.318 133.277 229.505 133.277C224.623 133.277 219.681 137.418 219.681 143.297C219.681 148.766 223.939 153.258 230.091 153.258C234.584 153.258 237.806 150.953 238.021 147.164H229.877V141.324H244.681Z" fill="white"/>
</svg>
