<svg width="429" height="286" viewBox="0 0 429 286" fill="none" xmlns="http://www.w3.org/2000/svg">
<g clip-path="url(#clip0_1035_3)">
<rect width="429" height="286" fill="#0E1019"/>
<path d="M32.32 41.4V47.08H41.48V52.36H32.32V58.52H42.68V64H25.48V35.92H42.68V41.4H32.32ZM57.6406 35.92C60.6006 35.92 63.1873 36.5067 65.4006 37.68C67.614 38.8533 69.3206 40.5067 70.5206 42.64C71.7473 44.7467 72.3606 47.1867 72.3606 49.96C72.3606 52.7067 71.7473 55.1467 70.5206 57.28C69.3206 59.4133 67.6006 61.0667 65.3606 62.24C63.1473 63.4133 60.574 64 57.6406 64H47.1206V35.92H57.6406ZM57.2006 58.08C59.7873 58.08 61.8006 57.3733 63.2406 55.96C64.6806 54.5467 65.4006 52.5467 65.4006 49.96C65.4006 47.3733 64.6806 45.36 63.2406 43.92C61.8006 42.48 59.7873 41.76 57.2006 41.76H53.9606V58.08H57.2006ZM83.0231 35.92V64H76.1831V35.92H83.0231ZM108.18 35.92V41.4H100.74V64H93.9V41.4H86.46V35.92H108.18ZM51.84 72.92L41.88 101H33.32L23.36 72.92H30.64L37.6 94.12L44.6 72.92H51.84ZM72.1788 96.04H61.6988L60.0188 101H52.8588L63.0188 72.92H70.9388L81.0988 101H73.8588L72.1788 96.04ZM70.4188 90.76L66.9388 80.48L63.4988 90.76H70.4188ZM91.0309 95.72H99.9909V101H84.1909V72.92H91.0309V95.72ZM116.533 101.28C113.893 101.28 111.467 100.667 109.253 99.44C107.067 98.2133 105.32 96.5067 104.013 94.32C102.733 92.1067 102.093 89.6267 102.093 86.88C102.093 84.1333 102.733 81.6667 104.013 79.48C105.32 77.2933 107.067 75.5867 109.253 74.36C111.467 73.1333 113.893 72.52 116.533 72.52C119.173 72.52 121.587 73.1333 123.773 74.36C125.987 75.5867 127.72 77.2933 128.973 79.48C130.253 81.6667 130.893 84.1333 130.893 86.88C130.893 89.6267 130.253 92.1067 128.973 94.32C127.693 96.5067 125.96 98.2133 123.773 99.44C121.587 100.667 119.173 101.28 116.533 101.28ZM116.533 95.04C118.773 95.04 120.56 94.2933 121.893 92.8C123.253 91.3067 123.933 89.3333 123.933 86.88C123.933 84.4 123.253 82.4267 121.893 80.96C120.56 79.4667 118.773 78.72 116.533 78.72C114.267 78.72 112.453 79.4533 111.093 80.92C109.76 82.3867 109.093 84.3733 109.093 86.88C109.093 89.36 109.76 91.3467 111.093 92.84C112.453 94.3067 114.267 95.04 116.533 95.04ZM149.019 101L143.179 90.4H141.539V101H134.699V72.92H146.179C148.392 72.92 150.272 73.3067 151.819 74.08C153.392 74.8533 154.565 75.92 155.339 77.28C156.112 78.6133 156.499 80.1067 156.499 81.76C156.499 83.6267 155.965 85.2933 154.899 86.76C153.859 88.2267 152.312 89.2667 150.259 89.88L156.739 101H149.019ZM141.539 85.56H145.779C147.032 85.56 147.965 85.2533 148.579 84.64C149.219 84.0267 149.539 83.16 149.539 82.04C149.539 80.9733 149.219 80.1333 148.579 79.52C147.965 78.9067 147.032 78.6 145.779 78.6H141.539V85.56ZM178.273 96.04H167.793L166.113 101H158.953L169.113 72.92H177.033L187.193 101H179.953L178.273 96.04ZM176.513 90.76L173.033 80.48L169.593 90.76H176.513ZM215.405 101H208.565L197.125 83.68V101H190.285V72.92H197.125L208.565 90.32V72.92H215.405V101ZM240.563 72.92V78.4H233.123V101H226.283V78.4H218.843V72.92H240.563ZM23.56 134.42C23.56 133.26 23.7933 132.247 24.26 131.38C24.74 130.513 25.4 129.847 26.24 129.38C27.0933 128.913 28.0667 128.68 29.16 128.68C30.56 128.68 31.7267 129.047 32.66 129.78C33.6067 130.513 34.2267 131.547 34.52 132.88H30.88C30.5733 132.027 29.98 131.6 29.1 131.6C28.4733 131.6 27.9733 131.847 27.6 132.34C27.2267 132.82 27.04 133.513 27.04 134.42C27.04 135.327 27.2267 136.027 27.6 136.52C27.9733 137 28.4733 137.24 29.1 137.24C29.98 137.24 30.5733 136.813 30.88 135.96H34.52C34.2267 137.267 33.6067 138.293 32.66 139.04C31.7133 139.787 30.5467 140.16 29.16 140.16C28.0667 140.16 27.0933 139.927 26.24 139.46C25.4 138.993 24.74 138.327 24.26 137.46C23.7933 136.593 23.56 135.58 23.56 134.42ZM41.4294 140.16C40.336 140.16 39.3494 139.927 38.4694 139.46C37.6027 138.993 36.916 138.327 36.4094 137.46C35.916 136.593 35.6694 135.58 35.6694 134.42C35.6694 133.273 35.9227 132.267 36.4294 131.4C36.936 130.52 37.6294 129.847 38.5094 129.38C39.3894 128.913 40.376 128.68 41.4694 128.68C42.5627 128.68 43.5494 128.913 44.4294 129.38C45.3094 129.847 46.0027 130.52 46.5094 131.4C47.016 132.267 47.2694 133.273 47.2694 134.42C47.2694 135.567 47.0094 136.58 46.4894 137.46C45.9827 138.327 45.2827 138.993 44.3894 139.46C43.5094 139.927 42.5227 140.16 41.4294 140.16ZM41.4294 137.2C42.0827 137.2 42.636 136.96 43.0894 136.48C43.556 136 43.7894 135.313 43.7894 134.42C43.7894 133.527 43.5627 132.84 43.1094 132.36C42.6694 131.88 42.1227 131.64 41.4694 131.64C40.8027 131.64 40.2494 131.88 39.8094 132.36C39.3694 132.827 39.1494 133.513 39.1494 134.42C39.1494 135.313 39.3627 136 39.7894 136.48C40.2294 136.96 40.776 137.2 41.4294 137.2ZM63.3238 128.72C64.7104 128.72 65.8104 129.14 66.6238 129.98C67.4504 130.82 67.8638 131.987 67.8638 133.48V140H64.4638V133.94C64.4638 133.22 64.2704 132.667 63.8838 132.28C63.5104 131.88 62.9904 131.68 62.3238 131.68C61.6571 131.68 61.1304 131.88 60.7438 132.28C60.3704 132.667 60.1838 133.22 60.1838 133.94V140H56.7838V133.94C56.7838 133.22 56.5904 132.667 56.2038 132.28C55.8304 131.88 55.3104 131.68 54.6438 131.68C53.9771 131.68 53.4504 131.88 53.0638 132.28C52.6904 132.667 52.5038 133.22 52.5038 133.94V140H49.0838V128.84H52.5038V130.24C52.8504 129.773 53.3038 129.407 53.8638 129.14C54.4238 128.86 55.0571 128.72 55.7638 128.72C56.6038 128.72 57.3504 128.9 58.0038 129.26C58.6704 129.62 59.1904 130.133 59.5638 130.8C59.9504 130.187 60.4771 129.687 61.1438 129.3C61.8104 128.913 62.5371 128.72 63.3238 128.72ZM80.0939 131.68H78.2539V140H74.8339V131.68H73.5939V128.84H74.8339V128.52C74.8339 127.147 75.2272 126.107 76.0139 125.4C76.8006 124.68 77.9539 124.32 79.4739 124.32C79.7272 124.32 79.9139 124.327 80.0339 124.34V127.24C79.3806 127.2 78.9206 127.293 78.6539 127.52C78.3872 127.747 78.2539 128.153 78.2539 128.74V128.84H80.0939V131.68ZM86.7809 140.16C85.6876 140.16 84.7009 139.927 83.8209 139.46C82.9543 138.993 82.2676 138.327 81.7609 137.46C81.2676 136.593 81.0209 135.58 81.0209 134.42C81.0209 133.273 81.2743 132.267 81.7809 131.4C82.2876 130.52 82.9809 129.847 83.8609 129.38C84.7409 128.913 85.7276 128.68 86.8209 128.68C87.9143 128.68 88.9009 128.913 89.7809 129.38C90.6609 129.847 91.3543 130.52 91.8609 131.4C92.3676 132.267 92.6209 133.273 92.6209 134.42C92.6209 135.567 92.3609 136.58 91.8409 137.46C91.3343 138.327 90.6343 138.993 89.7409 139.46C88.8609 139.927 87.8743 140.16 86.7809 140.16ZM86.7809 137.2C87.4343 137.2 87.9876 136.96 88.4409 136.48C88.9076 136 89.1409 135.313 89.1409 134.42C89.1409 133.527 88.9143 132.84 88.4609 132.36C88.0209 131.88 87.4743 131.64 86.8209 131.64C86.1543 131.64 85.6009 131.88 85.1609 132.36C84.7209 132.827 84.5009 133.513 84.5009 134.42C84.5009 135.313 84.7143 136 85.1409 136.48C85.5809 136.96 86.1276 137.2 86.7809 137.2ZM93.7553 134.42C93.7553 133.26 93.9886 132.247 94.4553 131.38C94.9353 130.513 95.5953 129.847 96.4353 129.38C97.2886 128.913 98.262 128.68 99.3553 128.68C100.755 128.68 101.922 129.047 102.855 129.78C103.802 130.513 104.422 131.547 104.715 132.88H101.075C100.769 132.027 100.175 131.6 99.2953 131.6C98.6686 131.6 98.1686 131.847 97.7953 132.34C97.422 132.82 97.2353 133.513 97.2353 134.42C97.2353 135.327 97.422 136.027 97.7953 136.52C98.1686 137 98.6686 137.24 99.2953 137.24C100.175 137.24 100.769 136.813 101.075 135.96H104.715C104.422 137.267 103.802 138.293 102.855 139.04C101.909 139.787 100.742 140.16 99.3553 140.16C98.262 140.16 97.2886 139.927 96.4353 139.46C95.5953 138.993 94.9353 138.327 94.4553 137.46C93.9886 136.593 93.7553 135.58 93.7553 134.42ZM111.625 140.16C110.531 140.16 109.545 139.927 108.665 139.46C107.798 138.993 107.111 138.327 106.605 137.46C106.111 136.593 105.865 135.58 105.865 134.42C105.865 133.273 106.118 132.267 106.625 131.4C107.131 130.52 107.825 129.847 108.705 129.38C109.585 128.913 110.571 128.68 111.665 128.68C112.758 128.68 113.745 128.913 114.625 129.38C115.505 129.847 116.198 130.52 116.705 131.4C117.211 132.267 117.465 133.273 117.465 134.42C117.465 135.567 117.205 136.58 116.685 137.46C116.178 138.327 115.478 138.993 114.585 139.46C113.705 139.927 112.718 140.16 111.625 140.16ZM111.625 137.2C112.278 137.2 112.831 136.96 113.285 136.48C113.751 136 113.985 135.313 113.985 134.42C113.985 133.527 113.758 132.84 113.305 132.36C112.865 131.88 112.318 131.64 111.665 131.64C110.998 131.64 110.445 131.88 110.005 132.36C109.565 132.827 109.345 133.513 109.345 134.42C109.345 135.313 109.558 136 109.985 136.48C110.425 136.96 110.971 137.2 111.625 137.2ZM134.037 134.24C134.037 134.56 134.017 134.893 133.977 135.24H126.237C126.291 135.933 126.511 136.467 126.897 136.84C127.297 137.2 127.784 137.38 128.357 137.38C129.211 137.38 129.804 137.02 130.137 136.3H133.777C133.591 137.033 133.251 137.693 132.757 138.28C132.277 138.867 131.671 139.327 130.937 139.66C130.204 139.993 129.384 140.16 128.477 140.16C127.384 140.16 126.411 139.927 125.557 139.46C124.704 138.993 124.037 138.327 123.557 137.46C123.077 136.593 122.837 135.58 122.837 134.42C122.837 133.26 123.071 132.247 123.537 131.38C124.017 130.513 124.684 129.847 125.537 129.38C126.391 128.913 127.371 128.68 128.477 128.68C129.557 128.68 130.517 128.907 131.357 129.36C132.197 129.813 132.851 130.46 133.317 131.3C133.797 132.14 134.037 133.12 134.037 134.24ZM130.537 133.34C130.537 132.753 130.337 132.287 129.937 131.94C129.537 131.593 129.037 131.42 128.437 131.42C127.864 131.42 127.377 131.587 126.977 131.92C126.591 132.253 126.351 132.727 126.257 133.34H130.537ZM150.082 128.72C151.468 128.72 152.568 129.14 153.382 129.98C154.208 130.82 154.622 131.987 154.622 133.48V140H151.222V133.94C151.222 133.22 151.028 132.667 150.642 132.28C150.268 131.88 149.748 131.68 149.082 131.68C148.415 131.68 147.888 131.88 147.502 132.28C147.128 132.667 146.942 133.22 146.942 133.94V140H143.542V133.94C143.542 133.22 143.348 132.667 142.962 132.28C142.588 131.88 142.068 131.68 141.402 131.68C140.735 131.68 140.208 131.88 139.822 132.28C139.448 132.667 139.262 133.22 139.262 133.94V140H135.842V128.84H139.262V130.24C139.608 129.773 140.062 129.407 140.622 129.14C141.182 128.86 141.815 128.72 142.522 128.72C143.362 128.72 144.108 128.9 144.762 129.26C145.428 129.62 145.948 130.133 146.322 130.8C146.708 130.187 147.235 129.687 147.902 129.3C148.568 128.913 149.295 128.72 150.082 128.72ZM164.672 130.42C164.992 129.9 165.452 129.48 166.052 129.16C166.652 128.84 167.338 128.68 168.112 128.68C169.032 128.68 169.865 128.913 170.612 129.38C171.358 129.847 171.945 130.513 172.372 131.38C172.812 132.247 173.032 133.253 173.032 134.4C173.032 135.547 172.812 136.56 172.372 137.44C171.945 138.307 171.358 138.98 170.612 139.46C169.865 139.927 169.032 140.16 168.112 140.16C167.325 140.16 166.638 140.007 166.052 139.7C165.465 139.38 165.005 138.96 164.672 138.44V140H161.252V125.2H164.672V130.42ZM169.552 134.4C169.552 133.547 169.312 132.88 168.832 132.4C168.365 131.907 167.785 131.66 167.092 131.66C166.412 131.66 165.832 131.907 165.352 132.4C164.885 132.893 164.652 133.567 164.652 134.42C164.652 135.273 164.885 135.947 165.352 136.44C165.832 136.933 166.412 137.18 167.092 137.18C167.772 137.18 168.352 136.933 168.832 136.44C169.312 135.933 169.552 135.253 169.552 134.4ZM185.346 134.24C185.346 134.56 185.326 134.893 185.286 135.24H177.546C177.599 135.933 177.819 136.467 178.206 136.84C178.606 137.2 179.093 137.38 179.666 137.38C180.519 137.38 181.113 137.02 181.446 136.3H185.086C184.899 137.033 184.559 137.693 184.066 138.28C183.586 138.867 182.979 139.327 182.246 139.66C181.513 139.993 180.693 140.16 179.786 140.16C178.693 140.16 177.719 139.927 176.866 139.46C176.013 138.993 175.346 138.327 174.866 137.46C174.386 136.593 174.146 135.58 174.146 134.42C174.146 133.26 174.379 132.247 174.846 131.38C175.326 130.513 175.993 129.847 176.846 129.38C177.699 128.913 178.679 128.68 179.786 128.68C180.866 128.68 181.826 128.907 182.666 129.36C183.506 129.813 184.159 130.46 184.626 131.3C185.106 132.14 185.346 133.12 185.346 134.24ZM181.846 133.34C181.846 132.753 181.646 132.287 181.246 131.94C180.846 131.593 180.346 131.42 179.746 131.42C179.173 131.42 178.686 131.587 178.286 131.92C177.899 132.253 177.659 132.727 177.566 133.34H181.846ZM186.47 134.4C186.47 133.253 186.683 132.247 187.11 131.38C187.55 130.513 188.143 129.847 188.89 129.38C189.637 128.913 190.47 128.68 191.39 128.68C192.177 128.68 192.863 128.84 193.45 129.16C194.05 129.48 194.51 129.9 194.83 130.42V128.84H198.25V140H194.83V138.42C194.497 138.94 194.03 139.36 193.43 139.68C192.843 140 192.157 140.16 191.37 140.16C190.463 140.16 189.637 139.927 188.89 139.46C188.143 138.98 187.55 138.307 187.11 137.44C186.683 136.56 186.47 135.547 186.47 134.4ZM194.83 134.42C194.83 133.567 194.59 132.893 194.11 132.4C193.643 131.907 193.07 131.66 192.39 131.66C191.71 131.66 191.13 131.907 190.65 132.4C190.183 132.88 189.95 133.547 189.95 134.4C189.95 135.253 190.183 135.933 190.65 136.44C191.13 136.933 191.71 137.18 192.39 137.18C193.07 137.18 193.643 136.933 194.11 136.44C194.59 135.947 194.83 135.273 194.83 134.42ZM206.944 137.1V140H205.204C203.964 140 202.998 139.7 202.304 139.1C201.611 138.487 201.264 137.493 201.264 136.12V131.68H199.904V128.84H201.264V126.12H204.684V128.84H206.924V131.68H204.684V136.16C204.684 136.493 204.764 136.733 204.924 136.88C205.084 137.027 205.351 137.1 205.724 137.1H206.944ZM217.628 140.16C216.654 140.16 215.788 139.993 215.028 139.66C214.268 139.327 213.668 138.873 213.228 138.3C212.788 137.713 212.541 137.06 212.488 136.34H215.868C215.908 136.727 216.088 137.04 216.408 137.28C216.728 137.52 217.121 137.64 217.588 137.64C218.014 137.64 218.341 137.56 218.568 137.4C218.808 137.227 218.928 137.007 218.928 136.74C218.928 136.42 218.761 136.187 218.428 136.04C218.094 135.88 217.554 135.707 216.808 135.52C216.008 135.333 215.341 135.14 214.808 134.94C214.274 134.727 213.814 134.4 213.428 133.96C213.041 133.507 212.848 132.9 212.848 132.14C212.848 131.5 213.021 130.92 213.368 130.4C213.728 129.867 214.248 129.447 214.928 129.14C215.621 128.833 216.441 128.68 217.388 128.68C218.788 128.68 219.888 129.027 220.688 129.72C221.501 130.413 221.968 131.333 222.088 132.48H218.928C218.874 132.093 218.701 131.787 218.408 131.56C218.128 131.333 217.754 131.22 217.288 131.22C216.888 131.22 216.581 131.3 216.368 131.46C216.154 131.607 216.048 131.813 216.048 132.08C216.048 132.4 216.214 132.64 216.548 132.8C216.894 132.96 217.428 133.12 218.148 133.28C218.974 133.493 219.648 133.707 220.168 133.92C220.688 134.12 221.141 134.453 221.528 134.92C221.928 135.373 222.134 135.987 222.148 136.76C222.148 137.413 221.961 138 221.588 138.52C221.228 139.027 220.701 139.427 220.008 139.72C219.328 140.013 218.534 140.16 217.628 140.16ZM235.64 128.84L228.64 145.3H224.96L227.52 139.62L222.98 128.84H226.8L229.38 135.82L231.94 128.84H235.64ZM243.677 128.72C244.983 128.72 246.023 129.147 246.797 130C247.583 130.84 247.977 132 247.977 133.48V140H244.577V133.94C244.577 133.193 244.383 132.613 243.997 132.2C243.61 131.787 243.09 131.58 242.437 131.58C241.783 131.58 241.263 131.787 240.877 132.2C240.49 132.613 240.297 133.193 240.297 133.94V140H236.877V128.84H240.297V130.32C240.643 129.827 241.11 129.44 241.697 129.16C242.283 128.867 242.943 128.72 243.677 128.72ZM249.673 134.42C249.673 133.26 249.907 132.247 250.373 131.38C250.853 130.513 251.513 129.847 252.353 129.38C253.207 128.913 254.18 128.68 255.273 128.68C256.673 128.68 257.84 129.047 258.773 129.78C259.72 130.513 260.34 131.547 260.633 132.88H256.993C256.687 132.027 256.093 131.6 255.213 131.6C254.587 131.6 254.087 131.847 253.713 132.34C253.34 132.82 253.153 133.513 253.153 134.42C253.153 135.327 253.34 136.027 253.713 136.52C254.087 137 254.587 137.24 255.213 137.24C256.093 137.24 256.687 136.813 256.993 135.96H260.633C260.34 137.267 259.72 138.293 258.773 139.04C257.827 139.787 256.66 140.16 255.273 140.16C254.18 140.16 253.207 139.927 252.353 139.46C251.513 138.993 250.853 138.327 250.373 137.46C249.907 136.593 249.673 135.58 249.673 134.42ZM23.56 155.4C23.56 154.253 23.7733 153.247 24.2 152.38C24.64 151.513 25.2333 150.847 25.98 150.38C26.7267 149.913 27.56 149.68 28.48 149.68C29.2667 149.68 29.9533 149.84 30.54 150.16C31.14 150.48 31.6 150.9 31.92 151.42V149.84H35.34V161H31.92V159.42C31.5867 159.94 31.12 160.36 30.52 160.68C29.9333 161 29.2467 161.16 28.46 161.16C27.5533 161.16 26.7267 160.927 25.98 160.46C25.2333 159.98 24.64 159.307 24.2 158.44C23.7733 157.56 23.56 156.547 23.56 155.4ZM31.92 155.42C31.92 154.567 31.68 153.893 31.2 153.4C30.7333 152.907 30.16 152.66 29.48 152.66C28.8 152.66 28.22 152.907 27.74 153.4C27.2733 153.88 27.04 154.547 27.04 155.4C27.04 156.253 27.2733 156.933 27.74 157.44C28.22 157.933 28.8 158.18 29.48 158.18C30.16 158.18 30.7333 157.933 31.2 157.44C31.68 156.947 31.92 156.273 31.92 155.42ZM42.0542 149.68C42.8409 149.68 43.5276 149.84 44.1142 150.16C44.7142 150.48 45.1742 150.9 45.4942 151.42V149.84H48.9142V160.98C48.9142 162.007 48.7076 162.933 48.2942 163.76C47.8942 164.6 47.2742 165.267 46.4342 165.76C45.6076 166.253 44.5742 166.5 43.3342 166.5C41.6809 166.5 40.3409 166.107 39.3142 165.32C38.2876 164.547 37.7009 163.493 37.5542 162.16H40.9342C41.0409 162.587 41.2942 162.92 41.6942 163.16C42.0942 163.413 42.5876 163.54 43.1742 163.54C43.8809 163.54 44.4409 163.333 44.8542 162.92C45.2809 162.52 45.4942 161.873 45.4942 160.98V159.4C45.1609 159.92 44.7009 160.347 44.1142 160.68C43.5276 161 42.8409 161.16 42.0542 161.16C41.1342 161.16 40.3009 160.927 39.5542 160.46C38.8076 159.98 38.2142 159.307 37.7742 158.44C37.3476 157.56 37.1342 156.547 37.1342 155.4C37.1342 154.253 37.3476 153.247 37.7742 152.38C38.2142 151.513 38.8076 150.847 39.5542 150.38C40.3009 149.913 41.1342 149.68 42.0542 149.68ZM45.4942 155.42C45.4942 154.567 45.2542 153.893 44.7742 153.4C44.3076 152.907 43.7342 152.66 43.0542 152.66C42.3742 152.66 41.7942 152.907 41.3142 153.4C40.8476 153.88 40.6142 154.547 40.6142 155.4C40.6142 156.253 40.8476 156.933 41.3142 157.44C41.7942 157.933 42.3742 158.18 43.0542 158.18C43.7342 158.18 44.3076 157.933 44.7742 157.44C45.2542 156.947 45.4942 156.273 45.4942 155.42ZM54.8084 151.7C55.2084 151.087 55.7084 150.607 56.3084 150.26C56.9084 149.9 57.5751 149.72 58.3084 149.72V153.34H57.3684C56.5151 153.34 55.8751 153.527 55.4484 153.9C55.0218 154.26 54.8084 154.9 54.8084 155.82V161H51.3884V149.84H54.8084V151.7ZM70.4631 155.24C70.4631 155.56 70.4431 155.893 70.4031 156.24H62.6631C62.7165 156.933 62.9365 157.467 63.3231 157.84C63.7231 158.2 64.2098 158.38 64.7831 158.38C65.6365 158.38 66.2298 158.02 66.5631 157.3H70.2031C70.0165 158.033 69.6765 158.693 69.1831 159.28C68.7031 159.867 68.0965 160.327 67.3631 160.66C66.6298 160.993 65.8098 161.16 64.9031 161.16C63.8098 161.16 62.8365 160.927 61.9831 160.46C61.1298 159.993 60.4631 159.327 59.9831 158.46C59.5031 157.593 59.2631 156.58 59.2631 155.42C59.2631 154.26 59.4965 153.247 59.9631 152.38C60.4431 151.513 61.1098 150.847 61.9631 150.38C62.8165 149.913 63.7965 149.68 64.9031 149.68C65.9831 149.68 66.9431 149.907 67.7831 150.36C68.6231 150.813 69.2765 151.46 69.7431 152.3C70.2231 153.14 70.4631 154.12 70.4631 155.24ZM66.9631 154.34C66.9631 153.753 66.7631 153.287 66.3631 152.94C65.9631 152.593 65.4631 152.42 64.8631 152.42C64.2898 152.42 63.8031 152.587 63.4031 152.92C63.0165 153.253 62.7765 153.727 62.6831 154.34H66.9631ZM76.8073 161.16C75.834 161.16 74.9673 160.993 74.2073 160.66C73.4473 160.327 72.8473 159.873 72.4073 159.3C71.9673 158.713 71.7207 158.06 71.6673 157.34H75.0473C75.0873 157.727 75.2673 158.04 75.5873 158.28C75.9073 158.52 76.3007 158.64 76.7673 158.64C77.194 158.64 77.5207 158.56 77.7473 158.4C77.9873 158.227 78.1073 158.007 78.1073 157.74C78.1073 157.42 77.9407 157.187 77.6073 157.04C77.274 156.88 76.734 156.707 75.9873 156.52C75.1873 156.333 74.5207 156.14 73.9873 155.94C73.454 155.727 72.994 155.4 72.6073 154.96C72.2207 154.507 72.0273 153.9 72.0273 153.14C72.0273 152.5 72.2007 151.92 72.5473 151.4C72.9073 150.867 73.4273 150.447 74.1073 150.14C74.8007 149.833 75.6207 149.68 76.5673 149.68C77.9673 149.68 79.0673 150.027 79.8673 150.72C80.6807 151.413 81.1473 152.333 81.2673 153.48H78.1073C78.054 153.093 77.8807 152.787 77.5873 152.56C77.3073 152.333 76.934 152.22 76.4673 152.22C76.0673 152.22 75.7607 152.3 75.5473 152.46C75.334 152.607 75.2273 152.813 75.2273 153.08C75.2273 153.4 75.394 153.64 75.7273 153.8C76.074 153.96 76.6073 154.12 77.3273 154.28C78.154 154.493 78.8273 154.707 79.3473 154.92C79.8673 155.12 80.3207 155.453 80.7073 155.92C81.1073 156.373 81.314 156.987 81.3273 157.76C81.3273 158.413 81.1407 159 80.7673 159.52C80.4073 160.027 79.8807 160.427 79.1873 160.72C78.5073 161.013 77.714 161.16 76.8073 161.16ZM87.9597 161.16C86.9864 161.16 86.1197 160.993 85.3597 160.66C84.5997 160.327 83.9997 159.873 83.5597 159.3C83.1197 158.713 82.873 158.06 82.8197 157.34H86.1997C86.2397 157.727 86.4197 158.04 86.7397 158.28C87.0597 158.52 87.453 158.64 87.9197 158.64C88.3464 158.64 88.673 158.56 88.8997 158.4C89.1397 158.227 89.2597 158.007 89.2597 157.74C89.2597 157.42 89.093 157.187 88.7597 157.04C88.4264 156.88 87.8864 156.707 87.1397 156.52C86.3397 156.333 85.673 156.14 85.1397 155.94C84.6064 155.727 84.1464 155.4 83.7597 154.96C83.373 154.507 83.1797 153.9 83.1797 153.14C83.1797 152.5 83.353 151.92 83.6997 151.4C84.0597 150.867 84.5797 150.447 85.2597 150.14C85.953 149.833 86.773 149.68 87.7197 149.68C89.1197 149.68 90.2197 150.027 91.0197 150.72C91.833 151.413 92.2997 152.333 92.4197 153.48H89.2597C89.2064 153.093 89.033 152.787 88.7397 152.56C88.4597 152.333 88.0864 152.22 87.6197 152.22C87.2197 152.22 86.913 152.3 86.6997 152.46C86.4864 152.607 86.3797 152.813 86.3797 153.08C86.3797 153.4 86.5464 153.64 86.8797 153.8C87.2264 153.96 87.7597 154.12 88.4797 154.28C89.3064 154.493 89.9797 154.707 90.4997 154.92C91.0197 155.12 91.473 155.453 91.8597 155.92C92.2597 156.373 92.4664 156.987 92.4797 157.76C92.4797 158.413 92.293 159 91.9197 159.52C91.5597 160.027 91.033 160.427 90.3397 160.72C89.6597 161.013 88.8664 161.16 87.9597 161.16ZM96.292 148.68C95.692 148.68 95.1987 148.507 94.812 148.16C94.4387 147.8 94.252 147.36 94.252 146.84C94.252 146.307 94.4387 145.867 94.812 145.52C95.1987 145.16 95.692 144.98 96.292 144.98C96.8787 144.98 97.3587 145.16 97.732 145.52C98.1187 145.867 98.312 146.307 98.312 146.84C98.312 147.36 98.1187 147.8 97.732 148.16C97.3587 148.507 96.8787 148.68 96.292 148.68ZM97.992 149.84V161H94.572V149.84H97.992ZM105.49 157.8L107.91 149.84H111.55L107.59 161H103.37L99.4105 149.84H103.07L105.49 157.8ZM118.07 161.16C116.977 161.16 115.99 160.927 115.11 160.46C114.243 159.993 113.557 159.327 113.05 158.46C112.557 157.593 112.31 156.58 112.31 155.42C112.31 154.273 112.563 153.267 113.07 152.4C113.577 151.52 114.27 150.847 115.15 150.38C116.03 149.913 117.017 149.68 118.11 149.68C119.203 149.68 120.19 149.913 121.07 150.38C121.95 150.847 122.643 151.52 123.15 152.4C123.657 153.267 123.91 154.273 123.91 155.42C123.91 156.567 123.65 157.58 123.13 158.46C122.623 159.327 121.923 159.993 121.03 160.46C120.15 160.927 119.163 161.16 118.07 161.16ZM118.07 158.2C118.723 158.2 119.277 157.96 119.73 157.48C120.197 157 120.43 156.313 120.43 155.42C120.43 154.527 120.203 153.84 119.75 153.36C119.31 152.88 118.763 152.64 118.11 152.64C117.443 152.64 116.89 152.88 116.45 153.36C116.01 153.827 115.79 154.513 115.79 155.42C115.79 156.313 116.003 157 116.43 157.48C116.87 157.96 117.417 158.2 118.07 158.2ZM140.483 155.24C140.483 155.56 140.463 155.893 140.423 156.24H132.683C132.736 156.933 132.956 157.467 133.343 157.84C133.743 158.2 134.229 158.38 134.803 158.38C135.656 158.38 136.249 158.02 136.583 157.3H140.223C140.036 158.033 139.696 158.693 139.203 159.28C138.723 159.867 138.116 160.327 137.383 160.66C136.649 160.993 135.829 161.16 134.923 161.16C133.829 161.16 132.856 160.927 132.003 160.46C131.149 159.993 130.483 159.327 130.003 158.46C129.523 157.593 129.283 156.58 129.283 155.42C129.283 154.26 129.516 153.247 129.983 152.38C130.463 151.513 131.129 150.847 131.983 150.38C132.836 149.913 133.816 149.68 134.923 149.68C136.003 149.68 136.963 149.907 137.803 150.36C138.643 150.813 139.296 151.46 139.763 152.3C140.243 153.14 140.483 154.12 140.483 155.24ZM136.983 154.34C136.983 153.753 136.783 153.287 136.383 152.94C135.983 152.593 135.483 152.42 134.883 152.42C134.309 152.42 133.823 152.587 133.423 152.92C133.036 153.253 132.796 153.727 132.703 154.34H136.983ZM152.745 158.1V161H151.005C149.765 161 148.798 160.7 148.105 160.1C147.412 159.487 147.065 158.493 147.065 157.12V152.68H145.705V149.84H147.065V147.12H150.485V149.84H152.725V152.68H150.485V157.16C150.485 157.493 150.565 157.733 150.725 157.88C150.885 158.027 151.152 158.1 151.525 158.1H152.745ZM158.07 151.7C158.47 151.087 158.97 150.607 159.57 150.26C160.17 149.9 160.837 149.72 161.57 149.72V153.34H160.63C159.777 153.34 159.137 153.527 158.71 153.9C158.283 154.26 158.07 154.9 158.07 155.82V161H154.65V149.84H158.07V151.7ZM162.525 155.4C162.525 154.253 162.738 153.247 163.165 152.38C163.605 151.513 164.198 150.847 164.945 150.38C165.692 149.913 166.525 149.68 167.445 149.68C168.232 149.68 168.918 149.84 169.505 150.16C170.105 150.48 170.565 150.9 170.885 151.42V149.84H174.305V161H170.885V159.42C170.552 159.94 170.085 160.36 169.485 160.68C168.898 161 168.212 161.16 167.425 161.16C166.518 161.16 165.692 160.927 164.945 160.46C164.198 159.98 163.605 159.307 163.165 158.44C162.738 157.56 162.525 156.547 162.525 155.4ZM170.885 155.42C170.885 154.567 170.645 153.893 170.165 153.4C169.698 152.907 169.125 152.66 168.445 152.66C167.765 152.66 167.185 152.907 166.705 153.4C166.238 153.88 166.005 154.547 166.005 155.4C166.005 156.253 166.238 156.933 166.705 157.44C167.185 157.933 167.765 158.18 168.445 158.18C169.125 158.18 169.698 157.933 170.165 157.44C170.645 156.947 170.885 156.273 170.885 155.42ZM183.579 149.72C184.886 149.72 185.926 150.147 186.699 151C187.486 151.84 187.879 153 187.879 154.48V161H184.479V154.94C184.479 154.193 184.286 153.613 183.899 153.2C183.512 152.787 182.992 152.58 182.339 152.58C181.686 152.58 181.166 152.787 180.779 153.2C180.392 153.613 180.199 154.193 180.199 154.94V161H176.779V149.84H180.199V151.32C180.546 150.827 181.012 150.44 181.599 150.16C182.186 149.867 182.846 149.72 183.579 149.72ZM194.796 161.16C193.822 161.16 192.956 160.993 192.196 160.66C191.436 160.327 190.836 159.873 190.396 159.3C189.956 158.713 189.709 158.06 189.656 157.34H193.036C193.076 157.727 193.256 158.04 193.576 158.28C193.896 158.52 194.289 158.64 194.756 158.64C195.182 158.64 195.509 158.56 195.736 158.4C195.976 158.227 196.096 158.007 196.096 157.74C196.096 157.42 195.929 157.187 195.596 157.04C195.262 156.88 194.722 156.707 193.976 156.52C193.176 156.333 192.509 156.14 191.976 155.94C191.442 155.727 190.982 155.4 190.596 154.96C190.209 154.507 190.016 153.9 190.016 153.14C190.016 152.5 190.189 151.92 190.536 151.4C190.896 150.867 191.416 150.447 192.096 150.14C192.789 149.833 193.609 149.68 194.556 149.68C195.956 149.68 197.056 150.027 197.856 150.72C198.669 151.413 199.136 152.333 199.256 153.48H196.096C196.042 153.093 195.869 152.787 195.576 152.56C195.296 152.333 194.922 152.22 194.456 152.22C194.056 152.22 193.749 152.3 193.536 152.46C193.322 152.607 193.216 152.813 193.216 153.08C193.216 153.4 193.382 153.64 193.716 153.8C194.062 153.96 194.596 154.12 195.316 154.28C196.142 154.493 196.816 154.707 197.336 154.92C197.856 155.12 198.309 155.453 198.696 155.92C199.096 156.373 199.302 156.987 199.316 157.76C199.316 158.413 199.129 159 198.756 159.52C198.396 160.027 197.869 160.427 197.176 160.72C196.496 161.013 195.702 161.16 194.796 161.16ZM203.128 148.68C202.528 148.68 202.035 148.507 201.648 148.16C201.275 147.8 201.088 147.36 201.088 146.84C201.088 146.307 201.275 145.867 201.648 145.52C202.035 145.16 202.528 144.98 203.128 144.98C203.715 144.98 204.195 145.16 204.568 145.52C204.955 145.867 205.148 146.307 205.148 146.84C205.148 147.36 204.955 147.8 204.568 148.16C204.195 148.507 203.715 148.68 203.128 148.68ZM204.828 149.84V161H201.408V149.84H204.828ZM212.166 158.24C213.046 158.24 213.64 157.813 213.946 156.96H217.586C217.333 158.093 216.826 159.02 216.066 159.74C215.306 160.46 214.36 160.907 213.226 161.08V161.82C213.92 161.82 214.526 162.007 215.046 162.38C215.566 162.767 215.826 163.34 215.826 164.1C215.826 164.86 215.553 165.433 215.006 165.82C214.46 166.22 213.806 166.42 213.046 166.42H209.966V164.54H212.586C212.853 164.54 213.053 164.5 213.186 164.42C213.32 164.34 213.386 164.207 213.386 164.02C213.386 163.833 213.32 163.7 213.186 163.62C213.053 163.553 212.853 163.52 212.586 163.52H211.166V161.08C209.793 160.867 208.693 160.26 207.866 159.26C207.04 158.247 206.626 156.967 206.626 155.42C206.626 154.26 206.86 153.247 207.326 152.38C207.806 151.513 208.466 150.847 209.306 150.38C210.16 149.913 211.133 149.68 212.226 149.68C213.626 149.68 214.793 150.047 215.726 150.78C216.673 151.513 217.293 152.547 217.586 153.88H213.946C213.64 153.027 213.046 152.6 212.166 152.6C211.54 152.6 211.04 152.847 210.666 153.34C210.293 153.82 210.106 154.513 210.106 155.42C210.106 156.327 210.293 157.027 210.666 157.52C211.04 158 211.54 158.24 212.166 158.24ZM224.496 161.16C223.402 161.16 222.416 160.927 221.536 160.46C220.669 159.993 219.982 159.327 219.476 158.46C218.982 157.593 218.736 156.58 218.736 155.42C218.736 154.273 218.989 153.267 219.496 152.4C220.002 151.52 220.696 150.847 221.576 150.38C222.456 149.913 223.442 149.68 224.536 149.68C225.629 149.68 226.616 149.913 227.496 150.38C228.376 150.847 229.069 151.52 229.576 152.4C230.082 153.267 230.336 154.273 230.336 155.42C230.336 156.567 230.076 157.58 229.556 158.46C229.049 159.327 228.349 159.993 227.456 160.46C226.576 160.927 225.589 161.16 224.496 161.16ZM224.496 158.2C225.149 158.2 225.702 157.96 226.156 157.48C226.622 157 226.856 156.313 226.856 155.42C226.856 154.527 226.629 153.84 226.176 153.36C225.736 152.88 225.189 152.64 224.536 152.64C223.869 152.64 223.316 152.88 222.876 153.36C222.436 153.827 222.216 154.513 222.216 155.42C222.216 156.313 222.429 157 222.856 157.48C223.296 157.96 223.842 158.2 224.496 158.2ZM220.796 148.82C221.116 146.847 222.036 145.86 223.556 145.86C223.849 145.86 224.102 145.907 224.316 146C224.542 146.08 224.816 146.207 225.136 146.38C225.376 146.513 225.569 146.613 225.716 146.68C225.862 146.733 226.016 146.76 226.176 146.76C226.669 146.76 226.956 146.46 227.036 145.86H228.796C228.476 147.833 227.556 148.82 226.036 148.82C225.742 148.82 225.482 148.78 225.256 148.7C225.042 148.607 224.776 148.473 224.456 148.3C224.216 148.167 224.022 148.073 223.876 148.02C223.729 147.953 223.576 147.92 223.416 147.92C222.922 147.92 222.629 148.22 222.536 148.82H220.796ZM242.67 155.24C242.67 155.56 242.65 155.893 242.61 156.24H234.87C234.923 156.933 235.143 157.467 235.53 157.84C235.93 158.2 236.417 158.38 236.99 158.38C237.843 158.38 238.437 158.02 238.77 157.3H242.41C242.223 158.033 241.883 158.693 241.39 159.28C240.91 159.867 240.303 160.327 239.57 160.66C238.837 160.993 238.017 161.16 237.11 161.16C236.017 161.16 235.043 160.927 234.19 160.46C233.337 159.993 232.67 159.327 232.19 158.46C231.71 157.593 231.47 156.58 231.47 155.42C231.47 154.26 231.703 153.247 232.17 152.38C232.65 151.513 233.317 150.847 234.17 150.38C235.023 149.913 236.003 149.68 237.11 149.68C238.19 149.68 239.15 149.907 239.99 150.36C240.83 150.813 241.483 151.46 241.95 152.3C242.43 153.14 242.67 154.12 242.67 155.24ZM239.17 154.34C239.17 153.753 238.97 153.287 238.57 152.94C238.17 152.593 237.67 152.42 237.07 152.42C236.497 152.42 236.01 152.587 235.61 152.92C235.223 153.253 234.983 153.727 234.89 154.34H239.17ZM249.014 161.16C248.041 161.16 247.174 160.993 246.414 160.66C245.654 160.327 245.054 159.873 244.614 159.3C244.174 158.713 243.928 158.06 243.874 157.34H247.254C247.294 157.727 247.474 158.04 247.794 158.28C248.114 158.52 248.508 158.64 248.974 158.64C249.401 158.64 249.728 158.56 249.954 158.4C250.194 158.227 250.314 158.007 250.314 157.74C250.314 157.42 250.148 157.187 249.814 157.04C249.481 156.88 248.941 156.707 248.194 156.52C247.394 156.333 246.728 156.14 246.194 155.94C245.661 155.727 245.201 155.4 244.814 154.96C244.428 154.507 244.234 153.9 244.234 153.14C244.234 152.5 244.408 151.92 244.754 151.4C245.114 150.867 245.634 150.447 246.314 150.14C247.008 149.833 247.828 149.68 248.774 149.68C250.174 149.68 251.274 150.027 252.074 150.72C252.888 151.413 253.354 152.333 253.474 153.48H250.314C250.261 153.093 250.088 152.787 249.794 152.56C249.514 152.333 249.141 152.22 248.674 152.22C248.274 152.22 247.968 152.3 247.754 152.46C247.541 152.607 247.434 152.813 247.434 153.08C247.434 153.4 247.601 153.64 247.934 153.8C248.281 153.96 248.814 154.12 249.534 154.28C250.361 154.493 251.034 154.707 251.554 154.92C252.074 155.12 252.528 155.453 252.914 155.92C253.314 156.373 253.521 156.987 253.534 157.76C253.534 158.413 253.348 159 252.974 159.52C252.614 160.027 252.088 160.427 251.394 160.72C250.714 161.013 249.921 161.16 249.014 161.16ZM29.84 173.68H28V182H24.58V173.68H23.34V170.84H24.58V170.52C24.58 169.147 24.9733 168.107 25.76 167.4C26.5467 166.68 27.7 166.32 29.22 166.32C29.4733 166.32 29.66 166.327 29.78 166.34V169.24C29.1267 169.2 28.6667 169.293 28.4 169.52C28.1333 169.747 28 170.153 28 170.74V170.84H29.84V173.68ZM34.867 167.2V182H31.447V167.2H34.867ZM48.3655 170.84V182H44.9455V180.48C44.5988 180.973 44.1255 181.373 43.5255 181.68C42.9388 181.973 42.2855 182.12 41.5655 182.12C40.7121 182.12 39.9588 181.933 39.3055 181.56C38.6521 181.173 38.1455 180.62 37.7855 179.9C37.4255 179.18 37.2455 178.333 37.2455 177.36V170.84H40.6455V176.9C40.6455 177.647 40.8388 178.227 41.2255 178.64C41.6121 179.053 42.1321 179.26 42.7855 179.26C43.4521 179.26 43.9788 179.053 44.3655 178.64C44.7521 178.227 44.9455 177.647 44.9455 176.9V170.84H48.3655ZM52.542 169.68C51.942 169.68 51.4487 169.507 51.062 169.16C50.6887 168.8 50.502 168.36 50.502 167.84C50.502 167.307 50.6887 166.867 51.062 166.52C51.4487 166.16 51.942 165.98 52.542 165.98C53.1287 165.98 53.6087 166.16 53.982 166.52C54.3687 166.867 54.562 167.307 54.562 167.84C54.562 168.36 54.3687 168.8 53.982 169.16C53.6087 169.507 53.1287 169.68 52.542 169.68ZM54.242 170.84V182H50.822V170.84H54.242ZM56.0405 176.4C56.0405 175.253 56.2538 174.247 56.6805 173.38C57.1205 172.513 57.7138 171.847 58.4605 171.38C59.2071 170.913 60.0405 170.68 60.9605 170.68C61.6938 170.68 62.3605 170.833 62.9605 171.14C63.5738 171.447 64.0538 171.86 64.4005 172.38V167.2H67.8205V182H64.4005V180.4C64.0805 180.933 63.6205 181.36 63.0205 181.68C62.4338 182 61.7471 182.16 60.9605 182.16C60.0405 182.16 59.2071 181.927 58.4605 181.46C57.7138 180.98 57.1205 180.307 56.6805 179.44C56.2538 178.56 56.0405 177.547 56.0405 176.4ZM64.4005 176.42C64.4005 175.567 64.1605 174.893 63.6805 174.4C63.2138 173.907 62.6405 173.66 61.9605 173.66C61.2805 173.66 60.7005 173.907 60.2205 174.4C59.7538 174.88 59.5205 175.547 59.5205 176.4C59.5205 177.253 59.7538 177.933 60.2205 178.44C60.7005 178.933 61.2805 179.18 61.9605 179.18C62.6405 179.18 63.2138 178.933 63.6805 178.44C64.1605 177.947 64.4005 177.273 64.4005 176.42ZM69.6147 176.4C69.6147 175.253 69.828 174.247 70.2547 173.38C70.6947 172.513 71.288 171.847 72.0347 171.38C72.7814 170.913 73.6147 170.68 74.5347 170.68C75.3214 170.68 76.008 170.84 76.5947 171.16C77.1947 171.48 77.6547 171.9 77.9747 172.42V170.84H81.3947V182H77.9747V180.42C77.6414 180.94 77.1747 181.36 76.5747 181.68C75.988 182 75.3014 182.16 74.5147 182.16C73.608 182.16 72.7814 181.927 72.0347 181.46C71.288 180.98 70.6947 180.307 70.2547 179.44C69.828 178.56 69.6147 177.547 69.6147 176.4ZM77.9747 176.42C77.9747 175.567 77.7347 174.893 77.2547 174.4C76.788 173.907 76.2147 173.66 75.5347 173.66C74.8547 173.66 74.2747 173.907 73.7947 174.4C73.328 174.88 73.0947 175.547 73.0947 176.4C73.0947 177.253 73.328 177.933 73.7947 178.44C74.2747 178.933 74.8547 179.18 75.5347 179.18C76.2147 179.18 76.788 178.933 77.2547 178.44C77.7347 177.947 77.9747 177.273 77.9747 176.42ZM88.4089 182.16C87.4356 182.16 86.5689 181.993 85.8089 181.66C85.0489 181.327 84.4489 180.873 84.0089 180.3C83.5689 179.713 83.3222 179.06 83.2689 178.34H86.6489C86.6889 178.727 86.8689 179.04 87.1889 179.28C87.5089 179.52 87.9022 179.64 88.3689 179.64C88.7956 179.64 89.1222 179.56 89.3489 179.4C89.5889 179.227 89.7089 179.007 89.7089 178.74C89.7089 178.42 89.5422 178.187 89.2089 178.04C88.8756 177.88 88.3356 177.707 87.5889 177.52C86.7889 177.333 86.1222 177.14 85.5889 176.94C85.0556 176.727 84.5956 176.4 84.2089 175.96C83.8222 175.507 83.6289 174.9 83.6289 174.14C83.6289 173.5 83.8022 172.92 84.1489 172.4C84.5089 171.867 85.0289 171.447 85.7089 171.14C86.4022 170.833 87.2222 170.68 88.1689 170.68C89.5689 170.68 90.6689 171.027 91.4689 171.72C92.2822 172.413 92.7489 173.333 92.8689 174.48H89.7089C89.6556 174.093 89.4822 173.787 89.1889 173.56C88.9089 173.333 88.5356 173.22 88.0689 173.22C87.6689 173.22 87.3622 173.3 87.1489 173.46C86.9356 173.607 86.8289 173.813 86.8289 174.08C86.8289 174.4 86.9956 174.64 87.3289 174.8C87.6756 174.96 88.2089 175.12 88.9289 175.28C89.7556 175.493 90.4289 175.707 90.9489 175.92C91.4689 176.12 91.9222 176.453 92.3089 176.92C92.7089 177.373 92.9156 177.987 92.9289 178.76C92.9289 179.413 92.7422 180 92.3689 180.52C92.0089 181.027 91.4822 181.427 90.7889 181.72C90.1089 182.013 89.3156 182.16 88.4089 182.16ZM96.6213 182.16C96.0213 182.16 95.5279 181.987 95.1413 181.64C94.7679 181.28 94.5813 180.84 94.5813 180.32C94.5813 179.787 94.7679 179.34 95.1413 178.98C95.5279 178.62 96.0213 178.44 96.6213 178.44C97.2079 178.44 97.6879 178.62 98.0613 178.98C98.4479 179.34 98.6413 179.787 98.6413 180.32C98.6413 180.84 98.4479 181.28 98.0613 181.64C97.6879 181.987 97.2079 182.16 96.6213 182.16Z" fill="white"/>
<mask id="path-2-outside-1_1035_3" maskUnits="userSpaceOnUse" x="280" y="170" width="195" height="109" fill="black">
<rect fill="white" x="280" y="170" width="195" height="109"/>
<path d="M335.625 218.25C346.375 218.25 358.438 229.062 358.438 244.25C358.438 260.188 345.062 275 324.875 275H281.875V174.25H315C333.25 174.25 346.625 186.562 346.625 200.438C346.625 210.812 339.75 218.25 335.625 218.25ZM324.188 205.25C324.188 200.375 319.938 197.5 314.188 197.5H307.625V213.312H314C319.812 213.312 324.188 210.438 324.188 205.25ZM320.812 250.688C326.938 250.688 332.812 247.688 332.812 241.062C332.812 235.188 328.562 231.625 321 231.625L307.625 231.562V250.688H320.812ZM472.625 217.125C473.125 220.5 473.438 223.75 473.438 226.938C473.438 257.562 450.312 277.375 421.688 277.375C389.688 277.375 365.5 253.5 365.5 224.75C365.5 196 389.75 171.812 421 171.812C433.812 172 448.625 177.438 456.938 185.125L442.125 205.438C436.5 200.188 428.438 196.812 421 196.812C406 196.812 392.812 209.125 392.812 224.688C392.812 238.812 404.125 252.562 422.75 252.562C434.938 252.562 443.625 246.688 444 237.062H420.938V217.125H472.625Z"/>
</mask>
<path d="M281.875 275H280.875V276H281.875V275ZM281.875 174.25V173.25H280.875V174.25H281.875ZM307.625 197.5V196.5H306.625V197.5H307.625ZM307.625 213.312H306.625V214.312H307.625V213.312ZM321 231.625L320.995 232.625H321V231.625ZM307.625 231.562L307.63 230.563L306.625 230.558V231.562H307.625ZM307.625 250.688H306.625V251.688H307.625V250.688ZM335.625 218.25V219.25C345.772 219.25 357.438 229.563 357.438 244.25H358.438H359.438C359.438 228.562 346.978 217.25 335.625 217.25V218.25ZM358.438 244.25H357.438C357.438 259.607 344.538 274 324.875 274V275V276C345.587 276 359.438 260.768 359.438 244.25H358.438ZM324.875 275V274H281.875V275V276H324.875V275ZM281.875 275H282.875V174.25H281.875H280.875V275H281.875ZM281.875 174.25V175.25H315V174.25V173.25H281.875V174.25ZM315 174.25V175.25C332.85 175.25 345.625 187.255 345.625 200.438H346.625H347.625C347.625 185.87 333.65 173.25 315 173.25V174.25ZM346.625 200.438H345.625C345.625 205.405 343.978 209.658 341.856 212.657C340.794 214.157 339.626 215.324 338.51 216.107C337.377 216.902 336.374 217.25 335.625 217.25V218.25V219.25C336.938 219.25 338.341 218.669 339.658 217.744C340.991 216.809 342.316 215.468 343.488 213.812C345.834 210.498 347.625 205.845 347.625 200.438H346.625ZM324.188 205.25H325.188C325.188 202.486 323.967 200.255 321.941 198.745C319.944 197.256 317.216 196.5 314.188 196.5V197.5V198.5C316.909 198.5 319.181 199.182 320.746 200.349C322.283 201.495 323.188 203.139 323.188 205.25H324.188ZM314.188 197.5V196.5H307.625V197.5V198.5H314.188V197.5ZM307.625 197.5H306.625V213.312H307.625H308.625V197.5H307.625ZM307.625 213.312V214.312H314V213.312V212.312H307.625V213.312ZM314 213.312V214.312C317.057 214.312 319.834 213.558 321.874 212.026C323.944 210.471 325.188 208.161 325.188 205.25H324.188H323.188C323.188 207.527 322.244 209.247 320.673 210.427C319.072 211.629 316.755 212.312 314 212.312V213.312ZM320.812 250.688V251.688C324.02 251.688 327.239 250.905 329.686 249.176C332.171 247.421 333.812 244.717 333.812 241.062H332.812H331.812C331.812 244.033 330.516 246.142 328.532 247.543C326.511 248.97 323.73 249.688 320.812 249.688V250.688ZM332.812 241.062H333.812C333.812 237.863 332.643 235.202 330.371 233.363C328.128 231.548 324.924 230.625 321 230.625V231.625V232.625C324.639 232.625 327.341 233.483 329.113 234.918C330.857 236.329 331.812 238.387 331.812 241.062H332.812ZM321 231.625L321.005 230.625L307.63 230.563L307.625 231.562L307.62 232.562L320.995 232.625L321 231.625ZM307.625 231.562H306.625V250.688H307.625H308.625V231.562H307.625ZM307.625 250.688V251.688H320.812V250.688V249.688H307.625V250.688ZM472.625 217.125L473.614 216.978L473.488 216.125H472.625V217.125ZM421 171.812L421.015 170.813L421.007 170.812H421V171.812ZM456.938 185.125L457.745 185.714L458.27 184.995L457.616 184.391L456.938 185.125ZM442.125 205.438L441.443 206.169L442.268 206.939L442.933 206.027L442.125 205.438ZM444 237.062L444.999 237.101L445.04 236.062H444V237.062ZM420.938 237.062H419.938V238.062H420.938V237.062ZM420.938 217.125V216.125H419.938V217.125H420.938ZM472.625 217.125L471.636 217.272C472.131 220.616 472.438 223.814 472.438 226.938H473.438H474.438C474.438 223.686 474.119 220.384 473.614 216.978L472.625 217.125ZM473.438 226.938H472.438C472.438 256.951 449.821 276.375 421.688 276.375V277.375V278.375C450.804 278.375 474.438 258.174 474.438 226.938H473.438ZM421.688 277.375V276.375C390.193 276.375 366.5 252.902 366.5 224.75H365.5H364.5C364.5 254.098 389.182 278.375 421.688 278.375V277.375ZM365.5 224.75H366.5C366.5 196.584 390.27 172.812 421 172.812V171.812V170.812C389.23 170.812 364.5 195.416 364.5 224.75H365.5ZM421 171.812L420.985 172.812C433.591 172.997 448.154 178.364 456.259 185.859L456.938 185.125L457.616 184.391C449.096 176.511 434.034 171.003 421.015 170.813L421 171.812ZM456.938 185.125L456.13 184.536L441.317 204.848L442.125 205.438L442.933 206.027L457.745 185.714L456.938 185.125ZM442.125 205.438L442.807 204.706C437.013 199.298 428.711 195.812 421 195.812V196.812V197.812C428.164 197.812 435.987 201.077 441.443 206.169L442.125 205.438ZM421 196.812V195.812C405.475 195.812 391.812 208.545 391.812 224.688H392.812H393.812C393.812 209.705 406.525 197.812 421 197.812V196.812ZM392.812 224.688H391.812C391.812 239.356 403.564 253.562 422.75 253.562V252.562V251.562C404.686 251.562 393.812 238.269 393.812 224.688H392.812ZM422.75 252.562V253.562C428.992 253.562 434.431 252.059 438.386 249.236C442.365 246.395 444.799 242.241 444.999 237.101L444 237.062L443.001 237.024C442.826 241.509 440.729 245.105 437.224 247.608C433.694 250.128 428.695 251.562 422.75 251.562V252.562ZM444 237.062V236.062H420.938V237.062V238.062H444V237.062ZM420.938 237.062H421.938V217.125H420.938H419.938V237.062H420.938ZM420.938 217.125V218.125H472.625V217.125V216.125H420.938V217.125Z" fill="url(#paint0_linear_1035_3)" mask="url(#path-2-outside-1_1035_3)"/>
</g>
<defs>
<linearGradient id="paint0_linear_1035_3" x1="284.5" y1="164.5" x2="375.5" y2="364" gradientUnits="userSpaceOnUse">
<stop offset="0.0520473" stop-color="white" stop-opacity="0"/>
<stop offset="0.125" stop-color="white" stop-opacity="0"/>
<stop offset="0.740385" stop-color="#EDF5FF" stop-opacity="0.62"/>
</linearGradient>
<clipPath id="clip0_1035_3">
<rect width="429" height="286" fill="white"/>
</clipPath>
</defs>
</svg>
